{"glyphs":{"0":{"ha":1251,"x_min":65,"x_max":1186,"o":"m 1186 486 q 1154 297 1186 385 q 1063 142 1122 208 q 922 38 1004 75 q 739 0 839 0 l 513 0 q 329 38 411 0 q 188 142 247 75 q 97 297 129 208 q 65 486 65 385 q 97 674 65 586 q 188 830 129 763 q 329 935 247 897 q 513 972 411 972 l 739 972 q 922 935 839 972 q 1063 830 1004 897 q 1154 674 1122 763 q 1186 486 1186 586 m 1047 486 q 1010 661 1047 582 q 904 787 974 740 q 739 833 835 833 l 513 833 q 348 787 417 833 q 242 661 279 740 q 204 486 204 582 q 242 312 204 390 q 348 186 279 233 q 513 139 417 139 l 739 139 q 904 186 835 139 q 1010 312 974 233 q 1047 486 1047 390 z "},"1":{"ha":435,"x_min":40,"x_max":318,"o":"m 318 0 l 179 0 l 179 833 l 40 833 l 40 972 l 318 972 l 318 0 z "},"2":{"ha":1038,"x_min":63,"x_max":965,"o":"m 965 0 l 63 0 l 63 278 q 100 417 63 354 q 201 518 138 481 q 340 556 264 556 l 688 556 q 785 597 744 556 q 826 694 826 638 q 785 792 826 751 q 688 833 744 833 l 132 833 l 132 972 l 688 972 q 827 935 764 972 q 928 834 890 897 q 965 694 965 771 q 928 555 965 618 q 827 454 890 492 q 688 417 764 417 l 340 417 q 242 376 283 417 q 200 278 200 335 l 200 139 l 965 139 l 965 0 z "},"3":{"ha":1050,"x_min":68,"x_max":971,"o":"m 971 694 q 945 578 971 632 q 875 486 919 524 q 945 393 919 447 q 971 278 971 339 q 933 138 971 201 q 833 38 896 75 q 693 0 769 0 l 68 0 l 68 139 l 693 139 q 791 180 750 139 q 832 278 832 221 q 791 376 832 335 q 693 417 750 417 l 243 417 l 243 556 l 693 556 q 791 597 750 556 q 832 694 832 638 q 791 792 832 751 q 693 833 750 833 l 68 833 l 68 972 l 693 972 q 833 935 769 972 q 933 834 896 897 q 971 694 971 771 z "},"4":{"ha":1144,"x_min":56,"x_max":1028,"o":"m 56 972 l 194 972 l 194 625 q 235 527 194 568 q 333 486 276 486 l 889 486 l 889 972 l 1028 972 l 1028 0 l 889 0 l 889 347 l 333 347 q 194 385 257 347 q 93 485 131 422 q 56 625 56 549 l 56 972 z "},"5":{"ha":1046,"x_min":89,"x_max":994,"o":"m 994 313 q 953 156 994 226 q 840 42 911 85 q 682 0 769 0 l 89 0 l 89 139 l 682 139 q 769 163 731 139 q 832 226 808 186 q 856 313 856 265 q 832 400 856 361 q 769 463 808 439 q 682 486 731 486 l 90 486 l 90 972 l 925 972 l 925 833 l 229 833 l 229 625 l 682 625 q 840 583 769 625 q 953 469 911 540 q 994 313 994 399 z "},"6":{"ha":1113,"x_min":89,"x_max":1061,"o":"m 1061 313 q 1019 156 1061 226 q 906 42 976 85 q 749 0 835 0 l 401 0 q 244 42 315 0 q 131 156 174 85 q 89 313 89 226 l 89 660 q 131 817 89 746 q 244 930 174 888 q 401 972 315 972 l 992 972 l 992 833 l 401 833 q 315 810 354 833 q 251 747 275 786 q 228 660 228 708 l 228 313 q 251 226 228 265 q 315 163 275 186 q 401 139 354 139 l 749 139 q 836 163 797 139 q 899 226 875 186 q 922 313 922 265 q 899 400 922 361 q 836 463 875 439 q 749 486 797 486 l 297 486 l 297 625 l 749 625 q 906 583 835 625 q 1019 469 976 540 q 1061 313 1061 399 z "},"7":{"ha":1029,"x_min":39,"x_max":1011,"o":"m 1011 833 l 290 0 l 100 0 l 821 833 l 39 833 l 39 972 l 1011 972 l 1011 833 z "},"8":{"ha":1164,"x_min":61,"x_max":1103,"o":"m 1033 694 q 1016 597 1033 643 q 967 515 999 551 q 1065 416 1028 479 q 1103 278 1103 353 q 1065 138 1103 201 q 965 38 1028 75 q 825 0 901 0 l 339 0 q 199 38 263 0 q 99 138 136 75 q 61 278 61 201 q 99 416 61 353 q 196 515 136 479 q 131 694 131 592 q 168 834 131 771 q 269 935 206 897 q 408 972 332 972 l 756 972 q 895 935 832 972 q 996 834 958 897 q 1033 694 1033 771 m 756 556 q 853 597 813 556 q 894 694 894 638 q 853 792 894 751 q 756 833 813 833 l 408 833 q 310 792 350 833 q 269 694 269 751 q 310 597 269 638 q 408 556 350 556 l 756 556 m 339 417 q 240 376 281 417 q 200 278 200 335 q 240 180 200 221 q 339 139 281 139 l 825 139 q 923 180 882 139 q 964 278 964 221 q 923 376 964 335 q 825 417 882 417 l 339 417 z "},"9":{"ha":1113,"x_min":51,"x_max":1024,"o":"m 1024 313 q 981 156 1024 226 q 868 42 939 85 q 711 0 797 0 l 121 0 l 121 139 l 711 139 q 799 163 760 139 q 861 226 838 186 q 885 313 885 265 l 885 660 q 861 747 885 708 q 799 810 838 786 q 711 833 760 833 l 364 833 q 277 810 317 833 q 214 747 238 786 q 190 660 190 708 q 214 573 190 613 q 277 510 238 533 q 364 486 317 486 l 815 486 l 815 347 l 364 347 q 206 390 278 347 q 93 503 135 432 q 51 660 51 574 q 93 817 51 746 q 206 930 135 888 q 364 972 278 972 l 711 972 q 868 930 797 972 q 981 817 939 888 q 1024 660 1024 746 l 1024 313 z "},"A":{"ha":1339,"x_min":100,"x_max":1222,"o":"m 1222 0 l 1083 0 l 1083 278 l 307 278 l 307 417 l 1083 417 l 1083 833 l 585 833 q 411 787 490 833 q 285 661 332 740 q 239 486 239 582 l 239 0 l 100 0 l 100 486 q 138 674 100 586 q 242 830 175 763 q 397 935 308 897 q 585 972 485 972 l 1222 972 l 1222 0 z "},"Á":{"ha":1339,"x_min":100,"x_max":1222,"o":"m 1222 0 l 1083 0 l 1083 278 l 307 278 l 307 417 l 1083 417 l 1083 833 l 585 833 q 411 787 490 833 q 285 661 332 740 q 239 486 239 582 l 239 0 l 100 0 l 100 486 q 138 674 100 586 q 242 830 175 763 q 397 935 308 897 q 585 972 485 972 l 1222 972 l 1222 0 m 943 1140 l 689 1049 l 656 1122 l 890 1260 l 943 1140 z "},"Ă":{"ha":1339,"x_min":100,"x_max":1222,"o":"m 1222 0 l 1083 0 l 1083 278 l 307 278 l 307 417 l 1083 417 l 1083 833 l 585 833 q 411 787 490 833 q 285 661 332 740 q 239 486 239 582 l 239 0 l 100 0 l 100 486 q 138 674 100 586 q 242 830 175 763 q 397 935 308 897 q 585 972 485 972 l 1222 972 l 1222 0 m 868 1239 q 859 1190 867 1221 q 831 1128 851 1160 q 771 1074 810 1096 q 669 1053 732 1053 q 568 1074 607 1053 q 508 1128 529 1096 q 480 1190 488 1160 q 471 1239 472 1221 l 563 1239 q 577 1210 567 1228 q 609 1180 588 1193 q 669 1167 631 1167 q 731 1180 708 1167 q 763 1210 753 1193 q 776 1239 774 1228 l 868 1239 z "},"Â":{"ha":1339,"x_min":100,"x_max":1222,"o":"m 1222 0 l 1083 0 l 1083 278 l 307 278 l 307 417 l 1083 417 l 1083 833 l 585 833 q 411 787 490 833 q 285 661 332 740 q 239 486 239 582 l 239 0 l 100 0 l 100 486 q 138 674 100 586 q 242 830 175 763 q 397 935 308 897 q 585 972 485 972 l 1222 972 l 1222 0 m 824 1049 l 654 1138 l 485 1049 l 439 1118 l 654 1261 l 883 1118 l 824 1049 z "},"Ä":{"ha":1339,"x_min":100,"x_max":1222,"o":"m 1222 0 l 1083 0 l 1083 278 l 307 278 l 307 417 l 1083 417 l 1083 833 l 585 833 q 411 787 490 833 q 285 661 332 740 q 239 486 239 582 l 239 0 l 100 0 l 100 486 q 138 674 100 586 q 242 830 175 763 q 397 935 308 897 q 585 972 485 972 l 1222 972 l 1222 0 m 611 1114 q 592 1069 611 1088 q 549 1051 574 1051 q 503 1069 522 1051 q 485 1114 485 1088 q 503 1158 485 1139 q 549 1176 522 1176 q 592 1158 574 1176 q 611 1114 611 1139 m 838 1114 q 819 1069 838 1088 q 774 1051 800 1051 q 729 1069 747 1051 q 711 1114 711 1088 q 729 1158 711 1139 q 774 1176 747 1176 q 819 1158 800 1176 q 838 1114 838 1139 z "},"À":{"ha":1339,"x_min":100,"x_max":1222,"o":"m 1222 0 l 1083 0 l 1083 278 l 307 278 l 307 417 l 1083 417 l 1083 833 l 585 833 q 411 787 490 833 q 285 661 332 740 q 239 486 239 582 l 239 0 l 100 0 l 100 486 q 138 674 100 586 q 242 830 175 763 q 397 935 308 897 q 585 972 485 972 l 1222 972 l 1222 0 m 431 1260 l 665 1122 l 632 1049 l 378 1140 l 431 1260 z "},"Ā":{"ha":1339,"x_min":100,"x_max":1222,"o":"m 1222 0 l 1083 0 l 1083 278 l 307 278 l 307 417 l 1083 417 l 1083 833 l 585 833 q 411 787 490 833 q 285 661 332 740 q 239 486 239 582 l 239 0 l 100 0 l 100 486 q 138 674 100 586 q 242 830 175 763 q 397 935 308 897 q 585 972 485 972 l 1222 972 l 1222 0 m 506 1058 l 506 1172 l 833 1172 l 833 1058 l 506 1058 z "},"Ą":{"ha":1339,"x_min":100,"x_max":1306,"o":"m 1222 0 l 1196 0 q 1159 -44 1172 -19 q 1146 -89 1146 -68 q 1199 -122 1146 -122 q 1255 -113 1222 -122 q 1306 -97 1288 -104 l 1306 -187 q 1256 -201 1288 -193 q 1168 -210 1224 -210 q 1079 -190 1117 -210 q 1042 -118 1042 -169 q 1055 -58 1042 -93 q 1099 0 1068 -24 l 1083 0 l 1083 278 l 307 278 l 307 417 l 1083 417 l 1083 833 l 585 833 q 411 787 490 833 q 285 661 332 740 q 239 486 239 582 l 239 0 l 100 0 l 100 486 q 138 674 100 586 q 242 830 175 763 q 397 935 308 897 q 585 972 485 972 l 1222 972 l 1222 0 z "},"Å":{"ha":1339,"x_min":100,"x_max":1222,"o":"m 1222 0 l 1083 0 l 1083 278 l 307 278 l 307 417 l 1083 417 l 1083 833 l 585 833 q 411 787 490 833 q 285 661 332 740 q 239 486 239 582 l 239 0 l 100 0 l 100 486 q 138 674 100 586 q 242 830 175 763 q 397 935 308 897 q 585 972 485 972 l 1222 972 l 1222 0 m 518 1140 q 558 1224 518 1189 q 661 1258 599 1258 q 767 1224 731 1258 q 804 1140 804 1189 q 765 1058 804 1093 q 661 1022 726 1022 q 556 1058 594 1022 q 518 1140 518 1093 m 614 1140 q 626 1107 614 1121 q 661 1093 638 1093 q 697 1107 685 1093 q 708 1140 708 1121 q 697 1174 708 1160 q 661 1188 685 1188 q 626 1174 638 1188 q 614 1140 614 1160 z "},"Ã":{"ha":1339,"x_min":100,"x_max":1222,"o":"m 1222 0 l 1083 0 l 1083 278 l 307 278 l 307 417 l 1083 417 l 1083 833 l 585 833 q 411 787 490 833 q 285 661 332 740 q 239 486 239 582 l 239 0 l 100 0 l 100 486 q 138 674 100 586 q 242 830 175 763 q 397 935 308 897 q 585 972 485 972 l 1222 972 l 1222 0 m 854 1214 q 818 1084 854 1121 q 731 1047 782 1047 q 674 1062 696 1047 q 637 1091 653 1076 q 599 1106 621 1106 q 570 1094 579 1106 q 558 1068 561 1082 q 554 1047 556 1054 l 468 1047 q 506 1172 468 1131 q 592 1214 543 1214 q 644 1199 624 1214 q 683 1170 665 1185 q 724 1156 701 1156 q 752 1167 743 1156 q 764 1193 761 1179 q 767 1214 767 1207 l 854 1214 z "},"Æ":{"ha":2146,"x_min":100,"x_max":2090,"o":"m 2090 0 l 1083 0 l 1083 278 l 307 278 l 307 417 l 1083 417 l 1083 833 l 585 833 q 411 787 490 833 q 285 661 332 740 q 239 486 239 582 l 239 0 l 100 0 l 100 486 q 138 674 100 586 q 242 830 175 763 q 397 935 308 897 q 585 972 485 972 l 2090 972 l 2090 833 l 1224 833 l 1224 139 l 2090 139 l 2090 0 m 1972 417 l 1293 417 l 1293 556 l 1972 556 l 1972 417 z "},"Ǽ":{"ha":2146,"x_min":100,"x_max":2090,"o":"m 2090 0 l 1083 0 l 1083 278 l 307 278 l 307 417 l 1083 417 l 1083 833 l 585 833 q 411 787 490 833 q 285 661 332 740 q 239 486 239 582 l 239 0 l 100 0 l 100 486 q 138 674 100 586 q 242 830 175 763 q 397 935 308 897 q 585 972 485 972 l 2090 972 l 2090 833 l 1224 833 l 1224 139 l 2090 139 l 2090 0 m 1972 417 l 1293 417 l 1293 556 l 1972 556 l 1972 417 m 1439 1126 l 1185 1035 l 1151 1108 l 1386 1246 l 1439 1126 z "},"B":{"ha":1307,"x_min":117,"x_max":1261,"o":"m 1261 278 q 1224 138 1261 201 q 1123 38 1186 75 q 983 0 1060 0 l 325 0 l 325 139 l 983 139 q 1081 180 1040 139 q 1122 278 1122 221 q 1081 376 1122 335 q 983 417 1040 417 l 325 417 l 325 556 l 844 556 q 942 597 901 556 q 983 694 983 638 q 942 792 983 751 q 844 833 901 833 l 256 833 l 256 0 l 117 0 l 117 972 l 844 972 q 984 935 921 972 q 1085 834 1047 897 q 1122 694 1122 771 q 1110 612 1122 651 q 1075 539 1097 572 q 1209 440 1157 511 q 1261 278 1261 368 z "},"C":{"ha":1186,"x_min":61,"x_max":1135,"o":"m 1135 0 l 508 0 q 325 38 407 0 q 184 142 243 75 q 93 297 125 208 q 61 486 61 385 q 93 674 61 586 q 184 830 125 763 q 325 935 243 897 q 508 972 407 972 l 1135 972 l 1135 833 l 508 833 q 344 787 413 833 q 238 661 275 740 q 200 486 200 582 q 238 312 200 390 q 344 186 275 233 q 508 139 413 139 l 1135 139 l 1135 0 z "},"Ć":{"ha":1186,"x_min":61,"x_max":1135,"o":"m 1135 0 l 508 0 q 325 38 407 0 q 184 142 243 75 q 93 297 125 208 q 61 486 61 385 q 93 674 61 586 q 184 830 125 763 q 325 935 243 897 q 508 972 407 972 l 1135 972 l 1135 833 l 508 833 q 344 787 413 833 q 238 661 275 740 q 200 486 200 582 q 238 312 200 390 q 344 186 275 233 q 508 139 413 139 l 1135 139 l 1135 0 m 944 1140 l 690 1049 l 657 1122 l 892 1260 l 944 1140 z "},"Č":{"ha":1186,"x_min":61,"x_max":1135,"o":"m 1135 0 l 508 0 q 325 38 407 0 q 184 142 243 75 q 93 297 125 208 q 61 486 61 385 q 93 674 61 586 q 184 830 125 763 q 325 935 243 897 q 508 972 407 972 l 1135 972 l 1135 833 l 508 833 q 344 787 413 833 q 238 661 275 740 q 200 486 200 582 q 238 312 200 390 q 344 186 275 233 q 508 139 413 139 l 1135 139 l 1135 0 m 507 1247 l 676 1160 l 846 1247 l 892 1179 l 676 1035 l 461 1179 l 507 1247 z "},"Ç":{"ha":1186,"x_min":61,"x_max":1135,"o":"m 1135 0 l 708 0 l 696 -33 q 740 -40 715 -33 q 781 -66 764 -47 q 799 -122 799 -85 q 775 -181 799 -160 q 716 -212 751 -203 q 644 -221 681 -221 q 574 -216 594 -221 q 535 -210 554 -211 l 535 -124 q 581 -140 554 -133 q 633 -146 607 -146 q 679 -140 661 -146 q 697 -121 697 -133 q 676 -101 697 -106 q 640 -96 656 -96 q 617 -97 629 -96 q 594 -101 606 -99 l 632 0 l 508 0 q 325 38 407 0 q 184 142 243 75 q 93 297 125 208 q 61 486 61 385 q 93 674 61 586 q 184 830 125 763 q 325 935 243 897 q 508 972 407 972 l 1135 972 l 1135 833 l 508 833 q 344 787 413 833 q 238 661 275 740 q 200 486 200 582 q 238 312 200 390 q 344 186 275 233 q 508 139 413 139 l 1135 139 l 1135 0 z "},"Ĉ":{"ha":1186,"x_min":61,"x_max":1135,"o":"m 1135 0 l 508 0 q 325 38 407 0 q 184 142 243 75 q 93 297 125 208 q 61 486 61 385 q 93 674 61 586 q 184 830 125 763 q 325 935 243 897 q 508 972 407 972 l 1135 972 l 1135 833 l 508 833 q 344 787 413 833 q 238 661 275 740 q 200 486 200 582 q 238 312 200 390 q 344 186 275 233 q 508 139 413 139 l 1135 139 l 1135 0 m 839 1049 l 669 1138 l 500 1049 l 454 1118 l 669 1261 l 899 1118 l 839 1049 z "},"Ċ":{"ha":1186,"x_min":61,"x_max":1135,"o":"m 1135 0 l 508 0 q 325 38 407 0 q 184 142 243 75 q 93 297 125 208 q 61 486 61 385 q 93 674 61 586 q 184 830 125 763 q 325 935 243 897 q 508 972 407 972 l 1135 972 l 1135 833 l 508 833 q 344 787 413 833 q 238 661 275 740 q 200 486 200 582 q 238 312 200 390 q 344 186 275 233 q 508 139 413 139 l 1135 139 l 1135 0 m 739 1114 q 720 1069 739 1088 q 676 1051 701 1051 q 632 1069 650 1051 q 614 1114 614 1088 q 632 1158 614 1139 q 676 1176 650 1176 q 720 1158 701 1176 q 739 1114 739 1139 z "},"D":{"ha":1324,"x_min":117,"x_max":1263,"o":"m 1263 486 q 1231 297 1263 385 q 1140 142 1199 208 q 998 38 1081 75 q 815 0 915 0 l 325 0 l 325 139 l 815 139 q 981 186 911 139 q 1087 312 1050 233 q 1124 486 1124 390 q 1087 661 1124 582 q 981 787 1050 740 q 815 833 911 833 l 256 833 l 256 0 l 117 0 l 117 972 l 815 972 q 998 935 915 972 q 1140 830 1081 897 q 1231 674 1199 763 q 1263 486 1263 586 z "},"Ð":{"ha":1386,"x_min":-1,"x_max":1325,"o":"m 763 417 l 318 417 l 318 0 l 179 0 l 179 417 l -1 417 l -1 556 l 179 556 l 179 972 l 878 972 q 1060 935 978 972 q 1202 830 1143 897 q 1293 674 1261 763 q 1325 486 1325 586 q 1293 297 1325 385 q 1202 142 1261 208 q 1060 38 1143 75 q 878 0 978 0 l 388 0 l 388 139 l 878 139 q 1043 186 974 139 q 1149 312 1113 233 q 1186 486 1186 390 q 1149 661 1186 582 q 1043 787 1113 740 q 878 833 974 833 l 318 833 l 318 556 l 763 556 l 763 417 z "},"Ď":{"ha":1324,"x_min":117,"x_max":1263,"o":"m 1263 486 q 1231 297 1263 385 q 1140 142 1199 208 q 998 38 1081 75 q 815 0 915 0 l 325 0 l 325 139 l 815 139 q 981 186 911 139 q 1087 312 1050 233 q 1124 486 1124 390 q 1087 661 1124 582 q 981 787 1050 740 q 815 833 911 833 l 256 833 l 256 0 l 117 0 l 117 972 l 815 972 q 998 935 915 972 q 1140 830 1081 897 q 1231 674 1199 763 q 1263 486 1263 586 m 492 1247 l 661 1160 l 831 1247 l 876 1179 l 661 1035 l 446 1179 l 492 1247 z "},"Đ":{"ha":1386,"x_min":-1,"x_max":1325,"o":"m 763 417 l 318 417 l 318 0 l 179 0 l 179 417 l -1 417 l -1 556 l 179 556 l 179 972 l 878 972 q 1060 935 978 972 q 1202 830 1143 897 q 1293 674 1261 763 q 1325 486 1325 586 q 1293 297 1325 385 q 1202 142 1261 208 q 1060 38 1143 75 q 878 0 978 0 l 388 0 l 388 139 l 878 139 q 1043 186 974 139 q 1149 312 1113 233 q 1186 486 1186 390 q 1149 661 1186 582 q 1043 787 1113 740 q 878 833 974 833 l 318 833 l 318 556 l 763 556 l 763 417 z "},"E":{"ha":1178,"x_min":117,"x_max":1122,"o":"m 1122 0 l 117 0 l 117 972 l 1122 972 l 1122 833 l 256 833 l 256 139 l 1122 139 l 1122 0 m 1004 417 l 325 417 l 325 556 l 1004 556 l 1004 417 z "},"É":{"ha":1178,"x_min":117,"x_max":1122,"o":"m 1122 0 l 117 0 l 117 972 l 1122 972 l 1122 833 l 256 833 l 256 139 l 1122 139 l 1122 0 m 1004 417 l 325 417 l 325 556 l 1004 556 l 1004 417 m 901 1140 l 647 1049 l 614 1122 l 849 1260 l 901 1140 z "},"Ĕ":{"ha":1178,"x_min":117,"x_max":1122,"o":"m 1122 0 l 117 0 l 117 972 l 1122 972 l 1122 833 l 256 833 l 256 139 l 1122 139 l 1122 0 m 1004 417 l 325 417 l 325 556 l 1004 556 l 1004 417 m 829 1239 q 820 1190 828 1221 q 792 1128 813 1160 q 732 1074 771 1096 q 631 1053 693 1053 q 529 1074 568 1053 q 469 1128 490 1096 q 441 1190 449 1160 q 432 1239 433 1221 l 524 1239 q 538 1210 528 1228 q 570 1180 549 1193 q 631 1167 592 1167 q 692 1180 669 1167 q 724 1210 714 1193 q 738 1239 735 1228 l 829 1239 z "},"Ě":{"ha":1178,"x_min":117,"x_max":1122,"o":"m 1122 0 l 117 0 l 117 972 l 1122 972 l 1122 833 l 256 833 l 256 139 l 1122 139 l 1122 0 m 1004 417 l 325 417 l 325 556 l 1004 556 l 1004 417 m 461 1247 l 631 1160 l 800 1247 l 846 1179 l 631 1035 l 415 1179 l 461 1247 z "},"Ê":{"ha":1178,"x_min":117,"x_max":1122,"o":"m 1122 0 l 117 0 l 117 972 l 1122 972 l 1122 833 l 256 833 l 256 139 l 1122 139 l 1122 0 m 1004 417 l 325 417 l 325 556 l 1004 556 l 1004 417 m 782 1049 l 613 1138 l 443 1049 l 397 1118 l 613 1261 l 842 1118 l 782 1049 z "},"Ë":{"ha":1178,"x_min":117,"x_max":1122,"o":"m 1122 0 l 117 0 l 117 972 l 1122 972 l 1122 833 l 256 833 l 256 139 l 1122 139 l 1122 0 m 1004 417 l 325 417 l 325 556 l 1004 556 l 1004 417 m 569 1114 q 551 1069 569 1088 q 507 1051 532 1051 q 462 1069 481 1051 q 443 1114 443 1088 q 462 1158 443 1139 q 507 1176 481 1176 q 551 1158 532 1176 q 569 1114 569 1139 m 796 1114 q 777 1069 796 1088 q 732 1051 758 1051 q 688 1069 706 1051 q 669 1114 669 1088 q 688 1158 669 1139 q 732 1176 706 1176 q 777 1158 758 1176 q 796 1114 796 1139 z "},"Ė":{"ha":1178,"x_min":117,"x_max":1122,"o":"m 1122 0 l 117 0 l 117 972 l 1122 972 l 1122 833 l 256 833 l 256 139 l 1122 139 l 1122 0 m 1004 417 l 325 417 l 325 556 l 1004 556 l 1004 417 m 693 1114 q 674 1069 693 1088 q 631 1051 656 1051 q 586 1069 604 1051 q 568 1114 568 1088 q 586 1158 568 1139 q 631 1176 604 1176 q 674 1158 656 1176 q 693 1114 693 1139 z "},"È":{"ha":1178,"x_min":117,"x_max":1122,"o":"m 1122 0 l 117 0 l 117 972 l 1122 972 l 1122 833 l 256 833 l 256 139 l 1122 139 l 1122 0 m 1004 417 l 325 417 l 325 556 l 1004 556 l 1004 417 m 389 1260 l 624 1122 l 590 1049 l 336 1140 l 389 1260 z "},"Ē":{"ha":1178,"x_min":117,"x_max":1122,"o":"m 1122 0 l 117 0 l 117 972 l 1122 972 l 1122 833 l 256 833 l 256 139 l 1122 139 l 1122 0 m 1004 417 l 325 417 l 325 556 l 1004 556 l 1004 417 m 467 1058 l 467 1172 l 794 1172 l 794 1058 l 467 1058 z "},"Ę":{"ha":1178,"x_min":117,"x_max":1122,"o":"m 1122 0 l 1013 0 q 976 -44 989 -19 q 963 -89 963 -68 q 1015 -122 963 -122 q 1072 -113 1039 -122 q 1122 -97 1104 -104 l 1122 -187 q 1072 -201 1104 -193 q 985 -210 1040 -210 q 896 -190 933 -210 q 858 -118 858 -169 q 872 -58 858 -93 q 915 0 885 -24 l 117 0 l 117 972 l 1122 972 l 1122 833 l 256 833 l 256 139 l 1122 139 l 1122 0 m 1004 417 l 325 417 l 325 556 l 1004 556 l 1004 417 z "},"F":{"ha":1147,"x_min":117,"x_max":1124,"o":"m 1124 833 l 256 833 l 256 0 l 117 0 l 117 972 l 1124 972 l 1124 833 m 1004 417 l 325 417 l 325 556 l 1004 556 l 1004 417 z "},"G":{"ha":1225,"x_min":61,"x_max":1135,"o":"m 1135 0 l 508 0 q 325 38 407 0 q 184 142 243 75 q 93 297 125 208 q 61 486 61 385 q 93 674 61 586 q 184 830 125 763 q 325 935 243 897 q 508 972 407 972 l 1135 972 l 1135 833 l 508 833 q 344 787 413 833 q 238 661 275 740 q 200 486 200 582 q 238 312 200 390 q 344 186 275 233 q 508 139 413 139 l 996 139 l 996 417 l 407 417 l 407 556 l 1135 556 l 1135 0 z "},"Ğ":{"ha":1225,"x_min":61,"x_max":1135,"o":"m 1135 0 l 508 0 q 325 38 407 0 q 184 142 243 75 q 93 297 125 208 q 61 486 61 385 q 93 674 61 586 q 184 830 125 763 q 325 935 243 897 q 508 972 407 972 l 1135 972 l 1135 833 l 508 833 q 344 787 413 833 q 238 661 275 740 q 200 486 200 582 q 238 312 200 390 q 344 186 275 233 q 508 139 413 139 l 996 139 l 996 417 l 407 417 l 407 556 l 1135 556 l 1135 0 m 853 1239 q 844 1190 851 1221 q 815 1128 836 1160 q 756 1074 794 1096 q 654 1053 717 1053 q 553 1074 592 1053 q 493 1128 514 1096 q 465 1190 472 1160 q 456 1239 457 1221 l 547 1239 q 562 1210 551 1228 q 594 1180 572 1193 q 654 1167 615 1167 q 715 1180 693 1167 q 748 1210 738 1193 q 761 1239 758 1228 l 853 1239 z "},"Ĝ":{"ha":1225,"x_min":61,"x_max":1135,"o":"m 1135 0 l 508 0 q 325 38 407 0 q 184 142 243 75 q 93 297 125 208 q 61 486 61 385 q 93 674 61 586 q 184 830 125 763 q 325 935 243 897 q 508 972 407 972 l 1135 972 l 1135 833 l 508 833 q 344 787 413 833 q 238 661 275 740 q 200 486 200 582 q 238 312 200 390 q 344 186 275 233 q 508 139 413 139 l 996 139 l 996 417 l 407 417 l 407 556 l 1135 556 l 1135 0 m 817 1049 l 647 1138 l 478 1049 l 432 1118 l 647 1261 l 876 1118 l 817 1049 z "},"Ģ":{"ha":1225,"x_min":61,"x_max":1135,"o":"m 1135 0 l 508 0 q 325 38 407 0 q 184 142 243 75 q 93 297 125 208 q 61 486 61 385 q 93 674 61 586 q 184 830 125 763 q 325 935 243 897 q 508 972 407 972 l 1135 972 l 1135 833 l 508 833 q 344 787 413 833 q 238 661 275 740 q 200 486 200 582 q 238 312 200 390 q 344 186 275 233 q 508 139 413 139 l 996 139 l 996 417 l 407 417 l 407 556 l 1135 556 l 1135 0 m 738 -171 q 724 -239 736 -207 q 701 -290 713 -271 q 690 -310 690 -310 l 619 -308 q 628 -292 619 -308 q 642 -250 636 -276 q 591 -222 611 -246 q 571 -167 571 -199 q 595 -108 571 -133 q 654 -83 619 -83 q 713 -109 689 -83 q 738 -171 738 -135 z "},"Ġ":{"ha":1225,"x_min":61,"x_max":1135,"o":"m 1135 0 l 508 0 q 325 38 407 0 q 184 142 243 75 q 93 297 125 208 q 61 486 61 385 q 93 674 61 586 q 184 830 125 763 q 325 935 243 897 q 508 972 407 972 l 1135 972 l 1135 833 l 508 833 q 344 787 413 833 q 238 661 275 740 q 200 486 200 582 q 238 312 200 390 q 344 186 275 233 q 508 139 413 139 l 996 139 l 996 417 l 407 417 l 407 556 l 1135 556 l 1135 0 m 717 1114 q 698 1069 717 1088 q 654 1051 679 1051 q 610 1069 628 1051 q 592 1114 592 1088 q 610 1158 592 1139 q 654 1176 628 1176 q 698 1158 679 1176 q 717 1114 717 1139 z "},"H":{"ha":1260,"x_min":117,"x_max":1143,"o":"m 1143 0 l 1004 0 l 1004 417 l 325 417 l 325 556 l 1004 556 l 1004 972 l 1143 972 l 1143 0 m 256 0 l 117 0 l 117 972 l 256 972 l 256 0 z "},"Ħ":{"ha":1260,"x_min":117,"x_max":1143,"o":"m 256 792 l 946 792 l 946 653 l 256 653 l 256 0 l 117 0 l 117 972 l 256 972 l 256 792 m 1143 0 l 1004 0 l 1004 417 l 325 417 l 325 556 l 1004 556 l 1004 972 l 1143 972 l 1143 0 z "},"Ĥ":{"ha":1260,"x_min":117,"x_max":1143,"o":"m 1143 0 l 1004 0 l 1004 417 l 325 417 l 325 556 l 1004 556 l 1004 972 l 1143 972 l 1143 0 m 256 0 l 117 0 l 117 972 l 256 972 l 256 0 m 806 1049 l 636 1138 l 467 1049 l 421 1118 l 636 1261 l 865 1118 l 806 1049 z "},"I":{"ha":372,"x_min":117,"x_max":256,"o":"m 256 0 l 117 0 l 117 972 l 256 972 l 256 0 z "},"Ĳ":{"ha":1586,"x_min":117,"x_max":1486,"o":"m 256 0 l 117 0 l 117 972 l 256 972 l 256 0 m 1486 486 q 1449 297 1486 385 q 1344 142 1411 208 q 1190 38 1278 75 q 1000 0 1101 0 l 424 0 l 424 139 l 1000 139 q 1175 186 1096 139 q 1301 312 1254 233 q 1347 486 1347 390 l 1347 833 l 424 833 l 424 972 l 1486 972 l 1486 486 z "},"Í":{"ha":372,"x_min":117,"x_max":469,"o":"m 256 0 l 117 0 l 117 972 l 256 972 l 256 0 m 469 1140 l 215 1049 l 182 1122 l 417 1260 l 469 1140 z "},"Ĭ":{"ha":372,"x_min":-12,"x_max":385,"o":"m 256 0 l 117 0 l 117 972 l 256 972 l 256 0 m 385 1239 q 376 1190 383 1221 q 347 1128 368 1160 q 288 1074 326 1096 q 186 1053 249 1053 q 85 1074 124 1053 q 25 1128 46 1096 q -3 1190 4 1160 q -12 1239 -11 1221 l 79 1239 q 94 1210 83 1228 q 126 1180 104 1193 q 186 1167 147 1167 q 247 1180 225 1167 q 280 1210 269 1193 q 293 1239 290 1228 l 385 1239 z "},"Î":{"ha":372,"x_min":-36,"x_max":408,"o":"m 256 0 l 117 0 l 117 972 l 256 972 l 256 0 m 349 1049 l 179 1138 l 10 1049 l -36 1118 l 179 1261 l 408 1118 l 349 1049 z "},"Ï":{"ha":372,"x_min":10,"x_max":363,"o":"m 256 0 l 117 0 l 117 972 l 256 972 l 256 0 m 136 1114 q 117 1069 136 1088 q 74 1051 99 1051 q 28 1069 47 1051 q 10 1114 10 1088 q 28 1158 10 1139 q 74 1176 47 1176 q 117 1158 99 1176 q 136 1114 136 1139 m 363 1114 q 344 1069 363 1088 q 299 1051 325 1051 q 254 1069 272 1051 q 236 1114 236 1088 q 254 1158 236 1139 q 299 1176 272 1176 q 344 1158 325 1176 q 363 1114 363 1139 z "},"İ":{"ha":372,"x_min":117,"x_max":256,"o":"m 256 0 l 117 0 l 117 972 l 256 972 l 256 0 m 249 1122 q 230 1078 249 1096 q 186 1060 211 1060 q 142 1078 160 1060 q 124 1122 124 1096 q 142 1166 124 1147 q 186 1185 160 1185 q 230 1166 211 1185 q 249 1122 249 1147 z "},"Ì":{"ha":372,"x_min":-96,"x_max":256,"o":"m 256 0 l 117 0 l 117 972 l 256 972 l 256 0 m -43 1260 l 192 1122 l 158 1049 l -96 1140 l -43 1260 z "},"Ī":{"ha":372,"x_min":22,"x_max":350,"o":"m 256 0 l 117 0 l 117 972 l 256 972 l 256 0 m 22 1058 l 22 1172 l 350 1172 l 350 1058 l 22 1058 z "},"Į":{"ha":372,"x_min":75,"x_max":339,"o":"m 256 0 l 229 0 q 192 -44 206 -19 q 179 -89 179 -68 q 232 -122 179 -122 q 288 -113 256 -122 q 339 -97 321 -104 l 339 -187 q 289 -201 321 -193 q 201 -210 257 -210 q 113 -190 150 -210 q 75 -118 75 -169 q 88 -58 75 -93 q 132 0 101 -24 l 117 0 l 117 972 l 256 972 l 256 0 z "},"Ĩ":{"ha":372,"x_min":-7,"x_max":379,"o":"m 256 0 l 117 0 l 117 972 l 256 972 l 256 0 m 379 1214 q 343 1084 379 1121 q 256 1047 307 1047 q 199 1062 221 1047 q 162 1091 178 1076 q 124 1106 146 1106 q 95 1094 104 1106 q 83 1068 86 1082 q 79 1047 81 1054 l -7 1047 q 31 1172 -7 1131 q 117 1214 68 1214 q 169 1199 149 1214 q 208 1170 190 1185 q 249 1156 226 1156 q 277 1167 268 1156 q 289 1193 286 1179 q 292 1214 292 1207 l 379 1214 z "},"J":{"ha":1214,"x_min":51,"x_max":1114,"o":"m 1114 486 q 1076 297 1114 385 q 972 142 1039 208 q 817 38 906 75 q 628 0 729 0 l 51 0 l 51 139 l 628 139 q 803 186 724 139 q 928 312 882 233 q 975 486 975 390 l 975 833 l 51 833 l 51 972 l 1114 972 l 1114 486 z "},"Ĵ":{"ha":1214,"x_min":51,"x_max":1114,"o":"m 1114 486 q 1076 297 1114 385 q 972 142 1039 208 q 817 38 906 75 q 628 0 729 0 l 51 0 l 51 139 l 628 139 q 803 186 724 139 q 928 312 882 233 q 975 486 975 390 l 975 833 l 51 833 l 51 972 l 1114 972 l 1114 486 m 769 1049 l 600 1138 l 431 1049 l 385 1118 l 600 1261 l 829 1118 l 769 1049 z "},"K":{"ha":1240,"x_min":117,"x_max":1247,"o":"m 1247 0 l 1060 0 l 564 500 l 256 278 l 256 0 l 117 0 l 117 972 l 256 972 l 256 431 l 1018 972 l 1221 972 l 669 576 l 1247 0 z "},"Ķ":{"ha":1240,"x_min":117,"x_max":1247,"o":"m 1247 0 l 1060 0 l 564 500 l 256 278 l 256 0 l 117 0 l 117 972 l 256 972 l 256 431 l 1018 972 l 1221 972 l 669 576 l 1247 0 m 703 -129 q 690 -197 701 -165 q 667 -249 678 -229 q 656 -268 656 -268 l 585 -267 q 593 -251 585 -267 q 607 -208 601 -235 q 556 -181 576 -204 q 536 -125 536 -157 q 560 -67 536 -92 q 619 -42 585 -42 q 678 -67 654 -42 q 703 -129 703 -93 z "},"L":{"ha":1060,"x_min":117,"x_max":1046,"o":"m 1046 0 l 117 0 l 117 972 l 256 972 l 256 139 l 1046 139 l 1046 0 z "},"Ĺ":{"ha":1060,"x_min":117,"x_max":1046,"o":"m 1046 0 l 117 0 l 117 972 l 256 972 l 256 139 l 1046 139 l 1046 0 m 479 1142 l 225 1050 l 192 1124 l 426 1261 l 479 1142 z "},"Ľ":{"ha":1060,"x_min":117,"x_max":1046,"o":"m 1046 0 l 117 0 l 117 972 l 256 972 l 256 139 l 1046 139 l 1046 0 m 613 942 q 599 874 611 906 q 576 822 588 842 q 565 803 565 803 l 494 804 q 503 820 494 804 q 517 863 511 836 q 466 890 486 867 q 446 946 446 914 q 470 1004 446 979 q 529 1029 494 1029 q 588 1003 564 1029 q 613 942 613 978 z "},"Ļ":{"ha":1060,"x_min":117,"x_max":1046,"o":"m 1046 0 l 117 0 l 117 972 l 256 972 l 256 139 l 1046 139 l 1046 0 m 613 -157 q 599 -225 611 -193 q 576 -276 588 -257 q 565 -296 565 -296 l 494 -294 q 503 -278 494 -294 q 517 -236 511 -262 q 466 -208 486 -232 q 446 -153 446 -185 q 470 -94 446 -119 q 529 -69 494 -69 q 588 -95 564 -69 q 613 -157 613 -121 z "},"Ŀ":{"ha":1319,"x_min":117,"x_max":1232,"o":"m 1046 0 l 117 0 l 117 972 l 256 972 l 256 139 l 1046 139 l 1046 0 m 1232 494 q 1201 421 1232 451 q 1128 390 1171 390 q 1054 421 1085 390 q 1024 494 1024 451 q 1054 568 1024 538 q 1128 599 1085 599 q 1201 568 1171 599 q 1232 494 1232 538 z "},"Ł":{"ha":1128,"x_min":4,"x_max":1114,"o":"m 768 525 l 324 389 l 324 139 l 1114 139 l 1114 0 l 185 0 l 185 346 l 4 292 l 4 444 l 185 499 l 185 972 l 324 972 l 324 542 l 768 678 l 768 525 z "},"M":{"ha":1494,"x_min":117,"x_max":1378,"o":"m 817 0 l 678 0 l 678 486 q 631 661 678 582 q 506 787 585 740 q 331 833 426 833 l 256 833 l 256 0 l 117 0 l 117 972 l 331 972 q 573 907 463 972 q 747 736 683 842 q 922 907 811 842 q 1164 972 1032 972 l 1378 972 l 1378 0 l 1239 0 l 1239 833 l 1164 833 q 990 787 1068 833 q 864 661 911 740 q 817 486 817 582 l 817 0 z "},"N":{"ha":1308,"x_min":117,"x_max":1192,"o":"m 256 0 l 117 0 l 117 972 l 186 972 q 406 933 288 972 q 644 824 525 894 q 870 655 764 753 q 1053 438 976 557 l 1053 972 l 1192 972 l 1192 0 l 1053 0 q 1001 245 1053 128 q 863 462 949 363 q 672 638 776 561 q 458 765 567 715 q 256 828 350 814 l 256 0 z "},"Ń":{"ha":1308,"x_min":117,"x_max":1192,"o":"m 256 0 l 117 0 l 117 972 l 186 972 q 406 933 288 972 q 644 824 525 894 q 870 655 764 753 q 1053 438 976 557 l 1053 972 l 1192 972 l 1192 0 l 1053 0 q 1001 245 1053 128 q 863 462 949 363 q 672 638 776 561 q 458 765 567 715 q 256 828 350 814 l 256 0 m 978 1140 l 724 1049 l 690 1122 l 925 1260 l 978 1140 z "},"Ň":{"ha":1308,"x_min":117,"x_max":1192,"o":"m 256 0 l 117 0 l 117 972 l 186 972 q 406 933 288 972 q 644 824 525 894 q 870 655 764 753 q 1053 438 976 557 l 1053 972 l 1192 972 l 1192 0 l 1053 0 q 1001 245 1053 128 q 863 462 949 363 q 672 638 776 561 q 458 765 567 715 q 256 828 350 814 l 256 0 m 485 1247 l 654 1160 l 824 1247 l 869 1179 l 654 1035 l 439 1179 l 485 1247 z "},"Ņ":{"ha":1308,"x_min":117,"x_max":1192,"o":"m 256 0 l 117 0 l 117 972 l 186 972 q 406 933 288 972 q 644 824 525 894 q 870 655 764 753 q 1053 438 976 557 l 1053 972 l 1192 972 l 1192 0 l 1053 0 q 1001 245 1053 128 q 863 462 949 363 q 672 638 776 561 q 458 765 567 715 q 256 828 350 814 l 256 0 m 738 -143 q 724 -211 736 -179 q 701 -262 713 -243 q 690 -282 690 -282 l 619 -281 q 628 -265 619 -281 q 642 -222 636 -249 q 591 -194 611 -218 q 571 -139 571 -171 q 595 -81 571 -106 q 654 -56 619 -56 q 713 -81 689 -56 q 738 -143 738 -107 z "},"Ñ":{"ha":1308,"x_min":117,"x_max":1192,"o":"m 256 0 l 117 0 l 117 972 l 186 972 q 406 933 288 972 q 644 824 525 894 q 870 655 764 753 q 1053 438 976 557 l 1053 972 l 1192 972 l 1192 0 l 1053 0 q 1001 245 1053 128 q 863 462 949 363 q 672 638 776 561 q 458 765 567 715 q 256 828 350 814 l 256 0 m 847 1214 q 811 1084 847 1121 q 724 1047 775 1047 q 667 1062 689 1047 q 630 1091 646 1076 q 592 1106 614 1106 q 563 1094 572 1106 q 551 1068 554 1082 q 547 1047 549 1054 l 461 1047 q 499 1172 461 1131 q 585 1214 536 1214 q 638 1199 617 1214 q 676 1170 658 1185 q 717 1156 694 1156 q 745 1167 736 1156 q 757 1193 754 1179 q 760 1214 760 1207 l 847 1214 z "},"Ŋ":{"ha":1308,"x_min":117,"x_max":1192,"o":"m 1192 211 q 1154 22 1192 110 q 1050 -133 1117 -67 q 895 -237 983 -200 q 706 -275 807 -275 l 129 -275 l 129 -136 l 706 -136 q 854 -103 786 -136 q 972 -12 922 -69 q 1040 119 1021 46 q 957 331 1017 231 q 813 517 897 432 q 633 667 729 601 q 439 773 536 732 q 256 828 342 814 l 256 0 l 117 0 l 117 972 l 186 972 q 406 933 288 972 q 644 824 525 894 q 870 655 764 753 q 1053 438 976 557 l 1053 972 l 1192 972 l 1192 211 z "},"O":{"ha":1339,"x_min":61,"x_max":1278,"o":"m 1278 486 q 1246 297 1278 385 q 1155 142 1214 208 q 1014 38 1096 75 q 832 0 932 0 l 508 0 q 325 38 407 0 q 184 142 243 75 q 93 297 125 208 q 61 486 61 385 q 93 674 61 586 q 184 830 125 763 q 325 935 243 897 q 508 972 407 972 l 832 972 q 1014 935 932 972 q 1155 830 1096 897 q 1246 674 1214 763 q 1278 486 1278 586 m 1139 486 q 1102 661 1139 582 q 997 787 1065 740 q 832 833 928 833 l 508 833 q 344 787 413 833 q 238 661 275 740 q 200 486 200 582 q 238 312 200 390 q 344 186 275 233 q 508 139 413 139 l 832 139 q 997 186 928 139 q 1102 312 1065 233 q 1139 486 1139 390 z "},"Ó":{"ha":1339,"x_min":61,"x_max":1278,"o":"m 1278 486 q 1246 297 1278 385 q 1155 142 1214 208 q 1014 38 1096 75 q 832 0 932 0 l 508 0 q 325 38 407 0 q 184 142 243 75 q 93 297 125 208 q 61 486 61 385 q 93 674 61 586 q 184 830 125 763 q 325 935 243 897 q 508 972 407 972 l 832 972 q 1014 935 932 972 q 1155 830 1096 897 q 1246 674 1214 763 q 1278 486 1278 586 m 1139 486 q 1102 661 1139 582 q 997 787 1065 740 q 832 833 928 833 l 508 833 q 344 787 413 833 q 238 661 275 740 q 200 486 200 582 q 238 312 200 390 q 344 186 275 233 q 508 139 413 139 l 832 139 q 997 186 928 139 q 1102 312 1065 233 q 1139 486 1139 390 m 951 1140 l 697 1049 l 664 1122 l 899 1260 l 951 1140 z "},"Ŏ":{"ha":1339,"x_min":61,"x_max":1278,"o":"m 1278 486 q 1246 297 1278 385 q 1155 142 1214 208 q 1014 38 1096 75 q 832 0 932 0 l 508 0 q 325 38 407 0 q 184 142 243 75 q 93 297 125 208 q 61 486 61 385 q 93 674 61 586 q 184 830 125 763 q 325 935 243 897 q 508 972 407 972 l 832 972 q 1014 935 932 972 q 1155 830 1096 897 q 1246 674 1214 763 q 1278 486 1278 586 m 1139 486 q 1102 661 1139 582 q 997 787 1065 740 q 832 833 928 833 l 508 833 q 344 787 413 833 q 238 661 275 740 q 200 486 200 582 q 238 312 200 390 q 344 186 275 233 q 508 139 413 139 l 832 139 q 997 186 928 139 q 1102 312 1065 233 q 1139 486 1139 390 m 868 1239 q 859 1190 867 1221 q 831 1128 851 1160 q 771 1074 810 1096 q 669 1053 732 1053 q 568 1074 607 1053 q 508 1128 529 1096 q 480 1190 488 1160 q 471 1239 472 1221 l 563 1239 q 577 1210 567 1228 q 609 1180 588 1193 q 669 1167 631 1167 q 731 1180 708 1167 q 763 1210 753 1193 q 776 1239 774 1228 l 868 1239 z "},"Ô":{"ha":1339,"x_min":61,"x_max":1278,"o":"m 1278 486 q 1246 297 1278 385 q 1155 142 1214 208 q 1014 38 1096 75 q 832 0 932 0 l 508 0 q 325 38 407 0 q 184 142 243 75 q 93 297 125 208 q 61 486 61 385 q 93 674 61 586 q 184 830 125 763 q 325 935 243 897 q 508 972 407 972 l 832 972 q 1014 935 932 972 q 1155 830 1096 897 q 1246 674 1214 763 q 1278 486 1278 586 m 1139 486 q 1102 661 1139 582 q 997 787 1065 740 q 832 833 928 833 l 508 833 q 344 787 413 833 q 238 661 275 740 q 200 486 200 582 q 238 312 200 390 q 344 186 275 233 q 508 139 413 139 l 832 139 q 997 186 928 139 q 1102 312 1065 233 q 1139 486 1139 390 m 832 1049 l 663 1138 l 493 1049 l 447 1118 l 663 1261 l 892 1118 l 832 1049 z "},"Ö":{"ha":1339,"x_min":61,"x_max":1278,"o":"m 1278 486 q 1246 297 1278 385 q 1155 142 1214 208 q 1014 38 1096 75 q 832 0 932 0 l 508 0 q 325 38 407 0 q 184 142 243 75 q 93 297 125 208 q 61 486 61 385 q 93 674 61 586 q 184 830 125 763 q 325 935 243 897 q 508 972 407 972 l 832 972 q 1014 935 932 972 q 1155 830 1096 897 q 1246 674 1214 763 q 1278 486 1278 586 m 1139 486 q 1102 661 1139 582 q 997 787 1065 740 q 832 833 928 833 l 508 833 q 344 787 413 833 q 238 661 275 740 q 200 486 200 582 q 238 312 200 390 q 344 186 275 233 q 508 139 413 139 l 832 139 q 997 186 928 139 q 1102 312 1065 233 q 1139 486 1139 390 m 619 1114 q 601 1069 619 1088 q 557 1051 582 1051 q 512 1069 531 1051 q 493 1114 493 1088 q 512 1158 493 1139 q 557 1176 531 1176 q 601 1158 582 1176 q 619 1114 619 1139 m 846 1114 q 827 1069 846 1088 q 782 1051 808 1051 q 738 1069 756 1051 q 719 1114 719 1088 q 738 1158 719 1139 q 782 1176 756 1176 q 827 1158 808 1176 q 846 1114 846 1139 z "},"Ò":{"ha":1339,"x_min":61,"x_max":1278,"o":"m 1278 486 q 1246 297 1278 385 q 1155 142 1214 208 q 1014 38 1096 75 q 832 0 932 0 l 508 0 q 325 38 407 0 q 184 142 243 75 q 93 297 125 208 q 61 486 61 385 q 93 674 61 586 q 184 830 125 763 q 325 935 243 897 q 508 972 407 972 l 832 972 q 1014 935 932 972 q 1155 830 1096 897 q 1246 674 1214 763 q 1278 486 1278 586 m 1139 486 q 1102 661 1139 582 q 997 787 1065 740 q 832 833 928 833 l 508 833 q 344 787 413 833 q 238 661 275 740 q 200 486 200 582 q 238 312 200 390 q 344 186 275 233 q 508 139 413 139 l 832 139 q 997 186 928 139 q 1102 312 1065 233 q 1139 486 1139 390 m 439 1260 l 674 1122 l 640 1049 l 386 1140 l 439 1260 z "},"Ő":{"ha":1339,"x_min":61,"x_max":1278,"o":"m 1278 486 q 1246 297 1278 385 q 1155 142 1214 208 q 1014 38 1096 75 q 832 0 932 0 l 508 0 q 325 38 407 0 q 184 142 243 75 q 93 297 125 208 q 61 486 61 385 q 93 674 61 586 q 184 830 125 763 q 325 935 243 897 q 508 972 407 972 l 832 972 q 1014 935 932 972 q 1155 830 1096 897 q 1246 674 1214 763 q 1278 486 1278 586 m 1139 486 q 1102 661 1139 582 q 997 787 1065 740 q 832 833 928 833 l 508 833 q 344 787 413 833 q 238 661 275 740 q 200 486 200 582 q 238 312 200 390 q 344 186 275 233 q 508 139 413 139 l 832 139 q 997 186 928 139 q 1102 312 1065 233 q 1139 486 1139 390 m 810 1135 l 625 1043 l 597 1089 l 754 1229 l 810 1135 m 1019 1135 l 835 1043 l 810 1089 l 964 1229 l 1019 1135 z "},"Ō":{"ha":1339,"x_min":61,"x_max":1278,"o":"m 1278 486 q 1246 297 1278 385 q 1155 142 1214 208 q 1014 38 1096 75 q 832 0 932 0 l 508 0 q 325 38 407 0 q 184 142 243 75 q 93 297 125 208 q 61 486 61 385 q 93 674 61 586 q 184 830 125 763 q 325 935 243 897 q 508 972 407 972 l 832 972 q 1014 935 932 972 q 1155 830 1096 897 q 1246 674 1214 763 q 1278 486 1278 586 m 1139 486 q 1102 661 1139 582 q 997 787 1065 740 q 832 833 928 833 l 508 833 q 344 787 413 833 q 238 661 275 740 q 200 486 200 582 q 238 312 200 390 q 344 186 275 233 q 508 139 413 139 l 832 139 q 997 186 928 139 q 1102 312 1065 233 q 1139 486 1139 390 m 506 1058 l 506 1172 l 833 1172 l 833 1058 l 506 1058 z "},"Ø":{"ha":1339,"x_min":61,"x_max":1278,"o":"m 1144 972 l 1082 894 q 1226 722 1174 831 q 1278 486 1278 614 q 1246 297 1278 385 q 1155 142 1214 208 q 1014 38 1096 75 q 832 0 932 0 l 508 0 q 376 18 436 0 l 363 0 l 197 0 l 258 75 q 113 248 165 140 q 61 486 61 356 q 93 674 61 586 q 184 830 125 763 q 325 935 243 897 q 508 972 407 972 l 832 972 q 901 967 868 972 q 964 953 933 963 l 979 972 l 1144 972 m 508 833 q 344 787 413 833 q 238 661 275 740 q 200 486 200 582 q 238 309 200 389 q 346 185 276 229 l 865 831 q 849 833 857 832 q 832 833 840 833 l 508 833 m 1139 486 q 1101 662 1139 582 q 994 786 1064 742 l 475 140 q 492 140 483 140 q 508 139 500 139 l 832 139 q 997 186 928 139 q 1102 312 1065 233 q 1139 486 1139 390 z "},"Ǿ":{"ha":1339,"x_min":61,"x_max":1278,"o":"m 1144 972 l 1082 894 q 1226 722 1174 831 q 1278 486 1278 614 q 1246 297 1278 385 q 1155 142 1214 208 q 1014 38 1096 75 q 832 0 932 0 l 508 0 q 376 18 436 0 l 363 0 l 197 0 l 258 75 q 113 248 165 140 q 61 486 61 356 q 93 674 61 586 q 184 830 125 763 q 325 935 243 897 q 508 972 407 972 l 832 972 q 901 967 868 972 q 964 953 933 963 l 979 972 l 1144 972 m 508 833 q 344 787 413 833 q 238 661 275 740 q 200 486 200 582 q 238 309 200 389 q 346 185 276 229 l 865 831 q 849 833 857 832 q 832 833 840 833 l 508 833 m 1139 486 q 1101 662 1139 582 q 994 786 1064 742 l 475 140 q 492 140 483 140 q 508 139 500 139 l 832 139 q 997 186 928 139 q 1102 312 1065 233 q 1139 486 1139 390 m 965 1140 l 711 1049 l 678 1122 l 913 1260 l 965 1140 z "},"Õ":{"ha":1339,"x_min":61,"x_max":1278,"o":"m 1278 486 q 1246 297 1278 385 q 1155 142 1214 208 q 1014 38 1096 75 q 832 0 932 0 l 508 0 q 325 38 407 0 q 184 142 243 75 q 93 297 125 208 q 61 486 61 385 q 93 674 61 586 q 184 830 125 763 q 325 935 243 897 q 508 972 407 972 l 832 972 q 1014 935 932 972 q 1155 830 1096 897 q 1246 674 1214 763 q 1278 486 1278 586 m 1139 486 q 1102 661 1139 582 q 997 787 1065 740 q 832 833 928 833 l 508 833 q 344 787 413 833 q 238 661 275 740 q 200 486 200 582 q 238 312 200 390 q 344 186 275 233 q 508 139 413 139 l 832 139 q 997 186 928 139 q 1102 312 1065 233 q 1139 486 1139 390 m 863 1214 q 826 1084 863 1121 q 739 1047 790 1047 q 683 1062 704 1047 q 645 1091 661 1076 q 607 1106 629 1106 q 578 1094 588 1106 q 567 1068 569 1082 q 563 1047 564 1054 l 476 1047 q 514 1172 476 1131 q 600 1214 551 1214 q 653 1199 632 1214 q 692 1170 674 1185 q 732 1156 710 1156 q 760 1167 751 1156 q 772 1193 769 1179 q 775 1214 775 1207 l 863 1214 z "},"Œ":{"ha":2199,"x_min":61,"x_max":2143,"o":"m 2143 0 l 1138 0 l 1138 122 q 1003 33 1081 65 q 832 0 925 0 l 508 0 q 325 38 407 0 q 184 142 243 75 q 93 297 125 208 q 61 486 61 385 q 93 674 61 586 q 184 830 125 763 q 325 935 243 897 q 508 972 407 972 l 832 972 q 1003 939 925 972 q 1138 849 1081 906 l 1138 972 l 2143 972 l 2143 833 l 1276 833 l 1276 139 l 2143 139 l 2143 0 m 508 833 q 344 787 413 833 q 238 661 275 740 q 200 486 200 582 q 238 312 200 390 q 344 186 275 233 q 508 139 413 139 l 832 139 q 991 182 922 139 q 1099 303 1060 225 q 1138 486 1138 381 q 1099 666 1138 588 q 991 789 1060 744 q 832 833 922 833 l 508 833 m 2025 417 l 1346 417 l 1346 556 l 2025 556 l 2025 417 z "},"P":{"ha":1274,"x_min":117,"x_max":1239,"o":"m 1239 625 q 1192 451 1239 529 q 1067 325 1146 372 q 892 278 988 278 l 333 278 l 333 415 l 892 415 q 997 444 950 415 q 1072 520 1044 472 q 1100 625 1100 568 q 1072 731 1100 683 q 997 806 1044 778 q 892 833 950 833 l 256 833 l 256 0 l 117 0 l 117 972 l 892 972 q 1067 926 988 972 q 1192 800 1146 879 q 1239 625 1239 721 z "},"Þ":{"ha":1274,"x_min":117,"x_max":1239,"o":"m 1239 486 q 1192 312 1239 390 q 1067 186 1146 233 q 892 139 988 139 l 333 139 l 333 276 l 892 276 q 997 305 950 276 q 1072 381 1044 333 q 1100 486 1100 429 q 1072 592 1100 544 q 997 667 1044 639 q 892 694 950 694 l 256 694 l 256 0 l 117 0 l 117 974 l 256 974 l 256 833 l 892 833 q 1067 787 988 833 q 1192 661 1146 740 q 1239 486 1239 582 z "},"Q":{"ha":1339,"x_min":61,"x_max":1278,"o":"m 992 -117 l 867 1 q 849 0 858 0 q 832 0 840 0 l 508 0 q 325 38 407 0 q 184 142 243 75 q 93 297 125 208 q 61 486 61 385 q 93 674 61 586 q 184 830 125 763 q 325 935 243 897 q 508 972 407 972 l 832 972 q 1014 935 932 972 q 1155 830 1096 897 q 1246 674 1214 763 q 1278 486 1278 586 q 1246 298 1278 386 q 1156 143 1214 210 q 1017 39 1097 76 l 1179 -117 l 992 -117 m 1139 486 q 1102 661 1139 582 q 997 787 1065 740 q 832 833 928 833 l 508 833 q 344 787 413 833 q 238 661 275 740 q 200 486 200 582 q 238 312 200 390 q 344 186 275 233 q 508 139 413 139 l 722 139 l 590 265 l 785 265 l 906 147 q 1031 214 979 165 q 1111 333 1083 263 q 1139 486 1139 404 z "},"R":{"ha":1300,"x_min":117,"x_max":1239,"o":"m 1239 0 l 1051 0 l 760 278 l 333 278 l 333 415 l 892 415 q 997 444 950 415 q 1072 520 1044 472 q 1100 625 1100 568 q 1072 731 1100 683 q 997 806 1044 778 q 892 833 950 833 l 256 833 l 256 0 l 117 0 l 117 972 l 892 972 q 1067 926 988 972 q 1192 800 1146 879 q 1239 625 1239 721 q 1201 465 1239 539 q 1097 344 1163 392 q 947 282 1031 296 l 1239 0 z "},"Ŕ":{"ha":1300,"x_min":117,"x_max":1239,"o":"m 1239 0 l 1051 0 l 760 278 l 333 278 l 333 415 l 892 415 q 997 444 950 415 q 1072 520 1044 472 q 1100 625 1100 568 q 1072 731 1100 683 q 997 806 1044 778 q 892 833 950 833 l 256 833 l 256 0 l 117 0 l 117 972 l 892 972 q 1067 926 988 972 q 1192 800 1146 879 q 1239 625 1239 721 q 1201 465 1239 539 q 1097 344 1163 392 q 947 282 1031 296 l 1239 0 m 932 1140 l 678 1049 l 644 1122 l 879 1260 l 932 1140 z "},"Ř":{"ha":1300,"x_min":117,"x_max":1239,"o":"m 1239 0 l 1051 0 l 760 278 l 333 278 l 333 415 l 892 415 q 997 444 950 415 q 1072 520 1044 472 q 1100 625 1100 568 q 1072 731 1100 683 q 997 806 1044 778 q 892 833 950 833 l 256 833 l 256 0 l 117 0 l 117 972 l 892 972 q 1067 926 988 972 q 1192 800 1146 879 q 1239 625 1239 721 q 1201 465 1239 539 q 1097 344 1163 392 q 947 282 1031 296 l 1239 0 m 481 1247 l 650 1160 l 819 1247 l 865 1179 l 650 1035 l 435 1179 l 481 1247 z "},"Ŗ":{"ha":1300,"x_min":117,"x_max":1239,"o":"m 1239 0 l 1051 0 l 760 278 l 333 278 l 333 415 l 892 415 q 997 444 950 415 q 1072 520 1044 472 q 1100 625 1100 568 q 1072 731 1100 683 q 997 806 1044 778 q 892 833 950 833 l 256 833 l 256 0 l 117 0 l 117 972 l 892 972 q 1067 926 988 972 q 1192 800 1146 879 q 1239 625 1239 721 q 1201 465 1239 539 q 1097 344 1163 392 q 947 282 1031 296 l 1239 0 m 733 -143 q 720 -211 732 -179 q 697 -262 708 -243 q 686 -282 686 -282 l 615 -281 q 624 -265 615 -281 q 638 -222 632 -249 q 587 -194 607 -218 q 567 -139 567 -171 q 591 -81 567 -106 q 650 -56 615 -56 q 709 -81 685 -56 q 733 -143 733 -107 z "},"S":{"ha":1236,"x_min":68,"x_max":1190,"o":"m 1190 278 q 1153 138 1190 201 q 1053 38 1115 75 q 913 0 990 0 l 68 0 l 68 139 l 913 139 q 1011 180 971 139 q 1051 278 1051 221 q 1011 376 1051 335 q 913 417 971 417 l 346 417 q 206 454 269 417 q 106 555 143 492 q 68 694 68 618 q 106 834 68 771 q 206 935 143 897 q 346 972 269 972 l 1121 972 l 1121 833 l 346 833 q 248 792 289 833 q 207 694 207 751 q 248 597 207 638 q 346 556 289 556 l 913 556 q 1053 518 990 556 q 1153 417 1115 481 q 1190 278 1190 354 z "},"Ś":{"ha":1236,"x_min":68,"x_max":1190,"o":"m 1190 278 q 1153 138 1190 201 q 1053 38 1115 75 q 913 0 990 0 l 68 0 l 68 139 l 913 139 q 1011 180 971 139 q 1051 278 1051 221 q 1011 376 1051 335 q 913 417 971 417 l 346 417 q 206 454 269 417 q 106 555 143 492 q 68 694 68 618 q 106 834 68 771 q 206 935 143 897 q 346 972 269 972 l 1121 972 l 1121 833 l 346 833 q 248 792 289 833 q 207 694 207 751 q 248 597 207 638 q 346 556 289 556 l 913 556 q 1053 518 990 556 q 1153 417 1115 481 q 1190 278 1190 354 m 914 1140 l 660 1049 l 626 1122 l 861 1260 l 914 1140 z "},"Š":{"ha":1236,"x_min":68,"x_max":1190,"o":"m 1190 278 q 1153 138 1190 201 q 1053 38 1115 75 q 913 0 990 0 l 68 0 l 68 139 l 913 139 q 1011 180 971 139 q 1051 278 1051 221 q 1011 376 1051 335 q 913 417 971 417 l 346 417 q 206 454 269 417 q 106 555 143 492 q 68 694 68 618 q 106 834 68 771 q 206 935 143 897 q 346 972 269 972 l 1121 972 l 1121 833 l 346 833 q 248 792 289 833 q 207 694 207 751 q 248 597 207 638 q 346 556 289 556 l 913 556 q 1053 518 990 556 q 1153 417 1115 481 q 1190 278 1190 354 m 460 1247 l 629 1160 l 799 1247 l 844 1179 l 629 1035 l 414 1179 l 460 1247 z "},"Ş":{"ha":1236,"x_min":68,"x_max":1190,"o":"m 1190 278 q 1153 138 1190 201 q 1053 38 1115 75 q 913 0 990 0 l 660 0 l 647 -33 q 691 -40 667 -33 q 733 -66 715 -47 q 750 -122 750 -85 q 726 -181 750 -160 q 667 -212 703 -203 q 596 -221 632 -221 q 526 -216 546 -221 q 486 -210 506 -211 l 486 -124 q 532 -140 506 -133 q 585 -146 558 -146 q 631 -140 613 -146 q 649 -121 649 -133 q 628 -101 649 -106 q 592 -96 607 -96 q 569 -97 581 -96 q 546 -101 557 -99 l 583 0 l 68 0 l 68 139 l 913 139 q 1011 180 971 139 q 1051 278 1051 221 q 1011 376 1051 335 q 913 417 971 417 l 346 417 q 206 454 269 417 q 106 555 143 492 q 68 694 68 618 q 106 834 68 771 q 206 935 143 897 q 346 972 269 972 l 1121 972 l 1121 833 l 346 833 q 248 792 289 833 q 207 694 207 751 q 248 597 207 638 q 346 556 289 556 l 913 556 q 1053 518 990 556 q 1153 417 1115 481 q 1190 278 1190 354 z "},"Ŝ":{"ha":1236,"x_min":68,"x_max":1190,"o":"m 1190 278 q 1153 138 1190 201 q 1053 38 1115 75 q 913 0 990 0 l 68 0 l 68 139 l 913 139 q 1011 180 971 139 q 1051 278 1051 221 q 1011 376 1051 335 q 913 417 971 417 l 346 417 q 206 454 269 417 q 106 555 143 492 q 68 694 68 618 q 106 834 68 771 q 206 935 143 897 q 346 972 269 972 l 1121 972 l 1121 833 l 346 833 q 248 792 289 833 q 207 694 207 751 q 248 597 207 638 q 346 556 289 556 l 913 556 q 1053 518 990 556 q 1153 417 1115 481 q 1190 278 1190 354 m 781 1049 l 611 1138 l 442 1049 l 396 1118 l 611 1261 l 840 1118 l 781 1049 z "},"Ș":{"ha":1236,"x_min":68,"x_max":1190,"o":"m 1190 278 q 1153 138 1190 201 q 1053 38 1115 75 q 913 0 990 0 l 68 0 l 68 139 l 913 139 q 1011 180 971 139 q 1051 278 1051 221 q 1011 376 1051 335 q 913 417 971 417 l 346 417 q 206 454 269 417 q 106 555 143 492 q 68 694 68 618 q 106 834 68 771 q 206 935 143 897 q 346 972 269 972 l 1121 972 l 1121 833 l 346 833 q 248 792 289 833 q 207 694 207 751 q 248 597 207 638 q 346 556 289 556 l 913 556 q 1053 518 990 556 q 1153 417 1115 481 q 1190 278 1190 354 m 701 -171 q 688 -239 700 -207 q 665 -290 676 -271 q 654 -310 654 -310 l 583 -308 q 592 -292 583 -308 q 606 -250 600 -276 q 555 -222 575 -246 q 535 -167 535 -199 q 559 -108 535 -133 q 618 -83 583 -83 q 677 -109 653 -83 q 701 -171 701 -135 z "},"ẞ":{"ha":1278,"x_min":117,"x_max":1211,"o":"m 947 833 l 256 833 l 256 0 l 117 0 l 117 972 l 947 972 q 1053 947 1006 972 q 1128 874 1100 921 q 1156 764 1156 828 q 1128 653 1156 700 q 1053 582 1100 607 q 947 557 1006 557 l 683 557 q 634 537 654 557 q 614 489 614 517 q 634 440 614 460 q 683 421 654 421 l 968 421 q 1091 400 1036 421 q 1178 335 1146 379 q 1211 217 1211 290 q 1178 97 1211 144 q 1091 24 1146 49 q 968 0 1036 0 l 378 0 l 378 139 l 968 139 q 1042 157 1011 139 q 1072 215 1072 175 q 1042 272 1072 258 q 968 286 1011 286 l 683 286 q 536 335 597 286 q 475 485 475 383 q 536 643 475 588 q 683 699 597 699 l 947 699 q 997 714 976 699 q 1017 764 1017 729 q 997 817 1017 800 q 947 833 976 833 z "},"T":{"ha":1150,"x_min":14,"x_max":1136,"o":"m 644 0 l 506 0 l 506 833 l 14 833 l 14 972 l 1136 972 l 1136 833 l 644 833 l 644 0 z "},"Ŧ":{"ha":1150,"x_min":14,"x_max":1136,"o":"m 853 417 l 644 417 l 644 0 l 506 0 l 506 417 l 297 417 l 297 556 l 506 556 l 506 833 l 14 833 l 14 972 l 1136 972 l 1136 833 l 644 833 l 644 556 l 853 556 l 853 417 z "},"Ť":{"ha":1150,"x_min":14,"x_max":1136,"o":"m 644 0 l 506 0 l 506 833 l 14 833 l 14 972 l 1136 972 l 1136 833 l 644 833 l 644 0 m 406 1247 l 575 1160 l 744 1247 l 790 1179 l 575 1035 l 360 1179 l 406 1247 z "},"Ţ":{"ha":1150,"x_min":14,"x_max":1136,"o":"m 644 0 l 506 0 l 506 833 l 14 833 l 14 972 l 1136 972 l 1136 833 l 644 833 l 644 0 m 658 -171 q 645 -239 657 -207 q 622 -290 633 -271 q 611 -310 611 -310 l 540 -308 q 549 -292 540 -308 q 563 -250 557 -276 q 512 -222 532 -246 q 492 -167 492 -199 q 516 -108 492 -133 q 575 -83 540 -83 q 634 -109 610 -83 q 658 -171 658 -135 z "},"U":{"ha":1242,"x_min":85,"x_max":1158,"o":"m 1158 972 l 1157 486 q 1119 297 1157 385 q 1015 142 1082 208 q 860 38 949 75 q 672 0 772 0 l 569 0 q 381 38 469 0 q 226 142 293 75 q 122 298 160 210 q 85 486 85 386 l 85 972 l 224 972 l 224 486 q 270 312 224 390 q 396 186 317 233 q 569 139 475 139 l 672 139 q 847 186 768 139 q 972 312 925 233 q 1018 486 1018 390 l 1018 972 l 1158 972 z "},"Ú":{"ha":1242,"x_min":85,"x_max":1158,"o":"m 1158 972 l 1157 486 q 1119 297 1157 385 q 1015 142 1082 208 q 860 38 949 75 q 672 0 772 0 l 569 0 q 381 38 469 0 q 226 142 293 75 q 122 298 160 210 q 85 486 85 386 l 85 972 l 224 972 l 224 486 q 270 312 224 390 q 396 186 317 233 q 569 139 475 139 l 672 139 q 847 186 768 139 q 972 312 925 233 q 1018 486 1018 390 l 1018 972 l 1158 972 m 904 1140 l 650 1049 l 617 1122 l 851 1260 l 904 1140 z "},"Ŭ":{"ha":1242,"x_min":85,"x_max":1158,"o":"m 1158 972 l 1157 486 q 1119 297 1157 385 q 1015 142 1082 208 q 860 38 949 75 q 672 0 772 0 l 569 0 q 381 38 469 0 q 226 142 293 75 q 122 298 160 210 q 85 486 85 386 l 85 972 l 224 972 l 224 486 q 270 312 224 390 q 396 186 317 233 q 569 139 475 139 l 672 139 q 847 186 768 139 q 972 312 925 233 q 1018 486 1018 390 l 1018 972 l 1158 972 m 819 1239 q 810 1190 818 1221 q 782 1128 803 1160 q 722 1074 761 1096 q 621 1053 683 1053 q 519 1074 558 1053 q 460 1128 481 1096 q 431 1190 439 1160 q 422 1239 424 1221 l 514 1239 q 528 1210 518 1228 q 560 1180 539 1193 q 621 1167 582 1167 q 682 1180 660 1167 q 715 1210 704 1193 q 728 1239 725 1228 l 819 1239 z "},"Û":{"ha":1242,"x_min":85,"x_max":1158,"o":"m 1158 972 l 1157 486 q 1119 297 1157 385 q 1015 142 1082 208 q 860 38 949 75 q 672 0 772 0 l 569 0 q 381 38 469 0 q 226 142 293 75 q 122 298 160 210 q 85 486 85 386 l 85 972 l 224 972 l 224 486 q 270 312 224 390 q 396 186 317 233 q 569 139 475 139 l 672 139 q 847 186 768 139 q 972 312 925 233 q 1018 486 1018 390 l 1018 972 l 1158 972 m 783 1049 l 614 1138 l 444 1049 l 399 1118 l 614 1261 l 843 1118 l 783 1049 z "},"Ü":{"ha":1242,"x_min":85,"x_max":1158,"o":"m 1158 972 l 1157 486 q 1119 297 1157 385 q 1015 142 1082 208 q 860 38 949 75 q 672 0 772 0 l 569 0 q 381 38 469 0 q 226 142 293 75 q 122 298 160 210 q 85 486 85 386 l 85 972 l 224 972 l 224 486 q 270 312 224 390 q 396 186 317 233 q 569 139 475 139 l 672 139 q 847 186 768 139 q 972 312 925 233 q 1018 486 1018 390 l 1018 972 l 1158 972 m 571 1114 q 552 1069 571 1088 q 508 1051 533 1051 q 463 1069 482 1051 q 444 1114 444 1088 q 463 1158 444 1139 q 508 1176 482 1176 q 552 1158 533 1176 q 571 1114 571 1139 m 797 1114 q 778 1069 797 1088 q 733 1051 760 1051 q 689 1069 707 1051 q 671 1114 671 1088 q 689 1158 671 1139 q 733 1176 707 1176 q 778 1158 760 1176 q 797 1114 797 1139 z "},"Ù":{"ha":1242,"x_min":85,"x_max":1158,"o":"m 1158 972 l 1157 486 q 1119 297 1157 385 q 1015 142 1082 208 q 860 38 949 75 q 672 0 772 0 l 569 0 q 381 38 469 0 q 226 142 293 75 q 122 298 160 210 q 85 486 85 386 l 85 972 l 224 972 l 224 486 q 270 312 224 390 q 396 186 317 233 q 569 139 475 139 l 672 139 q 847 186 768 139 q 972 312 925 233 q 1018 486 1018 390 l 1018 972 l 1158 972 m 392 1260 l 626 1122 l 593 1049 l 339 1140 l 392 1260 z "},"Ű":{"ha":1242,"x_min":85,"x_max":1158,"o":"m 1158 972 l 1157 486 q 1119 297 1157 385 q 1015 142 1082 208 q 860 38 949 75 q 672 0 772 0 l 569 0 q 381 38 469 0 q 226 142 293 75 q 122 298 160 210 q 85 486 85 386 l 85 972 l 224 972 l 224 486 q 270 312 224 390 q 396 186 317 233 q 569 139 475 139 l 672 139 q 847 186 768 139 q 972 312 925 233 q 1018 486 1018 390 l 1018 972 l 1158 972 m 719 1135 l 535 1043 l 507 1089 l 664 1229 l 719 1135 m 929 1135 l 744 1043 l 719 1089 l 874 1229 l 929 1135 z "},"Ū":{"ha":1242,"x_min":85,"x_max":1158,"o":"m 1158 972 l 1157 486 q 1119 297 1157 385 q 1015 142 1082 208 q 860 38 949 75 q 672 0 772 0 l 569 0 q 381 38 469 0 q 226 142 293 75 q 122 298 160 210 q 85 486 85 386 l 85 972 l 224 972 l 224 486 q 270 312 224 390 q 396 186 317 233 q 569 139 475 139 l 672 139 q 847 186 768 139 q 972 312 925 233 q 1018 486 1018 390 l 1018 972 l 1158 972 m 457 1058 l 457 1172 l 785 1172 l 785 1058 l 457 1058 z "},"Ų":{"ha":1242,"x_min":85,"x_max":1158,"o":"m 1157 486 q 1121 299 1157 386 q 1019 147 1085 213 q 869 42 954 81 q 686 0 785 3 q 635 -89 635 -43 q 688 -122 635 -122 q 744 -113 711 -122 q 794 -97 776 -104 l 794 -187 q 744 -201 776 -193 q 657 -210 713 -210 q 568 -190 606 -210 q 531 -118 531 -169 q 544 -58 531 -93 q 588 0 557 -24 l 569 0 q 381 38 469 0 q 226 142 293 75 q 122 298 160 210 q 85 486 85 386 l 85 972 l 224 972 l 224 486 q 270 312 224 390 q 396 186 317 233 q 569 139 475 139 l 672 139 q 847 186 768 139 q 972 312 925 233 q 1018 486 1018 390 l 1018 972 l 1158 972 l 1157 486 z "},"Ů":{"ha":1242,"x_min":85,"x_max":1158,"o":"m 1158 972 l 1157 486 q 1119 297 1157 385 q 1015 142 1082 208 q 860 38 949 75 q 672 0 772 0 l 569 0 q 381 38 469 0 q 226 142 293 75 q 122 298 160 210 q 85 486 85 386 l 85 972 l 224 972 l 224 486 q 270 312 224 390 q 396 186 317 233 q 569 139 475 139 l 672 139 q 847 186 768 139 q 972 312 925 233 q 1018 486 1018 390 l 1018 972 l 1158 972 m 478 1140 q 518 1224 478 1189 q 621 1258 558 1258 q 727 1224 690 1258 q 764 1140 764 1189 q 725 1058 764 1093 q 621 1022 686 1022 q 516 1058 554 1022 q 478 1140 478 1093 m 574 1140 q 585 1107 574 1121 q 621 1093 597 1093 q 656 1107 644 1093 q 668 1140 668 1121 q 656 1174 668 1160 q 621 1188 644 1188 q 585 1174 597 1188 q 574 1140 574 1160 z "},"Ũ":{"ha":1242,"x_min":85,"x_max":1158,"o":"m 1158 972 l 1157 486 q 1119 297 1157 385 q 1015 142 1082 208 q 860 38 949 75 q 672 0 772 0 l 569 0 q 381 38 469 0 q 226 142 293 75 q 122 298 160 210 q 85 486 85 386 l 85 972 l 224 972 l 224 486 q 270 312 224 390 q 396 186 317 233 q 569 139 475 139 l 672 139 q 847 186 768 139 q 972 312 925 233 q 1018 486 1018 390 l 1018 972 l 1158 972 m 814 1214 q 778 1084 814 1121 q 690 1047 742 1047 q 634 1062 656 1047 q 597 1091 613 1076 q 558 1106 581 1106 q 530 1094 539 1106 q 518 1068 521 1082 q 514 1047 515 1054 l 428 1047 q 465 1172 428 1131 q 551 1214 503 1214 q 604 1199 583 1214 q 643 1170 625 1185 q 683 1156 661 1156 q 712 1167 703 1156 q 724 1193 721 1179 q 726 1214 726 1207 l 814 1214 z "},"V":{"ha":1222,"x_min":21,"x_max":1201,"o":"m 1201 972 l 690 0 l 532 0 l 21 972 l 179 972 l 611 150 l 1043 972 l 1201 972 z "},"W":{"ha":1476,"x_min":107,"x_max":1369,"o":"m 1369 350 q 1322 174 1369 254 q 1196 47 1275 94 q 1019 0 1117 0 q 860 38 933 0 q 738 139 786 75 q 617 38 690 75 q 457 0 543 0 q 281 47 361 0 q 154 174 201 94 q 107 350 107 254 l 107 972 l 246 972 l 246 350 q 274 244 246 292 q 351 167 303 196 q 457 139 399 139 q 561 166 514 139 q 637 239 608 193 q 668 340 665 285 l 668 972 l 808 972 l 808 350 q 837 244 808 292 q 913 167 865 196 q 1019 139 961 139 q 1126 167 1078 139 q 1202 244 1174 196 q 1231 350 1231 292 l 1231 972 l 1369 972 l 1369 350 z "},"Ẃ":{"ha":1476,"x_min":107,"x_max":1369,"o":"m 1369 350 q 1322 174 1369 254 q 1196 47 1275 94 q 1019 0 1117 0 q 860 38 933 0 q 738 139 786 75 q 617 38 690 75 q 457 0 543 0 q 281 47 361 0 q 154 174 201 94 q 107 350 107 254 l 107 972 l 246 972 l 246 350 q 274 244 246 292 q 351 167 303 196 q 457 139 399 139 q 561 166 514 139 q 637 239 608 193 q 668 340 665 285 l 668 972 l 808 972 l 808 350 q 837 244 808 292 q 913 167 865 196 q 1019 139 961 139 q 1126 167 1078 139 q 1202 244 1174 196 q 1231 350 1231 292 l 1231 972 l 1369 972 l 1369 350 m 1021 1140 l 767 1049 l 733 1122 l 968 1260 l 1021 1140 z "},"Ŵ":{"ha":1476,"x_min":107,"x_max":1369,"o":"m 1369 350 q 1322 174 1369 254 q 1196 47 1275 94 q 1019 0 1117 0 q 860 38 933 0 q 738 139 786 75 q 617 38 690 75 q 457 0 543 0 q 281 47 361 0 q 154 174 201 94 q 107 350 107 254 l 107 972 l 246 972 l 246 350 q 274 244 246 292 q 351 167 303 196 q 457 139 399 139 q 561 166 514 139 q 637 239 608 193 q 668 340 665 285 l 668 972 l 808 972 l 808 350 q 837 244 808 292 q 913 167 865 196 q 1019 139 961 139 q 1126 167 1078 139 q 1202 244 1174 196 q 1231 350 1231 292 l 1231 972 l 1369 972 l 1369 350 m 900 1049 l 731 1138 l 561 1049 l 515 1118 l 731 1261 l 960 1118 l 900 1049 z "},"Ẅ":{"ha":1476,"x_min":107,"x_max":1369,"o":"m 1369 350 q 1322 174 1369 254 q 1196 47 1275 94 q 1019 0 1117 0 q 860 38 933 0 q 738 139 786 75 q 617 38 690 75 q 457 0 543 0 q 281 47 361 0 q 154 174 201 94 q 107 350 107 254 l 107 972 l 246 972 l 246 350 q 274 244 246 292 q 351 167 303 196 q 457 139 399 139 q 561 166 514 139 q 637 239 608 193 q 668 340 665 285 l 668 972 l 808 972 l 808 350 q 837 244 808 292 q 913 167 865 196 q 1019 139 961 139 q 1126 167 1078 139 q 1202 244 1174 196 q 1231 350 1231 292 l 1231 972 l 1369 972 l 1369 350 m 688 1114 q 669 1069 688 1088 q 625 1051 650 1051 q 580 1069 599 1051 q 561 1114 561 1088 q 580 1158 561 1139 q 625 1176 599 1176 q 669 1158 650 1176 q 688 1114 688 1139 m 914 1114 q 895 1069 914 1088 q 850 1051 876 1051 q 806 1069 824 1051 q 788 1114 788 1088 q 806 1158 788 1139 q 850 1176 824 1176 q 895 1158 876 1176 q 914 1114 914 1139 z "},"Ẁ":{"ha":1476,"x_min":107,"x_max":1369,"o":"m 1369 350 q 1322 174 1369 254 q 1196 47 1275 94 q 1019 0 1117 0 q 860 38 933 0 q 738 139 786 75 q 617 38 690 75 q 457 0 543 0 q 281 47 361 0 q 154 174 201 94 q 107 350 107 254 l 107 972 l 246 972 l 246 350 q 274 244 246 292 q 351 167 303 196 q 457 139 399 139 q 561 166 514 139 q 637 239 608 193 q 668 340 665 285 l 668 972 l 808 972 l 808 350 q 837 244 808 292 q 913 167 865 196 q 1019 139 961 139 q 1126 167 1078 139 q 1202 244 1174 196 q 1231 350 1231 292 l 1231 972 l 1369 972 l 1369 350 m 508 1260 l 743 1122 l 710 1049 l 456 1140 l 508 1260 z "},"X":{"ha":1138,"x_min":7,"x_max":1131,"o":"m 1131 0 l 949 0 l 568 392 l 189 0 l 7 0 l 478 486 l 7 972 l 189 972 l 1131 0 m 1131 972 l 707 536 l 617 629 l 949 972 l 1131 972 z "},"Y":{"ha":1311,"x_min":79,"x_max":1203,"o":"m 1203 278 q 1156 138 1203 201 q 1031 38 1110 75 q 856 0 951 0 l 79 0 l 79 139 l 856 139 q 960 158 913 139 q 1035 208 1007 176 q 1064 278 1064 240 l 1064 347 l 426 347 q 252 394 331 347 q 126 520 174 442 q 79 694 79 599 l 79 972 l 218 972 l 218 694 q 246 590 218 638 q 322 514 274 542 q 426 486 369 486 l 1064 486 l 1064 972 l 1203 972 l 1203 278 z "},"Ý":{"ha":1311,"x_min":79,"x_max":1203,"o":"m 1203 278 q 1156 138 1203 201 q 1031 38 1110 75 q 856 0 951 0 l 79 0 l 79 139 l 856 139 q 960 158 913 139 q 1035 208 1007 176 q 1064 278 1064 240 l 1064 347 l 426 347 q 252 394 331 347 q 126 520 174 442 q 79 694 79 599 l 79 972 l 218 972 l 218 694 q 246 590 218 638 q 322 514 274 542 q 426 486 369 486 l 1064 486 l 1064 972 l 1203 972 l 1203 278 m 924 1140 l 669 1049 l 636 1122 l 871 1260 l 924 1140 z "},"Ŷ":{"ha":1311,"x_min":79,"x_max":1203,"o":"m 1203 278 q 1156 138 1203 201 q 1031 38 1110 75 q 856 0 951 0 l 79 0 l 79 139 l 856 139 q 960 158 913 139 q 1035 208 1007 176 q 1064 278 1064 240 l 1064 347 l 426 347 q 252 394 331 347 q 126 520 174 442 q 79 694 79 599 l 79 972 l 218 972 l 218 694 q 246 590 218 638 q 322 514 274 542 q 426 486 369 486 l 1064 486 l 1064 972 l 1203 972 l 1203 278 m 818 1049 l 649 1138 l 479 1049 l 433 1118 l 649 1261 l 878 1118 l 818 1049 z "},"Ÿ":{"ha":1311,"x_min":79,"x_max":1203,"o":"m 1203 278 q 1156 138 1203 201 q 1031 38 1110 75 q 856 0 951 0 l 79 0 l 79 139 l 856 139 q 960 158 913 139 q 1035 208 1007 176 q 1064 278 1064 240 l 1064 347 l 426 347 q 252 394 331 347 q 126 520 174 442 q 79 694 79 599 l 79 972 l 218 972 l 218 694 q 246 590 218 638 q 322 514 274 542 q 426 486 369 486 l 1064 486 l 1064 972 l 1203 972 l 1203 278 m 590 1114 q 572 1069 590 1088 q 528 1051 553 1051 q 483 1069 501 1051 q 464 1114 464 1088 q 483 1158 464 1139 q 528 1176 501 1176 q 572 1158 553 1176 q 590 1114 590 1139 m 817 1114 q 798 1069 817 1088 q 753 1051 779 1051 q 708 1069 726 1051 q 690 1114 690 1088 q 708 1158 690 1139 q 753 1176 726 1176 q 798 1158 779 1176 q 817 1114 817 1139 z "},"Ỳ":{"ha":1311,"x_min":79,"x_max":1203,"o":"m 1203 278 q 1156 138 1203 201 q 1031 38 1110 75 q 856 0 951 0 l 79 0 l 79 139 l 856 139 q 960 158 913 139 q 1035 208 1007 176 q 1064 278 1064 240 l 1064 347 l 426 347 q 252 394 331 347 q 126 520 174 442 q 79 694 79 599 l 79 972 l 218 972 l 218 694 q 246 590 218 638 q 322 514 274 542 q 426 486 369 486 l 1064 486 l 1064 972 l 1203 972 l 1203 278 m 425 1260 l 660 1122 l 626 1049 l 372 1140 l 425 1260 z "},"Z":{"ha":1239,"x_min":58,"x_max":1182,"o":"m 1182 833 l 289 139 l 1182 139 l 1182 0 l 58 0 l 58 139 l 957 833 l 58 833 l 58 972 l 1182 972 l 1182 833 z "},"Ź":{"ha":1239,"x_min":58,"x_max":1182,"o":"m 1182 833 l 289 139 l 1182 139 l 1182 0 l 58 0 l 58 139 l 957 833 l 58 833 l 58 972 l 1182 972 l 1182 833 m 901 1140 l 647 1049 l 614 1122 l 849 1260 l 901 1140 z "},"Ž":{"ha":1239,"x_min":58,"x_max":1182,"o":"m 1182 833 l 289 139 l 1182 139 l 1182 0 l 58 0 l 58 139 l 957 833 l 58 833 l 58 972 l 1182 972 l 1182 833 m 450 1247 l 619 1160 l 789 1247 l 835 1179 l 619 1035 l 404 1179 l 450 1247 z "},"Ż":{"ha":1239,"x_min":58,"x_max":1182,"o":"m 1182 833 l 289 139 l 1182 139 l 1182 0 l 58 0 l 58 139 l 957 833 l 58 833 l 58 972 l 1182 972 l 1182 833 m 682 1128 q 663 1083 682 1101 q 619 1065 644 1065 q 575 1083 593 1065 q 557 1128 557 1101 q 575 1172 557 1153 q 619 1190 593 1190 q 663 1172 644 1190 q 682 1128 682 1153 z "},"a":{"ha":1064,"x_min":32,"x_max":969,"o":"m 969 0 l 275 0 q 153 33 208 0 q 65 120 97 65 q 32 243 32 175 q 65 366 32 311 q 153 453 97 421 q 275 486 208 486 l 761 486 l 761 347 l 275 347 q 201 317 232 347 q 171 243 171 286 q 201 169 171 200 q 275 139 232 139 l 831 139 l 831 521 q 800 594 831 564 q 726 625 769 625 l 171 625 l 171 764 l 726 764 q 849 731 794 764 q 937 644 904 699 q 969 521 969 589 l 969 0 z "},"á":{"ha":1064,"x_min":32,"x_max":969,"o":"m 969 0 l 275 0 q 153 33 208 0 q 65 120 97 65 q 32 243 32 175 q 65 366 32 311 q 153 453 97 421 q 275 486 208 486 l 761 486 l 761 347 l 275 347 q 201 317 232 347 q 171 243 171 286 q 201 169 171 200 q 275 139 232 139 l 831 139 l 831 521 q 800 594 831 564 q 726 625 769 625 l 171 625 l 171 764 l 726 764 q 849 731 794 764 q 937 644 904 699 q 969 521 969 589 l 969 0 m 783 946 l 529 854 l 496 928 l 731 1065 l 783 946 z "},"ă":{"ha":1064,"x_min":32,"x_max":969,"o":"m 969 0 l 275 0 q 153 33 208 0 q 65 120 97 65 q 32 243 32 175 q 65 366 32 311 q 153 453 97 421 q 275 486 208 486 l 761 486 l 761 347 l 275 347 q 201 317 232 347 q 171 243 171 286 q 201 169 171 200 q 275 139 232 139 l 831 139 l 831 521 q 800 594 831 564 q 726 625 769 625 l 171 625 l 171 764 l 726 764 q 849 731 794 764 q 937 644 904 699 q 969 521 969 589 l 969 0 m 731 1044 q 722 996 729 1026 q 693 933 714 965 q 633 880 672 901 q 532 858 594 858 q 431 880 469 858 q 371 933 392 901 q 342 996 350 965 q 333 1044 335 1026 l 425 1044 q 440 1016 429 1033 q 472 985 450 999 q 532 972 493 972 q 593 985 571 972 q 626 1016 615 999 q 639 1044 636 1033 l 731 1044 z "},"â":{"ha":1064,"x_min":32,"x_max":969,"o":"m 969 0 l 275 0 q 153 33 208 0 q 65 120 97 65 q 32 243 32 175 q 65 366 32 311 q 153 453 97 421 q 275 486 208 486 l 761 486 l 761 347 l 275 347 q 201 317 232 347 q 171 243 171 286 q 201 169 171 200 q 275 139 232 139 l 831 139 l 831 521 q 800 594 831 564 q 726 625 769 625 l 171 625 l 171 764 l 726 764 q 849 731 794 764 q 937 644 904 699 q 969 521 969 589 l 969 0 m 663 854 l 493 943 l 324 854 l 278 924 l 493 1067 l 722 924 l 663 854 z "},"ä":{"ha":1064,"x_min":32,"x_max":969,"o":"m 969 0 l 275 0 q 153 33 208 0 q 65 120 97 65 q 32 243 32 175 q 65 366 32 311 q 153 453 97 421 q 275 486 208 486 l 761 486 l 761 347 l 275 347 q 201 317 232 347 q 171 243 171 286 q 201 169 171 200 q 275 139 232 139 l 831 139 l 831 521 q 800 594 831 564 q 726 625 769 625 l 171 625 l 171 764 l 726 764 q 849 731 794 764 q 937 644 904 699 q 969 521 969 589 l 969 0 m 450 919 q 431 875 450 893 q 388 857 413 857 q 342 875 361 857 q 324 919 324 893 q 342 963 324 944 q 388 982 361 982 q 431 963 413 982 q 450 919 450 944 m 676 919 q 658 875 676 893 q 613 857 639 857 q 568 875 586 857 q 550 919 550 893 q 568 963 550 944 q 613 982 586 982 q 658 963 639 982 q 676 919 676 944 z "},"à":{"ha":1064,"x_min":32,"x_max":969,"o":"m 969 0 l 275 0 q 153 33 208 0 q 65 120 97 65 q 32 243 32 175 q 65 366 32 311 q 153 453 97 421 q 275 486 208 486 l 761 486 l 761 347 l 275 347 q 201 317 232 347 q 171 243 171 286 q 201 169 171 200 q 275 139 232 139 l 831 139 l 831 521 q 800 594 831 564 q 726 625 769 625 l 171 625 l 171 764 l 726 764 q 849 731 794 764 q 937 644 904 699 q 969 521 969 589 l 969 0 m 271 1065 l 506 928 l 472 854 l 218 946 l 271 1065 z "},"ā":{"ha":1064,"x_min":32,"x_max":969,"o":"m 969 0 l 275 0 q 153 33 208 0 q 65 120 97 65 q 32 243 32 175 q 65 366 32 311 q 153 453 97 421 q 275 486 208 486 l 761 486 l 761 347 l 275 347 q 201 317 232 347 q 171 243 171 286 q 201 169 171 200 q 275 139 232 139 l 831 139 l 831 521 q 800 594 831 564 q 726 625 769 625 l 171 625 l 171 764 l 726 764 q 849 731 794 764 q 937 644 904 699 q 969 521 969 589 l 969 0 m 368 864 l 368 978 l 696 978 l 696 864 l 368 864 z "},"ą":{"ha":1064,"x_min":32,"x_max":1039,"o":"m 969 0 l 929 0 q 892 -44 906 -19 q 879 -89 879 -68 q 932 -122 879 -122 q 988 -113 956 -122 q 1039 -97 1021 -104 l 1039 -187 q 989 -201 1021 -193 q 901 -210 957 -210 q 813 -190 850 -210 q 775 -118 775 -169 q 788 -58 775 -93 q 832 0 801 -24 l 275 0 q 153 33 208 0 q 65 120 97 65 q 32 243 32 175 q 65 366 32 311 q 153 453 97 421 q 275 486 208 486 l 761 486 l 761 347 l 275 347 q 201 317 232 347 q 171 243 171 286 q 201 169 171 200 q 275 139 232 139 l 831 139 l 831 521 q 800 594 831 564 q 726 625 769 625 l 171 625 l 171 764 l 726 764 q 849 731 794 764 q 937 644 904 699 q 969 521 969 589 l 969 0 z "},"å":{"ha":1064,"x_min":32,"x_max":969,"o":"m 969 0 l 275 0 q 153 33 208 0 q 65 120 97 65 q 32 243 32 175 q 65 366 32 311 q 153 453 97 421 q 275 486 208 486 l 761 486 l 761 347 l 275 347 q 201 317 232 347 q 171 243 171 286 q 201 169 171 200 q 275 139 232 139 l 831 139 l 831 521 q 800 594 831 564 q 726 625 769 625 l 171 625 l 171 764 l 726 764 q 849 731 794 764 q 937 644 904 699 q 969 521 969 589 l 969 0 m 357 946 q 397 1029 357 994 q 500 1064 438 1064 q 606 1029 569 1064 q 643 946 643 994 q 604 863 643 899 q 500 828 565 828 q 395 863 433 828 q 357 946 357 899 m 453 946 q 465 913 453 926 q 500 899 476 899 q 535 913 524 899 q 547 946 547 926 q 535 979 547 965 q 500 993 524 993 q 465 979 476 993 q 453 946 453 965 z "},"ã":{"ha":1064,"x_min":32,"x_max":969,"o":"m 969 0 l 275 0 q 153 33 208 0 q 65 120 97 65 q 32 243 32 175 q 65 366 32 311 q 153 453 97 421 q 275 486 208 486 l 761 486 l 761 347 l 275 347 q 201 317 232 347 q 171 243 171 286 q 201 169 171 200 q 275 139 232 139 l 831 139 l 831 521 q 800 594 831 564 q 726 625 769 625 l 171 625 l 171 764 l 726 764 q 849 731 794 764 q 937 644 904 699 q 969 521 969 589 l 969 0 m 693 1019 q 657 890 693 926 q 569 853 621 853 q 513 867 535 853 q 476 897 492 882 q 438 911 460 911 q 409 899 418 911 q 397 874 400 888 q 393 853 394 860 l 307 853 q 344 978 307 936 q 431 1019 382 1019 q 483 1005 463 1019 q 522 976 504 990 q 563 961 540 961 q 591 973 582 961 q 603 999 600 985 q 606 1019 606 1013 l 693 1019 z "},"æ":{"ha":1804,"x_min":32,"x_max":1768,"o":"m 1768 521 q 1735 399 1768 454 q 1648 310 1703 343 q 1525 278 1593 278 l 993 278 q 1080 178 1022 217 q 1210 139 1138 139 l 1664 139 l 1664 0 l 1210 0 q 1080 24 1142 0 q 969 88 1018 47 l 969 0 l 275 0 q 153 33 208 0 q 65 120 97 65 q 32 243 32 175 q 65 366 32 311 q 153 453 97 421 q 275 486 208 486 l 761 486 l 761 347 l 275 347 q 201 317 232 347 q 171 243 171 286 q 201 169 171 200 q 275 139 232 139 l 831 139 l 831 521 q 800 594 831 564 q 726 625 769 625 l 171 625 l 171 764 l 726 764 q 849 731 793 764 q 936 644 904 699 q 1058 731 988 699 q 1210 764 1129 763 l 1525 764 q 1648 731 1593 764 q 1735 644 1703 699 q 1768 521 1768 589 m 1525 417 q 1599 447 1568 417 q 1629 521 1629 478 q 1599 594 1629 564 q 1525 625 1568 625 l 1210 625 q 1098 597 1149 625 q 1014 522 1047 569 q 972 417 981 475 l 1525 417 z "},"ǽ":{"ha":1804,"x_min":32,"x_max":1768,"o":"m 1768 521 q 1735 399 1768 454 q 1648 310 1703 343 q 1525 278 1593 278 l 993 278 q 1080 178 1022 217 q 1210 139 1138 139 l 1664 139 l 1664 0 l 1210 0 q 1080 24 1142 0 q 969 88 1018 47 l 969 0 l 275 0 q 153 33 208 0 q 65 120 97 65 q 32 243 32 175 q 65 366 32 311 q 153 453 97 421 q 275 486 208 486 l 761 486 l 761 347 l 275 347 q 201 317 232 347 q 171 243 171 286 q 201 169 171 200 q 275 139 232 139 l 831 139 l 831 521 q 800 594 831 564 q 726 625 769 625 l 171 625 l 171 764 l 726 764 q 849 731 793 764 q 936 644 904 699 q 1058 731 988 699 q 1210 764 1129 763 l 1525 764 q 1648 731 1593 764 q 1735 644 1703 699 q 1768 521 1768 589 m 1525 417 q 1599 447 1568 417 q 1629 521 1629 478 q 1599 594 1629 564 q 1525 625 1568 625 l 1210 625 q 1098 597 1149 625 q 1014 522 1047 569 q 972 417 981 475 l 1525 417 m 1185 946 l 931 854 l 897 928 l 1132 1065 l 1185 946 z "},"b":{"ha":1051,"x_min":100,"x_max":1000,"o":"m 1000 382 q 971 234 1000 303 q 890 113 942 165 q 769 30 838 60 q 621 0 700 0 l 100 0 l 100 1042 l 239 1042 l 239 139 l 621 139 q 742 172 688 139 q 829 260 797 206 q 861 382 861 315 q 829 503 861 449 q 742 592 797 558 q 621 625 688 625 l 308 625 l 308 764 l 621 764 q 769 734 700 764 q 890 651 838 704 q 971 530 942 599 q 1000 382 1000 461 z "},"c":{"ha":938,"x_min":51,"x_max":885,"o":"m 885 0 l 431 0 q 283 30 351 0 q 162 113 214 60 q 81 234 110 165 q 51 382 51 303 q 81 530 51 461 q 162 651 110 599 q 283 734 214 704 q 431 764 351 764 l 885 764 l 885 625 l 431 625 q 310 592 364 625 q 223 503 256 558 q 190 382 190 449 q 223 260 190 315 q 310 172 256 206 q 431 139 364 139 l 885 139 l 885 0 z "},"ć":{"ha":938,"x_min":51,"x_max":885,"o":"m 885 0 l 431 0 q 283 30 351 0 q 162 113 214 60 q 81 234 110 165 q 51 382 51 303 q 81 530 51 461 q 162 651 110 599 q 283 734 214 704 q 431 764 351 764 l 885 764 l 885 625 l 431 625 q 310 592 364 625 q 223 503 256 558 q 190 382 190 449 q 223 260 190 315 q 310 172 256 206 q 431 139 364 139 l 885 139 l 885 0 m 821 946 l 567 854 l 533 928 l 768 1065 l 821 946 z "},"č":{"ha":938,"x_min":51,"x_max":885,"o":"m 885 0 l 431 0 q 283 30 351 0 q 162 113 214 60 q 81 234 110 165 q 51 382 51 303 q 81 530 51 461 q 162 651 110 599 q 283 734 214 704 q 431 764 351 764 l 885 764 l 885 625 l 431 625 q 310 592 364 625 q 223 503 256 558 q 190 382 190 449 q 223 260 190 315 q 310 172 256 206 q 431 139 364 139 l 885 139 l 885 0 m 382 1053 l 551 965 l 721 1053 l 767 985 l 551 840 l 336 985 l 382 1053 z "},"ç":{"ha":938,"x_min":51,"x_max":885,"o":"m 885 0 l 579 0 l 567 -33 q 610 -40 586 -33 q 652 -66 635 -47 q 669 -122 669 -85 q 646 -181 669 -160 q 587 -212 622 -203 q 515 -221 551 -221 q 445 -216 465 -221 q 406 -210 425 -211 l 406 -124 q 451 -140 425 -133 q 504 -146 478 -146 q 550 -140 532 -146 q 568 -121 568 -133 q 547 -101 568 -106 q 511 -96 526 -96 q 488 -97 500 -96 q 465 -101 476 -99 l 503 0 l 431 0 q 283 30 351 0 q 162 113 214 60 q 81 234 110 165 q 51 382 51 303 q 81 530 51 461 q 162 651 110 599 q 283 734 214 704 q 431 764 351 764 l 885 764 l 885 625 l 431 625 q 310 592 364 625 q 223 503 256 558 q 190 382 190 449 q 223 260 190 315 q 310 172 256 206 q 431 139 364 139 l 885 139 l 885 0 z "},"ĉ":{"ha":938,"x_min":51,"x_max":885,"o":"m 885 0 l 431 0 q 283 30 351 0 q 162 113 214 60 q 81 234 110 165 q 51 382 51 303 q 81 530 51 461 q 162 651 110 599 q 283 734 214 704 q 431 764 351 764 l 885 764 l 885 625 l 431 625 q 310 592 364 625 q 223 503 256 558 q 190 382 190 449 q 223 260 190 315 q 310 172 256 206 q 431 139 364 139 l 885 139 l 885 0 m 672 854 l 503 943 l 333 854 l 288 924 l 503 1067 l 732 924 l 672 854 z "},"ċ":{"ha":938,"x_min":51,"x_max":885,"o":"m 885 0 l 431 0 q 283 30 351 0 q 162 113 214 60 q 81 234 110 165 q 51 382 51 303 q 81 530 51 461 q 162 651 110 599 q 283 734 214 704 q 431 764 351 764 l 885 764 l 885 625 l 431 625 q 310 592 364 625 q 223 503 256 558 q 190 382 190 449 q 223 260 190 315 q 310 172 256 206 q 431 139 364 139 l 885 139 l 885 0 m 614 919 q 595 875 614 893 q 551 857 576 857 q 507 875 525 857 q 489 919 489 893 q 507 963 489 944 q 551 982 525 982 q 595 963 576 982 q 614 919 614 944 z "},"d":{"ha":1051,"x_min":51,"x_max":951,"o":"m 951 0 l 813 0 l 813 625 l 431 625 q 310 592 364 625 q 223 504 256 560 q 190 382 190 449 q 223 260 190 315 q 310 173 256 206 q 431 139 364 140 l 743 139 l 743 0 l 431 0 q 283 30 351 0 q 162 113 214 60 q 81 234 110 165 q 51 382 51 303 q 81 530 51 461 q 162 651 110 599 q 283 734 214 704 q 431 764 351 764 l 813 764 l 813 1042 l 951 1042 l 951 0 z "},"ð":{"ha":1146,"x_min":51,"x_max":1093,"o":"m 1092 876 l 885 876 l 1032 589 q 1077 492 1061 544 q 1093 382 1093 439 q 1064 234 1093 303 q 983 113 1035 165 q 862 30 931 60 q 714 0 793 0 l 431 0 q 283 30 351 0 q 162 113 214 60 q 81 234 110 165 q 51 382 51 303 q 81 530 51 461 q 162 651 110 599 q 283 734 214 704 q 431 764 351 764 l 714 764 q 793 756 754 764 l 729 876 l 328 876 l 328 1015 l 657 1015 l 607 1111 l 765 1111 l 814 1015 l 1092 1015 l 1092 876 m 954 382 q 922 503 954 449 q 835 592 890 558 q 714 625 781 625 l 431 625 q 310 592 364 625 q 223 503 256 558 q 190 382 190 449 q 223 260 190 315 q 310 172 256 206 q 431 139 364 139 l 714 139 q 835 172 781 139 q 922 260 890 206 q 954 382 954 315 z "},"ď":{"ha":1331,"x_min":51,"x_max":1238,"o":"m 951 0 l 813 0 l 813 625 l 431 625 q 310 592 364 625 q 223 504 256 560 q 190 382 190 449 q 223 260 190 315 q 310 173 256 206 q 431 139 364 140 l 743 139 l 743 0 l 431 0 q 283 30 351 0 q 162 113 214 60 q 81 234 110 165 q 51 382 51 303 q 81 530 51 461 q 162 651 110 599 q 283 734 214 704 q 431 764 351 764 l 813 764 l 813 1042 l 951 1042 l 951 0 m 1238 1039 q 1224 971 1236 1003 q 1201 919 1213 939 q 1190 900 1190 900 l 1119 901 q 1128 917 1119 901 q 1142 960 1136 933 q 1091 988 1111 964 q 1071 1043 1071 1011 q 1095 1101 1071 1076 q 1154 1126 1119 1126 q 1213 1101 1189 1126 q 1238 1039 1238 1075 z "},"đ":{"ha":1051,"x_min":51,"x_max":1050,"o":"m 951 974 l 1050 974 l 1050 835 l 951 835 l 951 0 l 813 0 l 813 625 l 431 625 q 310 592 364 625 q 223 504 256 560 q 190 382 190 449 q 223 260 190 315 q 310 173 256 206 q 431 139 364 140 l 743 139 l 743 0 l 431 0 q 283 30 351 0 q 162 113 214 60 q 81 234 110 165 q 51 382 51 303 q 81 530 51 461 q 162 651 110 599 q 283 734 214 704 q 431 764 351 764 l 813 764 l 813 835 l 508 835 l 508 974 l 813 974 l 813 1042 l 951 1042 l 951 974 z "},"e":{"ha":1025,"x_min":51,"x_max":989,"o":"m 989 521 q 956 399 989 454 q 869 310 924 343 q 746 278 814 278 l 214 278 q 301 178 243 217 q 431 139 358 139 l 885 139 l 885 0 l 431 0 q 283 30 351 0 q 162 113 214 60 q 81 234 110 165 q 51 382 51 303 q 81 530 51 461 q 162 651 110 599 q 283 734 214 704 q 431 764 351 764 l 746 764 q 869 731 814 764 q 956 644 924 699 q 989 521 989 589 m 746 417 q 819 447 789 417 q 850 521 850 478 q 819 594 850 564 q 746 625 789 625 l 431 625 q 319 597 369 625 q 235 522 268 569 q 193 417 201 475 l 746 417 z "},"é":{"ha":1025,"x_min":51,"x_max":989,"o":"m 989 521 q 956 399 989 454 q 869 310 924 343 q 746 278 814 278 l 214 278 q 301 178 243 217 q 431 139 358 139 l 885 139 l 885 0 l 431 0 q 283 30 351 0 q 162 113 214 60 q 81 234 110 165 q 51 382 51 303 q 81 530 51 461 q 162 651 110 599 q 283 734 214 704 q 431 764 351 764 l 746 764 q 869 731 814 764 q 956 644 924 699 q 989 521 989 589 m 746 417 q 819 447 789 417 q 850 521 850 478 q 819 594 850 564 q 746 625 789 625 l 431 625 q 319 597 369 625 q 235 522 268 569 q 193 417 201 475 l 746 417 m 803 946 l 549 854 l 515 928 l 750 1065 l 803 946 z "},"ĕ":{"ha":1025,"x_min":51,"x_max":989,"o":"m 989 521 q 956 399 989 454 q 869 310 924 343 q 746 278 814 278 l 214 278 q 301 178 243 217 q 431 139 358 139 l 885 139 l 885 0 l 431 0 q 283 30 351 0 q 162 113 214 60 q 81 234 110 165 q 51 382 51 303 q 81 530 51 461 q 162 651 110 599 q 283 734 214 704 q 431 764 351 764 l 746 764 q 869 731 814 764 q 956 644 924 699 q 989 521 989 589 m 746 417 q 819 447 789 417 q 850 521 850 478 q 819 594 850 564 q 746 625 789 625 l 431 625 q 319 597 369 625 q 235 522 268 569 q 193 417 201 475 l 746 417 m 753 1044 q 744 996 751 1026 q 715 933 736 965 q 656 880 694 901 q 554 858 617 858 q 453 880 492 858 q 393 933 414 901 q 365 996 372 965 q 356 1044 357 1026 l 447 1044 q 462 1016 451 1033 q 494 985 472 999 q 554 972 515 972 q 615 985 593 972 q 648 1016 638 999 q 661 1044 658 1033 l 753 1044 z "},"ě":{"ha":1025,"x_min":51,"x_max":989,"o":"m 989 521 q 956 399 989 454 q 869 310 924 343 q 746 278 814 278 l 214 278 q 301 178 243 217 q 431 139 358 139 l 885 139 l 885 0 l 431 0 q 283 30 351 0 q 162 113 214 60 q 81 234 110 165 q 51 382 51 303 q 81 530 51 461 q 162 651 110 599 q 283 734 214 704 q 431 764 351 764 l 746 764 q 869 731 814 764 q 956 644 924 699 q 989 521 989 589 m 746 417 q 819 447 789 417 q 850 521 850 478 q 819 594 850 564 q 746 625 789 625 l 431 625 q 319 597 369 625 q 235 522 268 569 q 193 417 201 475 l 746 417 m 385 1053 l 554 965 l 724 1053 l 769 985 l 554 840 l 339 985 l 385 1053 z "},"ê":{"ha":1025,"x_min":51,"x_max":989,"o":"m 989 521 q 956 399 989 454 q 869 310 924 343 q 746 278 814 278 l 214 278 q 301 178 243 217 q 431 139 358 139 l 885 139 l 885 0 l 431 0 q 283 30 351 0 q 162 113 214 60 q 81 234 110 165 q 51 382 51 303 q 81 530 51 461 q 162 651 110 599 q 283 734 214 704 q 431 764 351 764 l 746 764 q 869 731 814 764 q 956 644 924 699 q 989 521 989 589 m 746 417 q 819 447 789 417 q 850 521 850 478 q 819 594 850 564 q 746 625 789 625 l 431 625 q 319 597 369 625 q 235 522 268 569 q 193 417 201 475 l 746 417 m 682 854 l 513 943 l 343 854 l 297 924 l 513 1067 l 742 924 l 682 854 z "},"ë":{"ha":1025,"x_min":51,"x_max":989,"o":"m 989 521 q 956 399 989 454 q 869 310 924 343 q 746 278 814 278 l 214 278 q 301 178 243 217 q 431 139 358 139 l 885 139 l 885 0 l 431 0 q 283 30 351 0 q 162 113 214 60 q 81 234 110 165 q 51 382 51 303 q 81 530 51 461 q 162 651 110 599 q 283 734 214 704 q 431 764 351 764 l 746 764 q 869 731 814 764 q 956 644 924 699 q 989 521 989 589 m 746 417 q 819 447 789 417 q 850 521 850 478 q 819 594 850 564 q 746 625 789 625 l 431 625 q 319 597 369 625 q 235 522 268 569 q 193 417 201 475 l 746 417 m 469 919 q 451 875 469 893 q 407 857 432 857 q 362 875 381 857 q 343 919 343 893 q 362 963 343 944 q 407 982 381 982 q 451 963 432 982 q 469 919 469 944 m 696 919 q 677 875 696 893 q 632 857 658 857 q 588 875 606 857 q 569 919 569 893 q 588 963 569 944 q 632 982 606 982 q 677 963 658 982 q 696 919 696 944 z "},"ė":{"ha":1025,"x_min":51,"x_max":989,"o":"m 989 521 q 956 399 989 454 q 869 310 924 343 q 746 278 814 278 l 214 278 q 301 178 243 217 q 431 139 358 139 l 885 139 l 885 0 l 431 0 q 283 30 351 0 q 162 113 214 60 q 81 234 110 165 q 51 382 51 303 q 81 530 51 461 q 162 651 110 599 q 283 734 214 704 q 431 764 351 764 l 746 764 q 869 731 814 764 q 956 644 924 699 q 989 521 989 589 m 746 417 q 819 447 789 417 q 850 521 850 478 q 819 594 850 564 q 746 625 789 625 l 431 625 q 319 597 369 625 q 235 522 268 569 q 193 417 201 475 l 746 417 m 617 919 q 598 875 617 893 q 554 857 579 857 q 510 875 528 857 q 492 919 492 893 q 510 963 492 944 q 554 982 528 982 q 598 963 579 982 q 617 919 617 944 z "},"è":{"ha":1025,"x_min":51,"x_max":989,"o":"m 989 521 q 956 399 989 454 q 869 310 924 343 q 746 278 814 278 l 214 278 q 301 178 243 217 q 431 139 358 139 l 885 139 l 885 0 l 431 0 q 283 30 351 0 q 162 113 214 60 q 81 234 110 165 q 51 382 51 303 q 81 530 51 461 q 162 651 110 599 q 283 734 214 704 q 431 764 351 764 l 746 764 q 869 731 814 764 q 956 644 924 699 q 989 521 989 589 m 746 417 q 819 447 789 417 q 850 521 850 478 q 819 594 850 564 q 746 625 789 625 l 431 625 q 319 597 369 625 q 235 522 268 569 q 193 417 201 475 l 746 417 m 290 1065 l 525 928 l 492 854 l 238 946 l 290 1065 z "},"ē":{"ha":1025,"x_min":51,"x_max":989,"o":"m 989 521 q 956 399 989 454 q 869 310 924 343 q 746 278 814 278 l 214 278 q 301 178 243 217 q 431 139 358 139 l 885 139 l 885 0 l 431 0 q 283 30 351 0 q 162 113 214 60 q 81 234 110 165 q 51 382 51 303 q 81 530 51 461 q 162 651 110 599 q 283 734 214 704 q 431 764 351 764 l 746 764 q 869 731 814 764 q 956 644 924 699 q 989 521 989 589 m 746 417 q 819 447 789 417 q 850 521 850 478 q 819 594 850 564 q 746 625 789 625 l 431 625 q 319 597 369 625 q 235 522 268 569 q 193 417 201 475 l 746 417 m 349 864 l 349 978 l 676 978 l 676 864 l 349 864 z "},"ę":{"ha":1025,"x_min":51,"x_max":989,"o":"m 989 521 q 956 399 989 454 q 869 310 924 343 q 746 278 814 278 l 214 278 q 301 178 243 217 q 431 139 358 139 l 885 139 l 885 0 l 851 0 q 815 -44 828 -19 q 801 -89 801 -68 q 854 -122 801 -122 q 910 -113 878 -122 q 961 -97 943 -104 l 961 -187 q 911 -201 943 -193 q 824 -210 879 -210 q 735 -190 772 -210 q 697 -118 697 -169 q 710 -58 697 -93 q 754 0 724 -24 l 431 0 q 283 30 351 0 q 162 113 214 60 q 81 234 110 165 q 51 382 51 303 q 81 530 51 461 q 162 651 110 599 q 283 734 214 704 q 431 764 351 764 l 746 764 q 869 731 814 764 q 956 644 924 699 q 989 521 989 589 m 746 417 q 819 447 789 417 q 850 521 850 478 q 819 594 850 564 q 746 625 789 625 l 431 625 q 319 597 369 625 q 235 522 268 569 q 193 417 201 475 l 746 417 z "},"f":{"ha":886,"x_min":100,"x_max":864,"o":"m 864 903 l 479 903 q 358 869 413 903 q 272 781 304 836 q 239 660 239 726 l 239 0 l 100 0 l 100 694 q 131 831 100 768 q 215 941 161 894 q 336 1015 268 988 q 479 1042 404 1042 l 864 1042 l 864 903 m 864 556 l 308 556 l 308 694 l 864 694 l 864 556 z "},"g":{"ha":1051,"x_min":51,"x_max":951,"o":"m 951 -35 q 919 -157 951 -101 q 831 -245 886 -212 q 708 -278 775 -278 l 153 -278 l 153 -139 l 708 -139 q 782 -108 751 -139 q 813 -35 813 -78 l 813 625 l 431 625 q 310 592 364 625 q 223 503 256 558 q 190 382 190 449 q 223 260 190 315 q 310 173 256 206 q 431 139 364 140 l 743 139 l 743 0 l 431 0 q 283 30 351 0 q 162 113 214 60 q 81 234 110 165 q 51 382 51 303 q 81 530 51 461 q 162 651 110 599 q 283 734 214 704 q 431 764 351 764 l 951 764 l 951 -35 z "},"ğ":{"ha":1051,"x_min":51,"x_max":951,"o":"m 951 -35 q 919 -157 951 -101 q 831 -245 886 -212 q 708 -278 775 -278 l 153 -278 l 153 -139 l 708 -139 q 782 -108 751 -139 q 813 -35 813 -78 l 813 625 l 431 625 q 310 592 364 625 q 223 503 256 558 q 190 382 190 449 q 223 260 190 315 q 310 173 256 206 q 431 139 364 140 l 743 139 l 743 0 l 431 0 q 283 30 351 0 q 162 113 214 60 q 81 234 110 165 q 51 382 51 303 q 81 530 51 461 q 162 651 110 599 q 283 734 214 704 q 431 764 351 764 l 951 764 l 951 -35 m 724 1044 q 715 996 722 1026 q 686 933 707 965 q 626 880 665 901 q 525 858 588 858 q 424 880 463 858 q 364 933 385 901 q 335 996 343 965 q 326 1044 328 1026 l 418 1044 q 433 1016 422 1033 q 465 985 443 999 q 525 972 486 972 q 586 985 564 972 q 619 1016 608 999 q 632 1044 629 1033 l 724 1044 z "},"ĝ":{"ha":1051,"x_min":51,"x_max":951,"o":"m 951 -35 q 919 -157 951 -101 q 831 -245 886 -212 q 708 -278 775 -278 l 153 -278 l 153 -139 l 708 -139 q 782 -108 751 -139 q 813 -35 813 -78 l 813 625 l 431 625 q 310 592 364 625 q 223 503 256 558 q 190 382 190 449 q 223 260 190 315 q 310 173 256 206 q 431 139 364 140 l 743 139 l 743 0 l 431 0 q 283 30 351 0 q 162 113 214 60 q 81 234 110 165 q 51 382 51 303 q 81 530 51 461 q 162 651 110 599 q 283 734 214 704 q 431 764 351 764 l 951 764 l 951 -35 m 688 854 l 518 943 l 349 854 l 303 924 l 518 1067 l 747 924 l 688 854 z "},"ģ":{"ha":1051,"x_min":51,"x_max":951,"o":"m 951 -35 q 919 -157 951 -101 q 831 -245 886 -212 q 708 -278 775 -278 l 153 -278 l 153 -139 l 708 -139 q 782 -108 751 -139 q 813 -35 813 -78 l 813 625 l 431 625 q 310 592 364 625 q 223 503 256 558 q 190 382 190 449 q 223 260 190 315 q 310 173 256 206 q 431 139 364 140 l 743 139 l 743 0 l 431 0 q 283 30 351 0 q 162 113 214 60 q 81 234 110 165 q 51 382 51 303 q 81 530 51 461 q 162 651 110 599 q 283 734 214 704 q 431 764 351 764 l 951 764 l 951 -35 m 442 946 q 454 1014 443 982 q 477 1065 465 1046 q 489 1085 489 1085 l 560 1083 q 551 1067 560 1083 q 536 1024 543 1051 q 588 997 567 1019 q 608 942 608 974 q 584 883 608 907 q 525 858 560 858 q 466 883 490 858 q 442 946 442 908 z "},"ġ":{"ha":1051,"x_min":51,"x_max":951,"o":"m 951 -35 q 919 -157 951 -101 q 831 -245 886 -212 q 708 -278 775 -278 l 153 -278 l 153 -139 l 708 -139 q 782 -108 751 -139 q 813 -35 813 -78 l 813 625 l 431 625 q 310 592 364 625 q 223 503 256 558 q 190 382 190 449 q 223 260 190 315 q 310 173 256 206 q 431 139 364 140 l 743 139 l 743 0 l 431 0 q 283 30 351 0 q 162 113 214 60 q 81 234 110 165 q 51 382 51 303 q 81 530 51 461 q 162 651 110 599 q 283 734 214 704 q 431 764 351 764 l 951 764 l 951 -35 m 588 919 q 569 875 588 893 q 525 857 550 857 q 481 875 499 857 q 463 919 463 893 q 481 963 463 944 q 525 982 499 982 q 569 963 550 982 q 588 919 588 944 z "},"h":{"ha":1088,"x_min":100,"x_max":1000,"o":"m 1000 0 l 861 0 l 861 382 q 829 503 861 449 q 742 592 797 558 q 621 625 688 625 l 239 625 l 239 0 l 100 0 l 100 1042 l 239 1042 l 239 764 l 621 764 q 769 734 700 764 q 890 651 838 704 q 971 530 942 599 q 1000 382 1000 461 l 1000 0 z "},"ħ":{"ha":1088,"x_min":1,"x_max":1000,"o":"m 1000 0 l 861 0 l 861 382 q 829 503 861 449 q 742 592 797 558 q 621 625 688 625 l 239 625 l 239 0 l 100 0 l 100 840 l 1 840 l 1 969 l 100 969 l 100 1042 l 239 1042 l 239 969 l 557 969 l 557 840 l 239 840 l 239 764 l 621 764 q 769 734 700 764 q 890 651 838 704 q 971 530 942 599 q 1000 382 1000 461 l 1000 0 z "},"ĥ":{"ha":1088,"x_min":100,"x_max":1000,"o":"m 1000 0 l 861 0 l 861 382 q 829 503 861 449 q 742 592 797 558 q 621 625 688 625 l 239 625 l 239 0 l 100 0 l 100 1042 l 239 1042 l 239 764 l 621 764 q 769 734 700 764 q 890 651 838 704 q 971 530 942 599 q 1000 382 1000 461 l 1000 0 m 706 854 l 536 943 l 367 854 l 321 924 l 536 1067 l 765 924 l 706 854 z "},"i":{"ha":339,"x_min":65,"x_max":274,"o":"m 274 938 q 243 864 274 894 q 169 833 213 833 q 96 864 126 833 q 65 938 65 894 q 96 1011 65 981 q 169 1042 126 1042 q 243 1011 213 1042 q 274 938 274 981 m 239 0 l 100 0 l 100 764 l 239 764 l 239 0 z "},"ı":{"ha":339,"x_min":100,"x_max":239,"o":"m 239 0 l 100 0 l 100 764 l 239 764 l 239 0 z "},"í":{"ha":339,"x_min":100,"x_max":453,"o":"m 239 0 l 100 0 l 100 764 l 239 764 l 239 0 m 453 946 l 199 854 l 165 928 l 400 1065 l 453 946 z "},"ĭ":{"ha":339,"x_min":-29,"x_max":368,"o":"m 239 0 l 100 0 l 100 764 l 239 764 l 239 0 m 368 1044 q 359 996 367 1026 q 331 933 351 965 q 271 880 310 901 q 169 858 232 858 q 68 880 107 858 q 8 933 29 901 q -20 996 -12 965 q -29 1044 -28 1026 l 63 1044 q 77 1016 67 1033 q 109 985 88 999 q 169 972 131 972 q 231 985 208 972 q 263 1016 253 999 q 276 1044 274 1033 l 368 1044 z "},"î":{"ha":339,"x_min":-53,"x_max":392,"o":"m 239 0 l 100 0 l 100 764 l 239 764 l 239 0 m 332 854 l 163 943 l -7 854 l -53 924 l 163 1067 l 392 924 l 332 854 z "},"ï":{"ha":339,"x_min":-7,"x_max":346,"o":"m 239 0 l 100 0 l 100 764 l 239 764 l 239 0 m 119 919 q 101 875 119 893 q 57 857 82 857 q 12 875 31 857 q -7 919 -7 893 q 12 963 -7 944 q 57 982 31 982 q 101 963 82 982 q 119 919 119 944 m 346 919 q 327 875 346 893 q 282 857 308 857 q 238 875 256 857 q 219 919 219 893 q 238 963 219 944 q 282 982 256 982 q 327 963 308 982 q 346 919 346 944 z "},"ì":{"ha":339,"x_min":-112,"x_max":239,"o":"m 239 0 l 100 0 l 100 764 l 239 764 l 239 0 m -60 1065 l 175 928 l 142 854 l -112 946 l -60 1065 z "},"ĳ":{"ha":678,"x_min":22,"x_max":613,"o":"m 274 938 q 243 864 274 894 q 169 833 213 833 q 96 864 126 833 q 65 938 65 894 q 96 1011 65 981 q 169 1042 126 1042 q 243 1011 213 1042 q 274 938 274 981 m 239 0 l 100 0 l 100 764 l 239 764 l 239 0 m 613 938 q 583 864 613 894 q 508 833 553 833 q 435 864 465 833 q 404 938 404 894 q 435 1011 404 981 q 508 1042 465 1042 q 583 1011 553 1042 q 613 938 613 981 m 578 -35 q 545 -157 578 -101 q 457 -245 513 -212 q 335 -278 401 -278 l 22 -278 l 22 -139 l 335 -139 q 408 -108 378 -139 q 439 -35 439 -78 l 439 764 l 578 764 l 578 -35 z "},"ī":{"ha":339,"x_min":6,"x_max":333,"o":"m 239 0 l 100 0 l 100 764 l 239 764 l 239 0 m 6 864 l 6 978 l 333 978 l 333 864 l 6 864 z "},"į":{"ha":339,"x_min":56,"x_max":319,"o":"m 274 938 q 243 864 274 894 q 169 833 213 833 q 96 864 126 833 q 65 938 65 894 q 96 1011 65 981 q 169 1042 126 1042 q 243 1011 213 1042 q 274 938 274 981 m 239 0 l 210 0 q 173 -44 186 -19 q 160 -89 160 -68 q 213 -122 160 -122 q 269 -113 236 -122 q 319 -97 301 -104 l 319 -187 q 269 -201 301 -193 q 182 -210 238 -210 q 93 -190 131 -210 q 56 -118 56 -169 q 69 -58 56 -93 q 113 0 82 -24 l 100 0 l 100 764 l 239 764 l 239 0 z "},"ĩ":{"ha":339,"x_min":-24,"x_max":363,"o":"m 239 0 l 100 0 l 100 764 l 239 764 l 239 0 m 363 1019 q 326 890 363 926 q 239 853 290 853 q 183 867 204 853 q 145 897 161 882 q 107 911 129 911 q 78 899 88 911 q 67 874 69 888 q 63 853 64 860 l -24 853 q 14 978 -24 936 q 100 1019 51 1019 q 153 1005 132 1019 q 192 976 174 990 q 232 961 210 961 q 260 973 251 961 q 272 999 269 985 q 275 1019 275 1013 l 363 1019 z "},"j":{"ha":339,"x_min":-317,"x_max":274,"o":"m 274 938 q 244 864 274 894 q 169 833 214 833 q 96 864 126 833 q 65 938 65 894 q 96 1011 65 981 q 169 1042 126 1042 q 244 1011 214 1042 q 274 938 274 981 m 239 -35 q 206 -157 239 -101 q 118 -245 174 -212 q -4 -278 63 -278 l -317 -278 l -317 -139 l -4 -139 q 69 -108 39 -139 q 100 -35 100 -78 l 100 764 l 239 764 l 239 -35 z "},"ȷ":{"ha":339,"x_min":-317,"x_max":239,"o":"m 239 -35 q 206 -157 239 -101 q 118 -245 174 -212 q -4 -278 63 -278 l -317 -278 l -317 -139 l -4 -139 q 69 -108 39 -139 q 100 -35 100 -78 l 100 764 l 239 764 l 239 -35 z "},"ĵ":{"ha":339,"x_min":-317,"x_max":392,"o":"m 239 -35 q 206 -157 239 -101 q 118 -245 174 -212 q -4 -278 63 -278 l -317 -278 l -317 -139 l -4 -139 q 69 -108 39 -139 q 100 -35 100 -78 l 100 764 l 239 764 l 239 -35 m 332 826 l 163 915 l -7 826 l -53 896 l 163 1039 l 392 896 l 332 826 z "},"k":{"ha":988,"x_min":100,"x_max":1004,"o":"m 1004 0 l 806 0 l 400 326 l 239 194 l 239 0 l 100 0 l 100 1042 l 239 1042 l 239 342 l 744 764 l 933 764 l 501 410 l 1004 0 z "},"ķ":{"ha":988,"x_min":100,"x_max":1004,"o":"m 1004 0 l 806 0 l 400 326 l 239 194 l 239 0 l 100 0 l 100 1042 l 239 1042 l 239 342 l 744 764 l 933 764 l 501 410 l 1004 0 m 576 -129 q 563 -197 575 -165 q 540 -249 551 -229 q 529 -268 529 -268 l 458 -267 q 467 -251 458 -267 q 481 -208 475 -235 q 430 -181 450 -204 q 410 -125 410 -157 q 434 -67 410 -92 q 493 -42 458 -42 q 552 -67 528 -42 q 576 -129 576 -93 z "},"ĸ":{"ha":988,"x_min":100,"x_max":1004,"o":"m 1004 0 l 806 0 l 400 326 l 239 194 l 239 0 l 100 0 l 100 764 l 239 764 l 239 342 l 744 764 l 933 764 l 501 410 l 1004 0 z "},"l":{"ha":393,"x_min":94,"x_max":372,"o":"m 372 0 l 338 0 q 215 33 271 0 q 127 120 160 65 q 94 243 94 175 l 94 1042 l 233 1042 l 233 243 q 264 169 233 200 q 338 139 294 139 l 372 139 l 372 0 z "},"ĺ":{"ha":393,"x_min":94,"x_max":454,"o":"m 372 0 l 338 0 q 215 33 271 0 q 127 120 160 65 q 94 243 94 175 l 94 1042 l 233 1042 l 233 243 q 264 169 233 200 q 338 139 294 139 l 372 139 l 372 0 m 454 1204 l 200 1113 l 167 1186 l 401 1324 l 454 1204 z "},"ľ":{"ha":596,"x_min":94,"x_max":503,"o":"m 372 0 l 338 0 q 215 33 271 0 q 127 120 160 65 q 94 243 94 175 l 94 1042 l 233 1042 l 233 243 q 264 169 233 200 q 338 139 294 139 l 372 139 l 372 0 m 503 1039 q 490 971 501 1003 q 467 919 478 939 q 456 900 456 900 l 385 901 q 393 917 385 901 q 407 960 401 933 q 356 988 376 964 q 336 1043 336 1011 q 360 1101 336 1076 q 419 1126 385 1126 q 478 1101 454 1126 q 503 1039 503 1075 z "},"ļ":{"ha":393,"x_min":85,"x_max":372,"o":"m 372 0 l 338 0 q 215 33 271 0 q 127 120 160 65 q 94 243 94 175 l 94 1042 l 233 1042 l 233 243 q 264 169 233 200 q 338 139 294 139 l 372 139 l 372 0 m 251 -157 q 238 -225 250 -193 q 215 -276 226 -257 q 204 -296 204 -296 l 133 -294 q 142 -278 133 -294 q 156 -236 150 -262 q 105 -208 125 -232 q 85 -153 85 -185 q 109 -94 85 -119 q 168 -69 133 -69 q 227 -95 203 -69 q 251 -157 251 -121 z "},"ŀ":{"ha":681,"x_min":94,"x_max":588,"o":"m 372 0 l 338 0 q 215 33 271 0 q 127 120 160 65 q 94 243 94 175 l 94 1042 l 233 1042 l 233 243 q 264 169 233 200 q 338 139 294 139 l 372 139 l 372 0 m 588 494 q 557 421 588 451 q 483 390 526 390 q 410 421 440 390 q 379 494 379 451 q 410 568 379 538 q 483 599 440 599 q 557 568 526 599 q 588 494 588 538 z "},"ł":{"ha":542,"x_min":24,"x_max":525,"o":"m 525 514 l 343 458 l 343 243 q 374 169 343 200 q 447 139 404 139 l 482 139 l 482 0 l 447 0 q 325 33 381 0 q 237 120 269 65 q 204 243 204 175 l 204 415 l 24 361 l 24 514 l 204 568 l 204 1042 l 343 1042 l 343 611 l 525 667 l 525 514 z "},"m":{"ha":1299,"x_min":100,"x_max":1211,"o":"m 239 0 l 100 0 l 100 764 l 832 764 q 980 734 911 764 q 1101 651 1049 704 q 1182 530 1153 599 q 1211 382 1211 461 l 1211 0 l 1072 0 l 1072 382 q 1040 503 1072 449 q 953 592 1008 558 q 832 625 899 625 l 725 625 l 725 0 l 586 0 l 586 625 l 239 625 l 239 0 z "},"n":{"ha":1088,"x_min":100,"x_max":1000,"o":"m 239 0 l 100 0 l 100 764 l 621 764 q 769 734 700 764 q 890 651 838 704 q 971 530 942 599 q 1000 382 1000 461 l 1000 0 l 861 0 l 861 382 q 829 503 861 449 q 742 592 797 558 q 621 625 688 625 l 239 625 l 239 0 z "},"ń":{"ha":1088,"x_min":100,"x_max":1000,"o":"m 239 0 l 100 0 l 100 764 l 621 764 q 769 734 700 764 q 890 651 838 704 q 971 530 942 599 q 1000 382 1000 461 l 1000 0 l 861 0 l 861 382 q 829 503 861 449 q 742 592 797 558 q 621 625 688 625 l 239 625 l 239 0 m 826 946 l 572 854 l 539 928 l 774 1065 l 826 946 z "},"ŉ":{"ha":1278,"x_min":89,"x_max":1190,"o":"m 256 1039 q 242 971 254 1003 q 219 919 231 939 q 208 900 208 900 l 138 901 q 146 917 138 901 q 160 960 154 933 q 109 988 129 964 q 89 1043 89 1011 q 113 1101 89 1076 q 172 1126 138 1126 q 231 1101 207 1126 q 256 1039 256 1075 m 429 0 l 290 0 l 290 764 l 811 764 q 959 734 890 764 q 1080 651 1028 704 q 1161 530 1132 599 q 1190 382 1190 461 l 1190 0 l 1051 0 l 1051 382 q 1019 503 1051 449 q 933 592 988 558 q 811 625 878 625 l 429 625 l 429 0 z "},"ň":{"ha":1088,"x_min":100,"x_max":1000,"o":"m 239 0 l 100 0 l 100 764 l 621 764 q 769 734 700 764 q 890 651 838 704 q 971 530 942 599 q 1000 382 1000 461 l 1000 0 l 861 0 l 861 382 q 829 503 861 449 q 742 592 797 558 q 621 625 688 625 l 239 625 l 239 0 m 374 1053 l 543 965 l 713 1053 l 758 985 l 543 840 l 328 985 l 374 1053 z "},"ņ":{"ha":1088,"x_min":100,"x_max":1000,"o":"m 239 0 l 100 0 l 100 764 l 621 764 q 769 734 700 764 q 890 651 838 704 q 971 530 942 599 q 1000 382 1000 461 l 1000 0 l 861 0 l 861 382 q 829 503 861 449 q 742 592 797 558 q 621 625 688 625 l 239 625 l 239 0 m 626 -143 q 613 -211 625 -179 q 590 -262 601 -243 q 579 -282 579 -282 l 508 -281 q 517 -265 508 -281 q 531 -222 525 -249 q 480 -194 500 -218 q 460 -139 460 -171 q 484 -81 460 -106 q 543 -56 508 -56 q 602 -81 578 -56 q 626 -143 626 -107 z "},"ñ":{"ha":1088,"x_min":100,"x_max":1000,"o":"m 239 0 l 100 0 l 100 764 l 621 764 q 769 734 700 764 q 890 651 838 704 q 971 530 942 599 q 1000 382 1000 461 l 1000 0 l 861 0 l 861 382 q 829 503 861 449 q 742 592 797 558 q 621 625 688 625 l 239 625 l 239 0 m 743 1019 q 707 890 743 926 q 619 853 671 853 q 563 867 585 853 q 526 897 542 882 q 488 911 510 911 q 459 899 468 911 q 447 874 450 888 q 443 853 444 860 l 357 853 q 394 978 357 936 q 481 1019 432 1019 q 533 1005 513 1019 q 572 976 554 990 q 613 961 590 961 q 641 973 632 961 q 653 999 650 985 q 656 1019 656 1013 l 743 1019 z "},"ŋ":{"ha":1088,"x_min":100,"x_max":1000,"o":"m 239 0 l 100 0 l 100 764 l 621 764 q 769 734 700 764 q 890 651 838 704 q 971 530 942 599 q 1000 382 1000 461 l 1000 -35 q 967 -157 1000 -101 q 880 -245 935 -212 q 757 -278 825 -278 l 444 -278 l 444 -139 l 757 -139 q 831 -108 800 -139 q 861 -35 861 -78 l 861 382 q 829 503 861 449 q 742 592 797 558 q 621 625 688 625 l 239 625 l 239 0 z "},"o":{"ha":1075,"x_min":51,"x_max":1024,"o":"m 1024 382 q 994 234 1024 303 q 913 113 965 165 q 792 30 861 60 q 644 0 724 0 l 431 0 q 283 30 351 0 q 162 113 214 60 q 81 234 110 165 q 51 382 51 303 q 81 530 51 461 q 162 651 110 599 q 283 734 214 704 q 431 764 351 764 l 644 764 q 792 734 724 764 q 913 651 861 704 q 994 530 965 599 q 1024 382 1024 461 m 885 382 q 853 503 885 449 q 766 592 821 558 q 644 625 711 625 l 431 625 q 310 592 364 625 q 223 503 256 558 q 190 382 190 449 q 223 260 190 315 q 310 172 256 206 q 431 139 364 139 l 644 139 q 766 172 711 139 q 853 260 821 206 q 885 382 885 315 z "},"ó":{"ha":1075,"x_min":51,"x_max":1024,"o":"m 1024 382 q 994 234 1024 303 q 913 113 965 165 q 792 30 861 60 q 644 0 724 0 l 431 0 q 283 30 351 0 q 162 113 214 60 q 81 234 110 165 q 51 382 51 303 q 81 530 51 461 q 162 651 110 599 q 283 734 214 704 q 431 764 351 764 l 644 764 q 792 734 724 764 q 913 651 861 704 q 994 530 965 599 q 1024 382 1024 461 m 885 382 q 853 503 885 449 q 766 592 821 558 q 644 625 711 625 l 431 625 q 310 592 364 625 q 223 503 256 558 q 190 382 190 449 q 223 260 190 315 q 310 172 256 206 q 431 139 364 139 l 644 139 q 766 172 711 139 q 853 260 821 206 q 885 382 885 315 m 854 946 l 600 854 l 567 928 l 801 1065 l 854 946 z "},"ŏ":{"ha":1075,"x_min":51,"x_max":1024,"o":"m 1024 382 q 994 234 1024 303 q 913 113 965 165 q 792 30 861 60 q 644 0 724 0 l 431 0 q 283 30 351 0 q 162 113 214 60 q 81 234 110 165 q 51 382 51 303 q 81 530 51 461 q 162 651 110 599 q 283 734 214 704 q 431 764 351 764 l 644 764 q 792 734 724 764 q 913 651 861 704 q 994 530 965 599 q 1024 382 1024 461 m 885 382 q 853 503 885 449 q 766 592 821 558 q 644 625 711 625 l 431 625 q 310 592 364 625 q 223 503 256 558 q 190 382 190 449 q 223 260 190 315 q 310 172 256 206 q 431 139 364 139 l 644 139 q 766 172 711 139 q 853 260 821 206 q 885 382 885 315 m 736 1044 q 727 996 735 1026 q 699 933 719 965 q 639 880 678 901 q 538 858 600 858 q 436 880 475 858 q 376 933 397 901 q 348 996 356 965 q 339 1044 340 1026 l 431 1044 q 445 1016 435 1033 q 477 985 456 999 q 538 972 499 972 q 599 985 576 972 q 631 1016 621 999 q 644 1044 642 1033 l 736 1044 z "},"ô":{"ha":1075,"x_min":51,"x_max":1024,"o":"m 1024 382 q 994 234 1024 303 q 913 113 965 165 q 792 30 861 60 q 644 0 724 0 l 431 0 q 283 30 351 0 q 162 113 214 60 q 81 234 110 165 q 51 382 51 303 q 81 530 51 461 q 162 651 110 599 q 283 734 214 704 q 431 764 351 764 l 644 764 q 792 734 724 764 q 913 651 861 704 q 994 530 965 599 q 1024 382 1024 461 m 885 382 q 853 503 885 449 q 766 592 821 558 q 644 625 711 625 l 431 625 q 310 592 364 625 q 223 503 256 558 q 190 382 190 449 q 223 260 190 315 q 310 172 256 206 q 431 139 364 139 l 644 139 q 766 172 711 139 q 853 260 821 206 q 885 382 885 315 m 693 854 l 524 943 l 354 854 l 308 924 l 524 1067 l 753 924 l 693 854 z "},"ö":{"ha":1075,"x_min":51,"x_max":1024,"o":"m 1024 382 q 994 234 1024 303 q 913 113 965 165 q 792 30 861 60 q 644 0 724 0 l 431 0 q 283 30 351 0 q 162 113 214 60 q 81 234 110 165 q 51 382 51 303 q 81 530 51 461 q 162 651 110 599 q 283 734 214 704 q 431 764 351 764 l 644 764 q 792 734 724 764 q 913 651 861 704 q 994 530 965 599 q 1024 382 1024 461 m 885 382 q 853 503 885 449 q 766 592 821 558 q 644 625 711 625 l 431 625 q 310 592 364 625 q 223 503 256 558 q 190 382 190 449 q 223 260 190 315 q 310 172 256 206 q 431 139 364 139 l 644 139 q 766 172 711 139 q 853 260 821 206 q 885 382 885 315 m 481 919 q 462 875 481 893 q 418 857 443 857 q 373 875 392 857 q 354 919 354 893 q 373 963 354 944 q 418 982 392 982 q 462 963 443 982 q 481 919 481 944 m 707 919 q 688 875 707 893 q 643 857 669 857 q 599 875 617 857 q 581 919 581 893 q 599 963 581 944 q 643 982 617 982 q 688 963 669 982 q 707 919 707 944 z "},"ò":{"ha":1075,"x_min":51,"x_max":1024,"o":"m 1024 382 q 994 234 1024 303 q 913 113 965 165 q 792 30 861 60 q 644 0 724 0 l 431 0 q 283 30 351 0 q 162 113 214 60 q 81 234 110 165 q 51 382 51 303 q 81 530 51 461 q 162 651 110 599 q 283 734 214 704 q 431 764 351 764 l 644 764 q 792 734 724 764 q 913 651 861 704 q 994 530 965 599 q 1024 382 1024 461 m 885 382 q 853 503 885 449 q 766 592 821 558 q 644 625 711 625 l 431 625 q 310 592 364 625 q 223 503 256 558 q 190 382 190 449 q 223 260 190 315 q 310 172 256 206 q 431 139 364 139 l 644 139 q 766 172 711 139 q 853 260 821 206 q 885 382 885 315 m 286 1065 l 521 928 l 488 854 l 233 946 l 286 1065 z "},"ő":{"ha":1075,"x_min":51,"x_max":1024,"o":"m 1024 382 q 994 234 1024 303 q 913 113 965 165 q 792 30 861 60 q 644 0 724 0 l 431 0 q 283 30 351 0 q 162 113 214 60 q 81 234 110 165 q 51 382 51 303 q 81 530 51 461 q 162 651 110 599 q 283 734 214 704 q 431 764 351 764 l 644 764 q 792 734 724 764 q 913 651 861 704 q 994 530 965 599 q 1024 382 1024 461 m 885 382 q 853 503 885 449 q 766 592 821 558 q 644 625 711 625 l 431 625 q 310 592 364 625 q 223 503 256 558 q 190 382 190 449 q 223 260 190 315 q 310 172 256 206 q 431 139 364 139 l 644 139 q 766 172 711 139 q 853 260 821 206 q 885 382 885 315 m 650 940 l 465 849 l 438 894 l 594 1035 l 650 940 m 860 940 l 675 849 l 650 894 l 804 1035 l 860 940 z "},"ō":{"ha":1075,"x_min":51,"x_max":1024,"o":"m 1024 382 q 994 234 1024 303 q 913 113 965 165 q 792 30 861 60 q 644 0 724 0 l 431 0 q 283 30 351 0 q 162 113 214 60 q 81 234 110 165 q 51 382 51 303 q 81 530 51 461 q 162 651 110 599 q 283 734 214 704 q 431 764 351 764 l 644 764 q 792 734 724 764 q 913 651 861 704 q 994 530 965 599 q 1024 382 1024 461 m 885 382 q 853 503 885 449 q 766 592 821 558 q 644 625 711 625 l 431 625 q 310 592 364 625 q 223 503 256 558 q 190 382 190 449 q 223 260 190 315 q 310 172 256 206 q 431 139 364 139 l 644 139 q 766 172 711 139 q 853 260 821 206 q 885 382 885 315 m 374 864 l 374 978 l 701 978 l 701 864 l 374 864 z "},"ø":{"ha":1089,"x_min":51,"x_max":1038,"o":"m 1024 765 l 918 660 q 1006 535 974 607 q 1038 382 1038 464 q 1008 234 1038 303 q 927 113 979 165 q 806 30 875 60 q 658 0 738 0 l 431 0 q 355 8 392 0 q 285 29 318 15 l 256 0 l 76 0 l 176 99 q 85 224 118 151 q 51 382 51 297 q 81 530 51 461 q 162 651 110 599 q 283 734 214 704 q 431 764 351 764 l 658 764 q 811 732 739 764 l 844 765 l 1024 765 m 431 625 q 310 592 364 625 q 223 503 256 558 q 190 382 190 449 q 213 278 190 326 q 274 197 235 231 l 699 621 q 679 624 689 622 q 658 625 669 625 l 431 625 m 899 382 q 877 481 899 435 q 819 561 856 528 l 397 142 q 414 140 406 140 q 431 139 422 139 l 658 139 q 780 172 725 139 q 867 260 835 206 q 899 382 899 315 z "},"ǿ":{"ha":1089,"x_min":51,"x_max":1038,"o":"m 1024 765 l 918 660 q 1006 535 974 607 q 1038 382 1038 464 q 1008 234 1038 303 q 927 113 979 165 q 806 30 875 60 q 658 0 738 0 l 431 0 q 355 8 392 0 q 285 29 318 15 l 256 0 l 76 0 l 176 99 q 85 224 118 151 q 51 382 51 297 q 81 530 51 461 q 162 651 110 599 q 283 734 214 704 q 431 764 351 764 l 658 764 q 811 732 739 764 l 844 765 l 1024 765 m 431 625 q 310 592 364 625 q 223 503 256 558 q 190 382 190 449 q 213 278 190 326 q 274 197 235 231 l 699 621 q 679 624 689 622 q 658 625 669 625 l 431 625 m 899 382 q 877 481 899 435 q 819 561 856 528 l 397 142 q 414 140 406 140 q 431 139 422 139 l 658 139 q 780 172 725 139 q 867 260 835 206 q 899 382 899 315 m 840 946 l 586 854 l 553 928 l 788 1065 l 840 946 z "},"õ":{"ha":1075,"x_min":51,"x_max":1024,"o":"m 1024 382 q 994 234 1024 303 q 913 113 965 165 q 792 30 861 60 q 644 0 724 0 l 431 0 q 283 30 351 0 q 162 113 214 60 q 81 234 110 165 q 51 382 51 303 q 81 530 51 461 q 162 651 110 599 q 283 734 214 704 q 431 764 351 764 l 644 764 q 792 734 724 764 q 913 651 861 704 q 994 530 965 599 q 1024 382 1024 461 m 885 382 q 853 503 885 449 q 766 592 821 558 q 644 625 711 625 l 431 625 q 310 592 364 625 q 223 503 256 558 q 190 382 190 449 q 223 260 190 315 q 310 172 256 206 q 431 139 364 139 l 644 139 q 766 172 711 139 q 853 260 821 206 q 885 382 885 315 m 724 1019 q 688 890 724 926 q 600 853 651 853 q 544 867 565 853 q 506 897 522 882 q 468 911 490 911 q 440 899 449 911 q 428 874 431 888 q 424 853 425 860 l 338 853 q 375 978 338 936 q 461 1019 413 1019 q 514 1005 493 1019 q 553 976 535 990 q 593 961 571 961 q 622 973 613 961 q 633 999 631 985 q 636 1019 636 1013 l 724 1019 z "},"œ":{"ha":1929,"x_min":51,"x_max":1893,"o":"m 1893 521 q 1860 399 1893 454 q 1773 310 1828 343 q 1650 278 1718 278 l 1118 278 q 1205 178 1147 217 q 1335 139 1263 139 l 1789 139 l 1789 0 l 1335 0 q 1157 45 1238 0 q 1024 164 1076 90 q 891 45 972 90 q 714 0 810 0 l 431 0 q 283 30 351 0 q 162 113 214 60 q 81 234 110 165 q 51 382 51 303 q 81 530 51 461 q 162 651 110 599 q 283 734 214 704 q 431 764 351 764 l 714 764 q 891 719 810 764 q 1024 600 972 674 q 1157 718 1076 674 q 1335 764 1238 763 l 1650 764 q 1773 731 1718 764 q 1860 644 1828 699 q 1893 521 1893 589 m 954 382 q 922 503 954 449 q 835 592 890 558 q 714 625 781 625 l 431 625 q 310 592 364 625 q 223 503 256 558 q 190 382 190 449 q 223 260 190 315 q 310 172 256 206 q 431 139 364 139 l 714 139 q 835 172 781 139 q 922 260 890 206 q 954 382 954 315 m 1650 417 q 1724 447 1693 417 q 1754 521 1754 478 q 1724 594 1754 564 q 1650 625 1693 625 l 1335 625 q 1223 597 1274 625 q 1139 522 1172 569 q 1097 417 1106 475 l 1650 417 z "},"p":{"ha":1051,"x_min":100,"x_max":1000,"o":"m 1000 382 q 971 234 1000 303 q 890 113 942 165 q 769 30 838 60 q 621 0 700 0 l 308 0 l 308 139 l 621 139 q 742 173 688 140 q 829 260 797 206 q 861 382 861 315 q 829 504 861 449 q 742 592 797 560 q 621 625 688 625 l 239 625 l 239 -278 l 100 -278 l 100 764 l 621 764 q 769 734 700 764 q 890 651 838 704 q 971 530 942 599 q 1000 382 1000 461 z "},"þ":{"ha":1051,"x_min":100,"x_max":1000,"o":"m 1000 382 q 971 234 1000 303 q 890 113 942 165 q 769 30 838 60 q 621 0 700 0 l 308 0 l 308 139 l 621 139 q 742 173 688 140 q 829 260 797 206 q 861 382 861 315 q 829 504 861 449 q 742 592 797 560 q 621 625 688 625 l 239 625 l 239 -278 l 100 -278 l 100 1040 l 239 1040 l 239 764 l 621 764 q 769 734 700 764 q 890 651 838 704 q 971 530 942 599 q 1000 382 1000 461 z "},"q":{"ha":1051,"x_min":51,"x_max":951,"o":"m 951 -278 l 813 -278 l 813 625 l 431 625 q 310 592 364 625 q 223 504 256 560 q 190 382 190 449 q 223 260 190 315 q 310 173 256 206 q 431 139 364 140 l 743 139 l 743 0 l 431 0 q 283 30 351 0 q 162 113 214 60 q 81 234 110 165 q 51 382 51 303 q 81 530 51 461 q 162 651 110 599 q 283 734 214 704 q 431 764 351 764 l 951 764 l 951 -278 z "},"r":{"ha":871,"x_min":94,"x_max":858,"o":"m 858 625 l 338 625 q 264 594 294 625 q 233 521 233 564 l 233 0 l 94 0 l 94 521 q 127 644 94 589 q 215 731 160 699 q 338 764 271 764 l 858 764 l 858 625 z "},"ŕ":{"ha":871,"x_min":94,"x_max":858,"o":"m 858 625 l 338 625 q 264 594 294 625 q 233 521 233 564 l 233 0 l 94 0 l 94 521 q 127 644 94 589 q 215 731 160 699 q 338 764 271 764 l 858 764 l 858 625 m 746 946 l 492 854 l 458 928 l 693 1065 l 746 946 z "},"ř":{"ha":871,"x_min":94,"x_max":858,"o":"m 858 625 l 338 625 q 264 594 294 625 q 233 521 233 564 l 233 0 l 94 0 l 94 521 q 127 644 94 589 q 215 731 160 699 q 338 764 271 764 l 858 764 l 858 625 m 265 1053 l 435 965 l 604 1053 l 650 985 l 435 840 l 219 985 l 265 1053 z "},"ŗ":{"ha":871,"x_min":82,"x_max":858,"o":"m 858 625 l 338 625 q 264 594 294 625 q 233 521 233 564 l 233 0 l 94 0 l 94 521 q 127 644 94 589 q 215 731 160 699 q 338 764 271 764 l 858 764 l 858 625 m 249 -143 q 235 -211 247 -179 q 213 -262 224 -243 q 201 -282 201 -282 l 131 -281 q 139 -265 131 -281 q 153 -222 147 -249 q 102 -194 122 -218 q 82 -139 82 -171 q 106 -81 82 -106 q 165 -56 131 -56 q 224 -81 200 -56 q 249 -143 249 -107 z "},"s":{"ha":940,"x_min":64,"x_max":897,"o":"m 897 243 q 865 120 897 175 q 777 33 832 65 q 654 0 722 0 l 64 0 l 64 139 l 654 139 q 728 169 697 139 q 758 243 758 200 q 728 317 758 286 q 654 347 697 347 l 272 347 q 167 375 215 347 q 92 451 119 403 q 64 556 64 499 q 92 661 64 614 q 167 736 119 708 q 272 764 215 764 l 828 764 l 828 625 l 272 625 q 223 605 243 625 q 203 556 203 585 q 223 506 203 526 q 272 486 243 486 l 654 486 q 777 453 722 486 q 865 366 832 421 q 897 243 897 311 z "},"ś":{"ha":940,"x_min":64,"x_max":897,"o":"m 897 243 q 865 120 897 175 q 777 33 832 65 q 654 0 722 0 l 64 0 l 64 139 l 654 139 q 728 169 697 139 q 758 243 758 200 q 728 317 758 286 q 654 347 697 347 l 272 347 q 167 375 215 347 q 92 451 119 403 q 64 556 64 499 q 92 661 64 614 q 167 736 119 708 q 272 764 215 764 l 828 764 l 828 625 l 272 625 q 223 605 243 625 q 203 556 203 585 q 223 506 203 526 q 272 486 243 486 l 654 486 q 777 453 722 486 q 865 366 832 421 q 897 243 897 311 m 753 946 l 499 854 l 465 928 l 700 1065 l 753 946 z "},"š":{"ha":940,"x_min":64,"x_max":897,"o":"m 897 243 q 865 120 897 175 q 777 33 832 65 q 654 0 722 0 l 64 0 l 64 139 l 654 139 q 728 169 697 139 q 758 243 758 200 q 728 317 758 286 q 654 347 697 347 l 272 347 q 167 375 215 347 q 92 451 119 403 q 64 556 64 499 q 92 661 64 614 q 167 736 119 708 q 272 764 215 764 l 828 764 l 828 625 l 272 625 q 223 605 243 625 q 203 556 203 585 q 223 506 203 526 q 272 486 243 486 l 654 486 q 777 453 722 486 q 865 366 832 421 q 897 243 897 311 m 311 1039 l 481 951 l 650 1039 l 696 971 l 481 826 l 265 971 l 311 1039 z "},"ş":{"ha":940,"x_min":64,"x_max":897,"o":"m 897 243 q 865 120 897 175 q 777 33 832 65 q 654 0 722 0 l 511 0 l 499 -33 q 542 -40 518 -33 q 584 -66 567 -47 q 601 -122 601 -85 q 578 -181 601 -160 q 519 -212 554 -203 q 447 -221 483 -221 q 377 -216 397 -221 q 338 -210 357 -211 l 338 -124 q 383 -140 357 -133 q 436 -146 410 -146 q 482 -140 464 -146 q 500 -121 500 -133 q 479 -101 500 -106 q 443 -96 458 -96 q 420 -97 432 -96 q 397 -101 408 -99 l 435 0 l 64 0 l 64 139 l 654 139 q 728 169 697 139 q 758 243 758 200 q 728 317 758 286 q 654 347 697 347 l 272 347 q 167 375 215 347 q 92 451 119 403 q 64 556 64 499 q 92 661 64 614 q 167 736 119 708 q 272 764 215 764 l 828 764 l 828 625 l 272 625 q 223 605 243 625 q 203 556 203 585 q 223 506 203 526 q 272 486 243 486 l 654 486 q 777 453 722 486 q 865 366 832 421 q 897 243 897 311 z "},"ŝ":{"ha":940,"x_min":64,"x_max":897,"o":"m 897 243 q 865 120 897 175 q 777 33 832 65 q 654 0 722 0 l 64 0 l 64 139 l 654 139 q 728 169 697 139 q 758 243 758 200 q 728 317 758 286 q 654 347 697 347 l 272 347 q 167 375 215 347 q 92 451 119 403 q 64 556 64 499 q 92 661 64 614 q 167 736 119 708 q 272 764 215 764 l 828 764 l 828 625 l 272 625 q 223 605 243 625 q 203 556 203 585 q 223 506 203 526 q 272 486 243 486 l 654 486 q 777 453 722 486 q 865 366 832 421 q 897 243 897 311 m 632 854 l 463 943 l 293 854 l 247 924 l 463 1067 l 692 924 l 632 854 z "},"ș":{"ha":940,"x_min":64,"x_max":897,"o":"m 897 243 q 865 120 897 175 q 777 33 832 65 q 654 0 722 0 l 64 0 l 64 139 l 654 139 q 728 169 697 139 q 758 243 758 200 q 728 317 758 286 q 654 347 697 347 l 272 347 q 167 375 215 347 q 92 451 119 403 q 64 556 64 499 q 92 661 64 614 q 167 736 119 708 q 272 764 215 764 l 828 764 l 828 625 l 272 625 q 223 605 243 625 q 203 556 203 585 q 223 506 203 526 q 272 486 243 486 l 654 486 q 777 453 722 486 q 865 366 832 421 q 897 243 897 311 m 549 -171 q 535 -239 547 -207 q 513 -290 524 -271 q 501 -310 501 -310 l 431 -308 q 439 -292 431 -308 q 453 -250 447 -276 q 402 -222 422 -246 q 382 -167 382 -199 q 406 -108 382 -133 q 465 -83 431 -83 q 524 -109 500 -83 q 549 -171 549 -135 z "},"ß":{"ha":1242,"x_min":100,"x_max":1211,"o":"m 1211 243 q 1178 120 1211 175 q 1091 33 1146 65 q 968 0 1036 0 l 378 0 l 378 139 l 968 139 q 1042 169 1011 139 q 1072 243 1072 200 q 1042 317 1072 286 q 968 347 1011 347 l 586 347 q 481 375 529 347 q 406 451 433 403 q 378 556 378 499 q 406 661 378 614 q 481 736 433 708 q 586 764 529 764 l 656 764 q 705 784 685 764 q 725 833 725 804 q 705 883 725 863 q 656 903 685 903 l 479 903 q 358 869 413 903 q 272 781 304 836 q 239 660 239 726 l 239 0 l 100 0 l 100 694 q 131 831 100 768 q 215 941 161 893 q 336 1015 268 989 q 479 1042 404 1042 l 656 1042 q 761 1014 714 1042 q 836 939 808 986 q 864 833 864 892 q 836 728 864 776 q 761 653 808 681 q 656 625 714 625 l 586 625 q 537 605 557 625 q 517 556 517 585 q 537 506 517 526 q 586 486 557 486 l 968 486 q 1091 453 1036 486 q 1178 366 1146 421 q 1211 243 1211 311 z "},"t":{"ha":864,"x_min":21,"x_max":854,"o":"m 368 0 l 229 0 l 229 625 l 21 625 l 21 764 l 229 764 l 229 1042 l 368 1042 l 368 764 l 854 764 l 854 625 l 368 625 l 368 0 z "},"ŧ":{"ha":864,"x_min":21,"x_max":854,"o":"m 576 361 l 368 361 l 368 0 l 229 0 l 229 361 l 21 361 l 21 500 l 229 500 l 229 625 l 21 625 l 21 764 l 229 764 l 229 1042 l 368 1042 l 368 764 l 854 764 l 854 625 l 368 625 l 368 500 l 576 500 l 576 361 z "},"ť":{"ha":1213,"x_min":21,"x_max":1119,"o":"m 368 0 l 229 0 l 229 625 l 21 625 l 21 764 l 229 764 l 229 1042 l 368 1042 l 368 764 l 854 764 l 854 625 l 368 625 l 368 0 m 1119 1039 q 1106 971 1118 1003 q 1083 919 1094 939 q 1072 900 1072 900 l 1001 901 q 1010 917 1001 901 q 1024 960 1018 933 q 973 988 993 964 q 953 1043 953 1011 q 977 1101 953 1076 q 1036 1126 1001 1126 q 1095 1101 1071 1126 q 1119 1039 1119 1075 z "},"ţ":{"ha":864,"x_min":21,"x_max":854,"o":"m 368 0 l 229 0 l 229 625 l 21 625 l 21 764 l 229 764 l 229 1042 l 368 1042 l 368 764 l 854 764 l 854 625 l 368 625 l 368 0 m 381 -157 q 367 -225 379 -193 q 344 -276 356 -257 q 333 -296 333 -296 l 263 -294 q 271 -278 263 -294 q 285 -236 279 -262 q 234 -208 254 -232 q 214 -153 214 -185 q 238 -94 214 -119 q 297 -69 263 -69 q 356 -95 332 -69 q 381 -157 381 -121 z "},"u":{"ha":1088,"x_min":88,"x_max":988,"o":"m 988 0 l 467 0 q 319 30 388 0 q 198 113 250 60 q 117 234 146 165 q 88 382 88 303 l 88 764 l 226 764 l 226 382 q 259 260 226 315 q 346 173 292 206 q 467 139 400 140 l 849 139 l 849 764 l 988 764 l 988 0 z "},"ú":{"ha":1088,"x_min":88,"x_max":988,"o":"m 988 0 l 467 0 q 319 30 388 0 q 198 113 250 60 q 117 234 146 165 q 88 382 88 303 l 88 764 l 226 764 l 226 382 q 259 260 226 315 q 346 173 292 206 q 467 139 400 140 l 849 139 l 849 764 l 988 764 l 988 0 m 819 946 l 565 854 l 532 928 l 767 1065 l 819 946 z "},"ŭ":{"ha":1088,"x_min":88,"x_max":988,"o":"m 988 0 l 467 0 q 319 30 388 0 q 198 113 250 60 q 117 234 146 165 q 88 382 88 303 l 88 764 l 226 764 l 226 382 q 259 260 226 315 q 346 173 292 206 q 467 139 400 140 l 849 139 l 849 764 l 988 764 l 988 0 m 742 1044 q 733 996 740 1026 q 704 933 725 965 q 644 880 683 901 q 543 858 606 858 q 442 880 481 858 q 382 933 403 901 q 353 996 361 965 q 344 1044 346 1026 l 436 1044 q 451 1016 440 1033 q 483 985 461 999 q 543 972 504 972 q 604 985 582 972 q 637 1016 626 999 q 650 1044 647 1033 l 742 1044 z "},"û":{"ha":1088,"x_min":88,"x_max":988,"o":"m 988 0 l 467 0 q 319 30 388 0 q 198 113 250 60 q 117 234 146 165 q 88 382 88 303 l 88 764 l 226 764 l 226 382 q 259 260 226 315 q 346 173 292 206 q 467 139 400 140 l 849 139 l 849 764 l 988 764 l 988 0 m 700 854 l 531 943 l 361 854 l 315 924 l 531 1067 l 760 924 l 700 854 z "},"ü":{"ha":1088,"x_min":88,"x_max":988,"o":"m 988 0 l 467 0 q 319 30 388 0 q 198 113 250 60 q 117 234 146 165 q 88 382 88 303 l 88 764 l 226 764 l 226 382 q 259 260 226 315 q 346 173 292 206 q 467 139 400 140 l 849 139 l 849 764 l 988 764 l 988 0 m 488 919 q 469 875 488 893 q 425 857 450 857 q 380 875 399 857 q 361 919 361 893 q 380 963 361 944 q 425 982 399 982 q 469 963 450 982 q 488 919 488 944 m 714 919 q 695 875 714 893 q 650 857 676 857 q 606 875 624 857 q 588 919 588 893 q 606 963 588 944 q 650 982 624 982 q 695 963 676 982 q 714 919 714 944 z "},"ù":{"ha":1088,"x_min":88,"x_max":988,"o":"m 988 0 l 467 0 q 319 30 388 0 q 198 113 250 60 q 117 234 146 165 q 88 382 88 303 l 88 764 l 226 764 l 226 382 q 259 260 226 315 q 346 173 292 206 q 467 139 400 140 l 849 139 l 849 764 l 988 764 l 988 0 m 307 1065 l 542 928 l 508 854 l 254 946 l 307 1065 z "},"ű":{"ha":1088,"x_min":88,"x_max":988,"o":"m 988 0 l 467 0 q 319 30 388 0 q 198 113 250 60 q 117 234 146 165 q 88 382 88 303 l 88 764 l 226 764 l 226 382 q 259 260 226 315 q 346 173 292 206 q 467 139 400 140 l 849 139 l 849 764 l 988 764 l 988 0 m 628 940 l 443 849 l 415 894 l 572 1035 l 628 940 m 838 940 l 653 849 l 628 894 l 782 1035 l 838 940 z "},"ū":{"ha":1088,"x_min":88,"x_max":988,"o":"m 988 0 l 467 0 q 319 30 388 0 q 198 113 250 60 q 117 234 146 165 q 88 382 88 303 l 88 764 l 226 764 l 226 382 q 259 260 226 315 q 346 173 292 206 q 467 139 400 140 l 849 139 l 849 764 l 988 764 l 988 0 m 379 864 l 379 978 l 707 978 l 707 864 l 379 864 z "},"ų":{"ha":1088,"x_min":88,"x_max":1065,"o":"m 988 0 l 956 0 q 919 -44 932 -19 q 906 -89 906 -68 q 958 -122 906 -122 q 1015 -113 982 -122 q 1065 -97 1047 -104 l 1065 -187 q 1015 -201 1047 -193 q 928 -210 983 -210 q 839 -190 876 -210 q 801 -118 801 -169 q 815 -58 801 -93 q 858 0 828 -24 l 467 0 q 319 30 388 0 q 198 113 250 60 q 117 234 146 165 q 88 382 88 303 l 88 764 l 226 764 l 226 382 q 259 260 226 315 q 346 173 292 206 q 467 139 400 140 l 849 139 l 849 764 l 988 764 l 988 0 z "},"ů":{"ha":1088,"x_min":88,"x_max":988,"o":"m 988 0 l 467 0 q 319 30 388 0 q 198 113 250 60 q 117 234 146 165 q 88 382 88 303 l 88 764 l 226 764 l 226 382 q 259 260 226 315 q 346 173 292 206 q 467 139 400 140 l 849 139 l 849 764 l 988 764 l 988 0 m 400 946 q 440 1029 400 994 q 543 1064 481 1064 q 649 1029 613 1064 q 686 946 686 994 q 647 863 686 899 q 543 828 608 828 q 438 863 476 828 q 400 946 400 899 m 496 946 q 508 913 496 926 q 543 899 519 899 q 578 913 567 899 q 590 946 590 926 q 578 979 590 965 q 543 993 567 993 q 508 979 519 993 q 496 946 496 965 z "},"ũ":{"ha":1088,"x_min":88,"x_max":988,"o":"m 988 0 l 467 0 q 319 30 388 0 q 198 113 250 60 q 117 234 146 165 q 88 382 88 303 l 88 764 l 226 764 l 226 382 q 259 260 226 315 q 346 173 292 206 q 467 139 400 140 l 849 139 l 849 764 l 988 764 l 988 0 m 736 1019 q 700 890 736 926 q 613 853 664 853 q 556 867 578 853 q 519 897 535 882 q 481 911 503 911 q 452 899 461 911 q 440 874 443 888 q 436 853 438 860 l 350 853 q 388 978 350 936 q 474 1019 425 1019 q 526 1005 506 1019 q 565 976 547 990 q 606 961 583 961 q 634 973 625 961 q 646 999 643 985 q 649 1019 649 1013 l 736 1019 z "},"v":{"ha":1038,"x_min":19,"x_max":1019,"o":"m 1019 764 l 597 0 l 439 0 l 19 764 l 182 764 l 518 144 l 857 764 l 1019 764 z "},"w":{"ha":1318,"x_min":88,"x_max":1231,"o":"m 1231 382 q 1201 234 1231 303 q 1120 113 1172 165 q 999 30 1068 60 q 851 0 931 0 l 467 0 q 319 30 388 0 q 198 113 250 60 q 117 234 146 165 q 88 382 88 303 l 88 764 l 226 764 l 226 382 q 259 260 226 315 q 346 173 292 206 q 467 139 400 140 l 590 139 l 590 764 l 728 764 l 728 139 l 851 139 q 973 173 918 140 q 1060 260 1028 206 q 1092 382 1092 315 l 1092 764 l 1231 764 l 1231 382 z "},"ẃ":{"ha":1318,"x_min":88,"x_max":1231,"o":"m 1231 382 q 1201 234 1231 303 q 1120 113 1172 165 q 999 30 1068 60 q 851 0 931 0 l 467 0 q 319 30 388 0 q 198 113 250 60 q 117 234 146 165 q 88 382 88 303 l 88 764 l 226 764 l 226 382 q 259 260 226 315 q 346 173 292 206 q 467 139 400 140 l 590 139 l 590 764 l 728 764 l 728 139 l 851 139 q 973 173 918 140 q 1060 260 1028 206 q 1092 382 1092 315 l 1092 764 l 1231 764 l 1231 382 m 942 946 l 688 854 l 654 928 l 889 1065 l 942 946 z "},"ŵ":{"ha":1318,"x_min":88,"x_max":1231,"o":"m 1231 382 q 1201 234 1231 303 q 1120 113 1172 165 q 999 30 1068 60 q 851 0 931 0 l 467 0 q 319 30 388 0 q 198 113 250 60 q 117 234 146 165 q 88 382 88 303 l 88 764 l 226 764 l 226 382 q 259 260 226 315 q 346 173 292 206 q 467 139 400 140 l 590 139 l 590 764 l 728 764 l 728 139 l 851 139 q 973 173 918 140 q 1060 260 1028 206 q 1092 382 1092 315 l 1092 764 l 1231 764 l 1231 382 m 821 854 l 651 943 l 482 854 l 436 924 l 651 1067 l 881 924 l 821 854 z "},"ẅ":{"ha":1318,"x_min":88,"x_max":1231,"o":"m 1231 382 q 1201 234 1231 303 q 1120 113 1172 165 q 999 30 1068 60 q 851 0 931 0 l 467 0 q 319 30 388 0 q 198 113 250 60 q 117 234 146 165 q 88 382 88 303 l 88 764 l 226 764 l 226 382 q 259 260 226 315 q 346 173 292 206 q 467 139 400 140 l 590 139 l 590 764 l 728 764 l 728 139 l 851 139 q 973 173 918 140 q 1060 260 1028 206 q 1092 382 1092 315 l 1092 764 l 1231 764 l 1231 382 m 608 919 q 590 875 608 893 q 546 857 571 857 q 501 875 519 857 q 482 919 482 893 q 501 963 482 944 q 546 982 519 982 q 590 963 571 982 q 608 919 608 944 m 835 919 q 816 875 835 893 q 771 857 797 857 q 726 875 744 857 q 708 919 708 893 q 726 963 708 944 q 771 982 744 982 q 816 963 797 982 q 835 919 835 944 z "},"ẁ":{"ha":1318,"x_min":88,"x_max":1231,"o":"m 1231 382 q 1201 234 1231 303 q 1120 113 1172 165 q 999 30 1068 60 q 851 0 931 0 l 467 0 q 319 30 388 0 q 198 113 250 60 q 117 234 146 165 q 88 382 88 303 l 88 764 l 226 764 l 226 382 q 259 260 226 315 q 346 173 292 206 q 467 139 400 140 l 590 139 l 590 764 l 728 764 l 728 139 l 851 139 q 973 173 918 140 q 1060 260 1028 206 q 1092 382 1092 315 l 1092 764 l 1231 764 l 1231 382 m 429 1065 l 664 928 l 631 854 l 376 946 l 429 1065 z "},"x":{"ha":1006,"x_min":10,"x_max":996,"o":"m 996 0 l 797 0 l 500 288 l 208 0 l 10 0 l 404 381 l 10 764 l 208 764 l 996 0 m 996 764 l 665 442 l 565 531 l 797 764 l 996 764 z "},"y":{"ha":1088,"x_min":88,"x_max":988,"o":"m 988 -35 q 955 -157 988 -101 q 867 -245 922 -212 q 744 -278 813 -278 l 189 -278 l 189 -139 l 744 -139 q 818 -108 788 -139 q 849 -35 849 -78 l 849 0 l 467 0 q 319 30 388 0 q 198 113 250 60 q 117 234 146 165 q 88 382 88 303 l 88 764 l 226 764 l 226 382 q 259 260 226 315 q 346 173 292 206 q 467 139 400 140 l 849 139 l 849 764 l 988 764 l 988 -35 z "},"ý":{"ha":1088,"x_min":88,"x_max":988,"o":"m 988 -35 q 955 -157 988 -101 q 867 -245 922 -212 q 744 -278 813 -278 l 189 -278 l 189 -139 l 744 -139 q 818 -108 788 -139 q 849 -35 849 -78 l 849 0 l 467 0 q 319 30 388 0 q 198 113 250 60 q 117 234 146 165 q 88 382 88 303 l 88 764 l 226 764 l 226 382 q 259 260 226 315 q 346 173 292 206 q 467 139 400 140 l 849 139 l 849 764 l 988 764 l 988 -35 m 819 946 l 565 854 l 532 928 l 767 1065 l 819 946 z "},"ŷ":{"ha":1088,"x_min":88,"x_max":988,"o":"m 988 -35 q 955 -157 988 -101 q 867 -245 922 -212 q 744 -278 813 -278 l 189 -278 l 189 -139 l 744 -139 q 818 -108 788 -139 q 849 -35 849 -78 l 849 0 l 467 0 q 319 30 388 0 q 198 113 250 60 q 117 234 146 165 q 88 382 88 303 l 88 764 l 226 764 l 226 382 q 259 260 226 315 q 346 173 292 206 q 467 139 400 140 l 849 139 l 849 764 l 988 764 l 988 -35 m 706 854 l 536 943 l 367 854 l 321 924 l 536 1067 l 765 924 l 706 854 z "},"ÿ":{"ha":1088,"x_min":88,"x_max":988,"o":"m 988 -35 q 955 -157 988 -101 q 867 -245 922 -212 q 744 -278 813 -278 l 189 -278 l 189 -139 l 744 -139 q 818 -108 788 -139 q 849 -35 849 -78 l 849 0 l 467 0 q 319 30 388 0 q 198 113 250 60 q 117 234 146 165 q 88 382 88 303 l 88 764 l 226 764 l 226 382 q 259 260 226 315 q 346 173 292 206 q 467 139 400 140 l 849 139 l 849 764 l 988 764 l 988 -35 m 488 919 q 469 875 488 893 q 425 857 450 857 q 380 875 399 857 q 361 919 361 893 q 380 963 361 944 q 425 982 399 982 q 469 963 450 982 q 488 919 488 944 m 714 919 q 695 875 714 893 q 650 857 676 857 q 606 875 624 857 q 588 919 588 893 q 606 963 588 944 q 650 982 624 982 q 695 963 676 982 q 714 919 714 944 z "},"ỳ":{"ha":1088,"x_min":88,"x_max":988,"o":"m 988 -35 q 955 -157 988 -101 q 867 -245 922 -212 q 744 -278 813 -278 l 189 -278 l 189 -139 l 744 -139 q 818 -108 788 -139 q 849 -35 849 -78 l 849 0 l 467 0 q 319 30 388 0 q 198 113 250 60 q 117 234 146 165 q 88 382 88 303 l 88 764 l 226 764 l 226 382 q 259 260 226 315 q 346 173 292 206 q 467 139 400 140 l 849 139 l 849 764 l 988 764 l 988 -35 m 314 1065 l 549 928 l 515 854 l 261 946 l 314 1065 z "},"z":{"ha":1019,"x_min":58,"x_max":961,"o":"m 961 625 l 292 139 l 961 139 l 961 0 l 58 0 l 58 139 l 726 625 l 58 625 l 58 764 l 961 764 l 961 625 z "},"ź":{"ha":1019,"x_min":58,"x_max":961,"o":"m 961 625 l 292 139 l 961 139 l 961 0 l 58 0 l 58 139 l 726 625 l 58 625 l 58 764 l 961 764 l 961 625 m 792 946 l 538 854 l 504 928 l 739 1065 l 792 946 z "},"ž":{"ha":1019,"x_min":58,"x_max":961,"o":"m 961 625 l 292 139 l 961 139 l 961 0 l 58 0 l 58 139 l 726 625 l 58 625 l 58 764 l 961 764 l 961 625 m 340 1053 l 510 965 l 679 1053 l 725 985 l 510 840 l 294 985 l 340 1053 z "},"ż":{"ha":1019,"x_min":58,"x_max":961,"o":"m 961 625 l 292 139 l 961 139 l 961 0 l 58 0 l 58 139 l 726 625 l 58 625 l 58 764 l 961 764 l 961 625 m 572 919 q 553 875 572 893 q 510 857 535 857 q 465 875 483 857 q 447 919 447 893 q 465 963 447 944 q 510 982 483 982 q 553 963 535 982 q 572 919 572 944 z "},"ﬁ":{"ha":1225,"x_min":100,"x_max":1160,"o":"m 864 903 l 479 903 q 358 869 413 903 q 272 781 304 836 q 239 660 239 726 l 239 0 l 100 0 l 100 694 q 131 831 100 768 q 215 941 161 894 q 336 1015 268 988 q 479 1042 404 1042 l 864 1042 l 864 903 m 1160 938 q 1129 864 1160 894 q 1056 833 1099 833 q 982 864 1013 833 q 951 938 951 894 q 982 1011 951 981 q 1056 1042 1013 1042 q 1129 1011 1099 1042 q 1160 938 1160 981 m 1125 0 l 986 0 l 986 556 l 308 556 l 308 694 l 1125 694 l 1125 0 z "},"ﬂ":{"ha":1279,"x_min":100,"x_max":1258,"o":"m 1258 0 l 1224 0 q 1101 33 1157 0 q 1013 120 1046 65 q 981 243 981 175 l 981 903 l 479 903 q 358 869 413 903 q 272 781 304 836 q 239 660 239 726 l 239 0 l 100 0 l 100 694 q 131 831 100 768 q 215 941 161 894 q 336 1015 268 988 q 479 1042 404 1042 l 1119 1042 l 1119 243 q 1150 169 1119 200 q 1224 139 1181 139 l 1258 139 l 1258 0 m 864 556 l 308 556 l 308 694 l 864 694 l 864 556 z "},"ª":{"ha":714,"x_min":65,"x_max":632,"o":"m 632 508 l 218 508 q 142 529 176 508 q 86 584 107 550 q 65 660 65 618 q 86 736 65 701 q 142 792 107 771 q 218 813 176 813 l 483 813 l 483 710 l 218 710 q 182 695 196 710 q 168 660 168 681 q 182 624 168 639 q 218 610 196 610 l 531 610 l 531 821 q 516 857 531 843 q 481 871 501 871 l 146 871 l 146 974 l 481 974 q 557 953 522 974 q 612 897 592 932 q 632 821 632 863 l 632 508 m 632 333 l 65 333 l 65 431 l 632 431 l 632 333 z "},"º":{"ha":749,"x_min":60,"x_max":689,"o":"m 688 740 q 656 624 688 676 q 572 541 625 572 q 456 508 519 510 l 292 508 q 175 541 228 510 q 91 624 122 572 q 60 740 60 676 q 91 857 60 804 q 175 942 122 910 q 292 974 228 974 l 456 974 q 572 942 519 974 q 656 857 625 910 q 688 740 688 804 m 585 740 q 548 832 585 794 q 456 871 511 869 l 292 871 q 200 832 238 869 q 163 740 163 794 q 200 648 163 686 q 292 610 238 610 l 456 610 q 548 648 511 610 q 585 740 585 686 m 689 333 l 60 333 l 60 431 l 689 431 l 689 333 z "},"⁄":{"ha":685,"x_min":8,"x_max":674,"o":"m 674 914 l 142 42 l 8 42 l 540 914 l 674 914 z "},"½":{"ha":1022,"x_min":68,"x_max":965,"o":"m 254 460 l 139 460 l 139 811 l 68 811 l 68 928 l 254 928 l 254 460 m 744 914 l 213 42 l 79 42 l 611 914 l 744 914 m 965 26 l 533 26 l 533 190 q 546 245 533 215 q 587 297 558 275 q 661 318 615 318 l 836 318 q 850 331 850 318 l 850 365 q 841 376 844 375 q 838 378 838 378 l 568 378 l 568 494 l 838 494 q 913 473 885 494 q 953 422 940 451 q 965 367 965 392 l 965 331 q 944 256 965 285 q 892 215 922 228 q 838 203 863 203 l 661 203 q 649 189 649 203 l 649 143 l 965 143 l 965 26 z "},"¼":{"ha":1058,"x_min":68,"x_max":996,"o":"m 254 460 l 139 460 l 139 811 l 68 811 l 68 928 l 254 928 l 254 460 m 744 914 l 213 42 l 79 42 l 611 914 l 744 914 m 996 26 l 881 26 l 881 203 l 622 203 q 581 220 599 203 q 564 261 564 238 l 564 494 l 679 494 l 679 318 l 881 318 l 881 494 l 996 494 l 996 26 z "},"¾":{"ha":1228,"x_min":71,"x_max":1165,"o":"m 468 589 q 447 513 468 542 q 395 472 425 485 q 340 460 365 460 l 71 460 l 71 576 l 339 576 q 353 589 353 576 l 353 636 l 71 636 l 71 751 l 353 751 l 353 799 q 340 811 353 811 l 71 811 l 71 928 l 340 928 q 415 906 388 928 q 456 855 443 885 q 468 800 468 825 l 468 589 m 914 914 l 382 42 l 249 42 l 781 914 l 914 914 m 1165 26 l 1050 26 l 1050 203 l 792 203 q 751 220 768 203 q 733 261 733 238 l 733 494 l 849 494 l 849 318 l 1050 318 l 1050 494 l 1165 494 l 1165 26 z "},"¹":{"ha":351,"x_min":67,"x_max":253,"o":"m 253 460 l 138 460 l 138 811 l 67 811 l 67 928 l 253 928 l 253 460 z "},"²":{"ha":615,"x_min":89,"x_max":521,"o":"m 521 460 l 89 460 l 89 624 q 101 678 89 649 q 142 730 114 708 q 217 751 169 751 l 392 751 q 406 764 406 751 l 406 799 q 397 810 400 808 q 393 811 393 811 l 124 811 l 124 928 l 393 928 q 468 906 440 928 q 508 855 496 885 q 521 800 521 825 l 521 764 q 499 690 521 718 q 448 649 478 661 q 393 636 418 636 l 217 636 q 204 622 204 636 l 204 576 l 521 576 l 521 460 z "},"³":{"ha":579,"x_min":97,"x_max":494,"o":"m 494 589 q 473 513 494 542 q 422 472 451 485 q 367 460 392 460 l 97 460 l 97 576 l 365 576 q 379 589 379 576 l 379 636 l 97 636 l 97 751 l 379 751 l 379 799 q 367 811 379 811 l 97 811 l 97 928 l 367 928 q 442 906 414 928 q 482 855 469 885 q 494 800 494 825 l 494 589 z "}," ":{"ha":521,"x_min":0,"x_max":0,"o":""}," ":{"ha":521,"x_min":0,"x_max":0,"o":""},".":{"ha":361,"x_min":76,"x_max":285,"o":"m 285 104 q 254 31 285 61 q 181 0 224 0 q 107 31 138 0 q 76 104 76 61 q 107 178 76 147 q 181 208 138 208 q 254 178 224 208 q 285 104 285 147 z "},",":{"ha":365,"x_min":78,"x_max":286,"o":"m 286 100 q 270 15 285 56 q 242 -49 256 -25 q 228 -74 228 -74 l 139 -72 q 149 -53 139 -72 q 167 0 158 -33 q 103 35 129 6 q 78 104 78 65 q 108 178 78 147 q 182 208 139 208 q 256 177 225 208 q 286 100 286 146 z "},":":{"ha":386,"x_min":89,"x_max":297,"o":"m 297 661 q 267 588 297 618 q 193 557 236 557 q 119 588 150 557 q 89 661 89 618 q 119 735 89 704 q 193 765 150 765 q 267 735 236 765 q 297 661 297 704 m 297 104 q 267 31 297 61 q 193 0 236 0 q 119 31 150 0 q 89 104 89 61 q 119 178 89 147 q 193 208 150 208 q 267 178 236 208 q 297 104 297 147 z "},";":{"ha":388,"x_min":89,"x_max":297,"o":"m 297 661 q 267 588 297 618 q 193 557 236 557 q 119 588 150 557 q 89 661 89 618 q 119 735 89 704 q 193 765 150 765 q 267 735 236 765 q 297 661 297 704 m 297 100 q 281 15 296 56 q 253 -49 267 -25 q 239 -74 239 -74 l 150 -72 q 160 -53 150 -72 q 178 0 169 -33 q 115 35 140 6 q 89 104 89 65 q 119 178 89 147 q 193 208 150 208 q 267 177 236 208 q 297 100 297 146 z "},"…":{"ha":1083,"x_min":76,"x_max":1007,"o":"m 285 104 q 254 31 285 61 q 181 0 224 0 q 107 31 138 0 q 76 104 76 61 q 107 178 76 147 q 181 208 138 208 q 254 178 224 208 q 285 104 285 147 m 646 104 q 615 31 646 61 q 542 0 585 0 q 468 31 499 0 q 438 104 438 61 q 468 178 438 147 q 542 208 499 208 q 615 178 585 208 q 646 104 646 147 m 1007 104 q 976 31 1007 61 q 903 0 946 0 q 829 31 860 0 q 799 104 799 61 q 829 178 799 147 q 903 208 860 208 q 976 178 946 208 q 1007 104 1007 147 z "},"!":{"ha":364,"x_min":78,"x_max":286,"o":"m 261 972 l 232 261 l 132 261 l 103 972 l 261 972 m 286 104 q 256 31 286 61 q 182 0 225 0 q 108 31 139 0 q 78 104 78 61 q 108 178 78 147 q 182 208 139 208 q 256 178 225 208 q 286 104 286 147 z "},"¡":{"ha":364,"x_min":78,"x_max":286,"o":"m 78 868 q 108 942 78 911 q 182 972 139 972 q 256 942 225 972 q 286 868 286 911 q 256 794 286 825 q 182 764 225 764 q 108 794 139 764 q 78 868 78 825 m 103 0 l 132 711 l 232 711 l 261 0 l 103 0 z "},"?":{"ha":1108,"x_min":47,"x_max":1054,"o":"m 1054 660 q 1012 503 1054 574 q 899 390 969 432 q 742 347 828 347 l 568 347 q 544 338 554 347 q 533 313 533 328 l 533 261 l 394 261 l 394 313 q 418 400 394 361 q 481 463 442 439 q 568 486 521 486 l 742 486 q 829 510 790 486 q 892 573 868 533 q 915 660 915 613 q 892 747 915 708 q 829 810 868 786 q 742 833 790 833 l 47 833 l 47 972 l 742 972 q 899 930 828 972 q 1012 817 969 888 q 1054 660 1054 746 m 568 104 q 538 31 568 61 q 464 0 507 0 q 390 31 421 0 q 360 104 360 61 q 390 178 360 147 q 464 208 421 208 q 538 178 507 208 q 568 104 568 147 z "},"¿":{"ha":1108,"x_min":54,"x_max":1061,"o":"m 540 868 q 571 942 540 911 q 644 972 601 972 q 719 942 689 972 q 749 868 749 911 q 719 794 749 825 q 644 764 689 764 q 571 794 601 764 q 540 868 540 825 m 54 313 q 97 469 54 399 q 210 583 139 540 q 367 625 281 625 l 540 625 q 565 635 556 625 q 575 660 575 646 l 575 711 l 714 711 l 714 660 q 690 573 714 613 q 628 510 667 533 q 540 486 589 486 l 367 486 q 280 463 319 486 q 217 400 240 439 q 193 313 193 361 q 217 226 193 265 q 280 163 240 186 q 367 139 319 139 l 1061 139 l 1061 0 l 367 0 q 210 42 281 0 q 97 156 139 85 q 54 313 54 226 z "},"·":{"ha":383,"x_min":88,"x_max":296,"o":"m 296 494 q 265 421 296 451 q 192 390 235 390 q 118 421 149 390 q 88 494 88 451 q 118 568 88 538 q 192 599 149 599 q 265 568 235 599 q 296 494 296 538 z "},"•":{"ha":499,"x_min":114,"x_max":386,"o":"m 386 494 q 346 398 386 438 q 250 358 306 358 q 153 398 193 358 q 114 494 114 438 q 153 589 114 549 q 250 629 193 629 q 346 589 306 629 q 386 494 386 549 z "},"*":{"ha":758,"x_min":76,"x_max":682,"o":"m 682 825 l 474 693 l 682 561 l 601 449 l 435 583 l 449 360 l 310 360 l 322 583 l 157 449 l 76 561 l 283 693 l 76 825 l 157 938 l 322 801 l 310 1026 l 449 1026 l 435 801 l 601 938 l 682 825 z "},"#":{"ha":1000,"x_min":49,"x_max":950,"o":"m 149 681 l 324 681 l 379 932 l 517 932 l 461 681 l 631 681 l 686 932 l 824 932 l 768 681 l 950 681 l 922 550 l 739 550 l 703 385 l 881 385 l 853 254 l 674 254 l 618 0 l 481 0 l 536 254 l 367 254 l 311 0 l 174 0 l 229 254 l 49 254 l 79 385 l 258 385 l 294 550 l 118 550 l 149 681 m 396 385 l 565 385 l 601 550 l 432 550 l 396 385 z "},"/":{"ha":744,"x_min":39,"x_max":708,"o":"m 708 972 l 197 0 l 39 0 l 550 972 l 708 972 z "},"\\":{"ha":744,"x_min":36,"x_max":706,"o":"m 706 0 l 547 0 l 36 972 l 194 972 l 706 0 z "},"-":{"ha":942,"x_min":89,"x_max":853,"o":"m 853 417 l 89 417 l 89 556 l 853 556 l 853 417 z "},"–":{"ha":733,"x_min":89,"x_max":644,"o":"m 644 417 l 89 417 l 89 556 l 644 556 l 644 417 z "},"—":{"ha":1289,"x_min":89,"x_max":1200,"o":"m 1200 417 l 89 417 l 89 556 l 1200 556 l 1200 417 z "},"_":{"ha":931,"x_min":83,"x_max":847,"o":"m 847 -261 l 83 -261 l 83 -122 l 847 -122 l 847 -261 z "},"(":{"ha":453,"x_min":53,"x_max":453,"o":"m 453 -174 l 269 -174 q 203 -69 240 -133 q 131 81 165 -6 q 75 273 97 167 q 53 504 53 379 q 76 726 53 622 q 134 918 99 831 q 207 1072 169 1006 q 274 1181 244 1139 l 449 1181 l 426 1153 q 401 1119 425 1151 q 342 1028 376 1088 q 273 890 307 969 q 215 712 239 810 q 192 504 192 614 q 215 284 192 385 q 272 104 238 183 q 341 -30 307 25 q 399 -113 375 -85 q 424 -143 422 -142 l 453 -174 z "},")":{"ha":453,"x_min":0,"x_max":400,"o":"m 29 -143 q 54 -113 31 -142 q 112 -30 78 -85 q 181 104 146 25 q 238 284 215 183 q 261 504 261 385 q 238 712 261 614 q 180 890 214 810 q 111 1028 146 969 q 52 1119 76 1088 q 26 1153 28 1151 l 4 1181 l 179 1181 q 246 1072 208 1139 q 319 918 283 1006 q 377 726 354 831 q 400 504 400 622 q 378 273 400 379 q 322 81 356 167 q 250 -69 288 -6 q 183 -174 213 -133 l 0 -174 l 29 -143 z "},"{":{"ha":558,"x_min":-1,"x_max":519,"o":"m 519 1039 l 450 1039 q 386 1029 418 1039 q 334 997 354 1019 q 314 939 314 975 l 314 938 q 313 871 314 936 q 313 678 313 806 q 294 575 313 618 q 243 503 275 532 q 296 418 279 465 q 313 331 313 371 l 311 69 q 333 10 311 33 q 385 -24 354 -14 q 447 -35 417 -35 l 517 -35 l 517 -174 l 447 -174 q 358 -160 406 -174 q 269 -119 311 -147 q 199 -44 226 -90 q 172 69 172 3 l 174 329 q 143 406 174 376 q 68 435 113 435 q 19 455 39 435 q -1 504 -1 475 q 19 553 -1 532 q 68 574 39 574 q 139 596 104 574 q 174 678 174 618 q 174 867 174 801 q 175 938 175 932 q 215 1069 175 1015 q 319 1150 256 1122 q 450 1178 382 1178 l 519 1178 l 519 1039 z "},"}":{"ha":558,"x_min":39,"x_max":560,"o":"m 39 1178 l 108 1178 q 240 1150 178 1178 q 343 1069 303 1122 q 383 938 383 1015 q 384 867 383 932 q 385 678 385 801 q 419 596 385 618 q 490 574 454 574 q 540 553 519 574 q 560 504 560 532 q 540 455 560 475 q 490 435 519 435 q 415 406 446 435 q 385 329 385 376 l 386 69 q 359 -44 386 3 q 290 -119 332 -90 q 200 -160 247 -147 q 111 -174 153 -174 l 42 -174 l 42 -35 l 111 -35 q 173 -24 142 -35 q 226 10 204 -14 q 247 69 247 33 l 246 331 q 263 418 246 371 q 315 503 279 465 q 265 575 285 532 q 246 678 246 618 q 245 871 246 806 q 244 938 244 936 l 244 939 q 224 997 244 975 q 173 1029 204 1019 q 108 1039 142 1039 l 39 1039 l 39 1178 z "},"[":{"ha":493,"x_min":106,"x_max":453,"o":"m 453 1039 l 244 1039 l 244 -35 l 453 -35 l 453 -174 l 175 -174 q 126 -153 146 -174 q 106 -104 106 -133 l 106 1108 q 126 1158 106 1138 q 175 1178 146 1178 l 453 1178 l 453 1039 z "},"]":{"ha":493,"x_min":40,"x_max":388,"o":"m 40 1178 l 318 1178 q 367 1158 347 1178 q 388 1108 388 1138 l 388 -104 q 367 -153 388 -133 q 318 -174 347 -174 l 40 -174 l 40 -35 l 249 -35 l 249 1039 l 40 1039 l 40 1178 z "},"‚":{"ha":365,"x_min":78,"x_max":286,"o":"m 286 100 q 270 15 285 56 q 242 -49 256 -25 q 228 -74 228 -74 l 139 -72 q 149 -53 139 -72 q 167 0 158 -33 q 103 35 129 6 q 78 104 78 65 q 108 178 78 147 q 182 208 139 208 q 256 177 225 208 q 286 100 286 146 z "},"„":{"ha":629,"x_min":78,"x_max":550,"o":"m 286 100 q 270 15 285 56 q 242 -49 256 -25 q 228 -74 228 -74 l 139 -72 q 149 -53 139 -72 q 167 0 158 -33 q 103 35 129 6 q 78 104 78 65 q 108 178 78 147 q 182 208 139 208 q 256 177 225 208 q 286 100 286 146 m 550 100 q 534 15 549 56 q 506 -49 519 -25 q 492 -74 492 -74 l 403 -72 q 413 -53 403 -72 q 431 0 422 -33 q 367 35 393 6 q 342 104 342 65 q 372 178 342 147 q 446 208 403 208 q 519 177 489 208 q 550 100 550 146 z "},"“":{"ha":615,"x_min":74,"x_max":546,"o":"m 338 800 q 353 885 339 846 q 381 949 367 925 q 396 974 396 974 l 485 972 q 475 953 485 972 q 456 899 465 933 q 519 864 493 893 q 546 796 546 835 q 515 722 546 753 q 442 692 485 692 q 368 723 399 692 q 338 800 338 754 m 74 800 q 89 885 75 846 q 117 949 103 925 q 132 974 132 974 l 221 972 q 211 953 221 972 q 192 899 201 933 q 256 864 229 893 q 282 796 282 835 q 251 722 282 753 q 178 692 221 692 q 104 723 135 692 q 74 800 74 754 z "},"”":{"ha":613,"x_min":68,"x_max":540,"o":"m 276 865 q 260 781 275 821 q 232 716 246 740 q 218 692 218 692 l 129 693 q 139 713 129 693 q 157 765 149 732 q 94 801 119 771 q 68 869 68 831 q 99 943 68 913 q 172 974 129 974 q 246 942 215 974 q 276 865 276 911 m 540 865 q 524 781 539 821 q 496 716 510 740 q 482 692 482 692 l 393 693 q 403 713 393 693 q 421 765 413 732 q 358 801 383 771 q 332 869 332 831 q 363 943 332 913 q 436 974 393 974 q 510 942 479 974 q 540 865 540 911 z "},"‘":{"ha":351,"x_min":74,"x_max":282,"o":"m 74 800 q 89 885 75 846 q 117 949 103 925 q 132 974 132 974 l 221 972 q 211 953 221 972 q 192 899 201 933 q 256 864 229 893 q 282 796 282 835 q 251 722 282 753 q 178 692 221 692 q 104 723 135 692 q 74 800 74 754 z "},"’":{"ha":349,"x_min":68,"x_max":276,"o":"m 276 865 q 260 781 275 821 q 232 716 246 740 q 218 692 218 692 l 129 693 q 139 713 129 693 q 157 765 149 732 q 94 801 119 771 q 68 869 68 831 q 99 943 68 913 q 172 974 129 974 q 246 942 215 974 q 276 865 276 911 z "},"«":{"ha":926,"x_min":56,"x_max":867,"o":"m 547 678 l 203 369 l 544 69 l 361 69 l 79 317 q 56 368 56 336 q 79 421 56 400 l 367 678 l 547 678 m 867 678 l 522 369 l 864 69 l 681 69 l 399 317 q 375 368 375 336 q 399 421 375 400 l 686 678 l 867 678 z "},"»":{"ha":926,"x_min":60,"x_max":871,"o":"m 560 678 l 847 421 q 871 368 871 400 q 847 317 871 336 l 565 69 l 382 69 l 724 369 l 379 678 l 560 678 m 240 678 l 528 421 q 551 368 551 400 q 528 317 551 336 l 246 69 l 63 69 l 404 369 l 60 678 l 240 678 z "},"‹":{"ha":607,"x_min":56,"x_max":547,"o":"m 547 678 l 203 369 l 544 69 l 361 69 l 79 317 q 56 368 56 336 q 79 421 56 400 l 367 678 l 547 678 z "},"›":{"ha":607,"x_min":60,"x_max":551,"o":"m 240 678 l 528 421 q 551 368 551 400 q 528 317 551 336 l 246 69 l 63 69 l 404 369 l 60 678 l 240 678 z "},"\"":{"ha":496,"x_min":82,"x_max":415,"o":"m 193 632 l 108 632 l 82 974 l 221 974 l 193 632 m 388 632 l 303 632 l 276 974 l 415 974 l 388 632 z "},"'":{"ha":301,"x_min":82,"x_max":221,"o":"m 193 632 l 108 632 l 82 974 l 221 974 l 193 632 z "},"ƒ":{"ha":960,"x_min":-174,"x_max":938,"o":"m 938 903 l 553 903 q 432 869 486 903 q 345 781 378 836 q 313 660 313 726 l 313 69 l 311 69 q 281 -67 311 -4 q 197 -177 250 -131 q 76 -251 143 -224 q -67 -278 8 -278 l -174 -278 l -174 -139 l -67 -139 q 55 -105 0 -137 q 142 -17 110 -72 q 174 104 174 38 l 174 694 q 204 831 174 768 q 288 941 235 894 q 410 1015 342 988 q 553 1042 478 1042 l 938 1042 l 938 903 m 799 556 l 382 556 l 382 694 l 799 694 l 799 556 z "},"@":{"ha":968,"x_min":92,"x_max":901,"o":"m 578 286 l 410 286 q 392 283 404 286 q 381 257 381 279 q 384 240 381 251 q 410 228 388 228 l 613 228 l 613 431 q 609 448 613 436 q 583 460 606 460 l 342 460 l 342 575 l 583 575 q 646 561 613 575 q 703 515 679 547 q 728 431 728 483 l 728 228 l 757 228 q 775 231 764 228 q 786 257 786 235 l 786 517 q 763 594 786 569 q 711 626 739 619 q 669 633 683 633 l 324 633 q 246 610 271 633 q 214 558 221 586 q 207 517 207 531 l 207 169 q 231 92 207 117 q 282 61 254 68 q 324 54 310 54 l 410 54 l 410 -61 l 324 -61 q 249 -49 289 -61 q 173 -9 208 -36 q 115 62 138 18 q 92 169 92 106 l 92 517 q 104 592 92 551 q 144 667 117 632 q 215 726 171 703 q 324 749 260 749 l 671 749 q 746 736 706 749 q 822 697 786 724 q 879 625 857 669 q 901 517 901 581 l 901 257 q 888 194 901 228 q 842 136 874 160 q 757 113 811 113 l 410 113 q 347 126 381 113 q 289 172 313 140 q 265 257 265 204 q 279 320 265 286 q 325 378 293 354 q 410 401 357 401 l 578 401 l 578 286 z "},"&":{"ha":1164,"x_min":79,"x_max":1121,"o":"m 982 0 l 357 0 q 217 38 281 0 q 117 138 154 75 q 79 278 79 201 q 105 393 79 339 q 174 486 131 447 q 105 578 131 524 q 79 694 79 632 q 117 834 79 771 q 217 935 154 897 q 357 972 281 972 l 982 972 l 982 833 l 357 833 q 259 792 300 833 q 218 694 218 751 q 257 599 218 639 q 351 556 296 558 l 565 556 l 565 417 l 357 417 q 259 376 300 417 q 218 278 218 335 q 259 180 218 221 q 357 139 300 139 l 843 139 l 843 417 l 704 417 l 704 556 l 1121 556 l 1121 417 l 982 417 l 982 0 z "},"¶":{"ha":1293,"x_min":50,"x_max":1172,"o":"m 50 625 q 97 800 50 721 q 223 926 144 879 q 397 972 301 972 l 1172 972 l 1172 0 l 1033 0 l 1033 833 l 824 833 l 824 0 l 685 0 l 685 833 l 397 833 q 292 806 339 833 q 217 731 244 778 q 189 625 189 683 q 217 520 189 568 q 292 444 244 472 q 397 415 339 415 l 594 415 l 594 278 l 397 278 q 223 325 301 278 q 97 451 144 372 q 50 625 50 529 z "},"§":{"ha":1260,"x_min":76,"x_max":1200,"o":"m 1200 139 q 1163 -1 1200 63 q 1062 -101 1125 -64 q 922 -139 999 -139 l 76 -139 l 76 0 l 922 0 q 1020 41 979 0 q 1061 139 1061 82 q 1020 237 1061 196 q 922 278 979 278 l 354 278 q 215 315 278 278 q 114 416 151 353 q 76 556 76 479 q 86 628 76 593 q 114 694 96 664 q 86 760 96 725 q 76 833 76 794 q 114 973 76 910 q 215 1074 151 1036 q 354 1111 278 1111 l 1131 1111 l 1131 972 l 354 972 q 256 931 297 972 q 215 833 215 890 q 256 735 215 776 q 354 694 297 694 l 922 694 q 1062 657 999 694 q 1163 556 1125 619 q 1200 417 1200 493 q 1190 344 1200 379 q 1163 278 1181 310 q 1200 139 1200 214 m 1061 417 q 1020 515 1061 474 q 922 556 979 556 l 354 556 q 219 590 282 556 q 215 556 215 574 q 256 458 215 499 q 354 417 297 417 l 922 417 q 1056 382 994 417 q 1060 399 1058 390 q 1061 417 1061 407 z "},"©":{"ha":754,"x_min":96,"x_max":658,"o":"m 658 460 q 638 354 658 396 q 585 289 617 313 q 521 256 554 265 q 463 246 488 246 l 292 246 q 233 256 267 246 q 169 289 200 265 q 117 354 138 313 q 96 460 96 396 l 96 549 q 117 654 96 613 q 169 720 138 696 q 233 754 200 744 q 292 764 267 764 l 463 764 q 521 754 488 764 q 585 720 554 744 q 638 654 617 696 q 658 549 658 613 l 658 460 m 585 549 q 568 628 585 600 q 528 670 551 657 q 485 687 504 683 q 463 690 467 690 l 292 690 q 268 687 288 690 q 226 670 249 683 q 186 628 203 657 q 169 549 169 600 l 169 460 q 186 380 169 408 q 226 338 203 351 q 268 322 249 325 q 292 319 288 319 l 463 319 q 486 322 467 319 q 528 338 506 325 q 568 380 551 351 q 585 460 585 408 l 585 549 m 493 358 l 367 358 q 309 371 340 358 q 256 411 278 383 q 235 485 235 439 l 235 529 q 266 615 235 575 q 365 656 297 656 l 493 656 l 493 581 l 365 581 q 317 563 328 581 q 307 529 307 544 l 307 485 q 320 449 307 460 q 348 436 333 439 q 367 433 363 433 l 493 433 l 493 358 z "},"®":{"ha":718,"x_min":78,"x_max":640,"o":"m 640 671 q 619 565 640 607 q 567 500 599 524 q 503 467 536 476 q 444 457 469 457 l 274 457 q 215 467 249 457 q 151 500 182 476 q 99 565 119 524 q 78 671 78 607 l 78 760 q 99 865 78 824 q 151 931 119 907 q 215 965 182 956 q 274 975 249 975 l 444 975 q 503 965 469 975 q 567 931 536 956 q 619 865 599 907 q 640 760 640 824 l 640 671 m 510 763 q 483 690 510 714 q 426 660 456 667 l 538 574 q 558 613 550 589 q 567 671 567 636 l 567 760 q 534 859 567 817 q 444 901 501 901 l 274 901 q 250 898 269 901 q 208 881 231 894 q 168 840 185 868 q 151 760 151 811 l 151 671 q 185 573 151 615 q 274 531 218 531 l 444 531 q 453 531 447 531 q 468 533 460 532 l 313 658 l 313 733 l 406 733 q 436 763 436 733 l 436 792 l 288 792 l 288 585 l 214 585 l 214 867 l 438 867 q 492 844 474 867 q 510 794 510 821 l 510 763 z "},"™":{"ha":1178,"x_min":81,"x_max":1075,"o":"m 857 574 l 782 574 l 782 774 q 746 861 782 825 q 658 897 710 897 l 640 897 l 640 574 l 565 574 l 565 972 l 658 972 q 751 949 708 972 q 821 886 794 925 q 890 949 849 925 q 981 972 932 972 l 1075 972 l 1075 574 l 1000 574 l 1000 897 l 981 897 q 895 859 931 897 q 857 768 860 821 l 857 574 m 347 574 l 271 574 l 271 897 l 81 897 l 81 972 l 536 972 l 536 897 l 347 897 l 347 574 z "},"°":{"ha":417,"x_min":71,"x_max":346,"o":"m 71 842 q 106 933 71 894 q 208 972 140 972 q 316 933 286 972 q 346 842 346 894 q 313 751 346 790 q 208 713 281 713 q 103 751 136 713 q 71 842 71 790 m 164 842 q 176 808 164 822 q 211 794 188 794 q 247 808 235 794 q 258 842 258 822 q 247 875 258 861 q 211 889 235 889 q 176 875 188 889 q 164 842 164 861 z "},"|":{"ha":350,"x_min":106,"x_max":244,"o":"m 244 -174 l 106 -174 l 106 1181 l 244 1181 l 244 -174 z "},"¦":{"ha":356,"x_min":108,"x_max":247,"o":"m 247 608 l 108 608 l 108 1181 l 247 1181 l 247 608 m 247 -174 l 108 -174 l 108 400 l 247 400 l 247 -174 z "},"†":{"ha":589,"x_min":51,"x_max":538,"o":"m 364 -174 l 225 -174 l 225 782 l 51 782 l 51 921 l 225 921 l 225 1181 l 364 1181 l 364 921 l 538 921 l 538 782 l 364 782 l 364 -174 z "},"‡":{"ha":608,"x_min":61,"x_max":547,"o":"m 547 88 l 374 88 l 374 -174 l 235 -174 l 235 88 l 61 88 l 61 226 l 235 226 l 235 782 l 61 782 l 61 921 l 235 921 l 235 1181 l 374 1181 l 374 921 l 547 921 l 547 782 l 374 782 l 374 226 l 547 226 l 547 88 z "},"€":{"ha":1451,"x_min":46,"x_max":1374,"o":"m 906 556 l 444 556 q 440 522 442 539 q 439 486 439 504 q 440 451 439 468 q 444 417 442 433 l 857 417 l 808 278 l 494 278 q 598 176 533 214 q 747 139 663 139 l 1374 139 l 1374 0 l 747 0 q 495 77 601 0 q 339 278 389 154 l 46 278 l 94 417 l 304 417 q 300 486 300 450 q 304 556 300 521 l 143 556 l 192 694 l 339 694 q 495 895 389 818 q 747 972 601 972 l 1374 972 l 1374 833 l 747 833 q 598 795 663 833 q 494 694 533 757 l 954 694 l 906 556 z "},"¢":{"ha":753,"x_min":50,"x_max":672,"o":"m 672 210 l 476 210 l 476 0 l 347 0 l 347 210 l 315 210 q 179 250 239 210 q 85 356 119 290 q 50 497 50 422 q 88 640 50 575 q 192 744 126 706 q 335 783 257 783 l 347 783 l 347 972 l 476 972 l 476 783 l 672 783 l 672 647 l 335 647 q 230 603 274 647 q 186 496 186 558 q 230 390 186 435 q 335 346 274 346 l 672 346 l 672 210 z "},"¤":{"ha":743,"x_min":72,"x_max":671,"o":"m 671 321 l 578 224 l 492 301 q 372 268 440 268 q 308 277 339 268 q 250 301 278 286 l 164 224 l 72 321 l 161 401 q 140 500 140 447 q 146 551 140 526 q 163 599 151 576 l 72 682 l 164 779 l 253 699 q 309 723 279 714 q 372 732 339 732 q 433 723 404 732 q 489 699 463 714 l 578 779 l 671 682 l 579 600 q 603 500 603 553 q 581 401 603 449 l 671 321 m 488 500 q 454 582 488 549 q 372 615 421 615 q 290 582 325 615 q 256 500 256 549 q 290 419 256 453 q 372 385 325 385 q 454 419 421 385 q 488 500 488 453 z "},"$":{"ha":743,"x_min":69,"x_max":692,"o":"m 692 399 q 666 304 692 347 q 597 235 640 261 q 501 210 554 210 l 444 210 l 444 0 l 315 0 l 315 210 l 69 210 l 69 346 l 501 346 q 540 361 525 346 q 556 399 556 376 q 540 438 556 422 q 501 453 525 453 l 235 453 q 151 475 189 453 q 92 535 114 497 q 69 618 69 572 q 92 701 69 664 q 151 761 114 739 q 235 783 189 783 l 315 783 l 315 972 l 444 972 l 444 783 l 643 783 l 643 647 l 235 647 q 213 638 221 647 q 206 618 206 629 q 214 597 206 606 q 235 589 222 589 l 501 589 q 597 563 554 589 q 666 494 640 538 q 692 399 692 451 z "},"£":{"ha":1168,"x_min":54,"x_max":1122,"o":"m 1122 0 l 193 0 l 193 417 l 54 417 l 54 556 l 193 556 l 193 625 q 224 762 193 699 q 308 872 254 825 q 429 945 361 918 q 572 972 497 972 l 888 972 l 888 833 l 572 833 q 451 800 506 833 q 365 712 397 767 q 332 590 332 657 l 332 556 l 749 556 l 749 417 l 332 417 l 332 139 l 1122 139 l 1122 0 z "},"¥":{"ha":1215,"x_min":46,"x_max":1169,"o":"m 1169 694 q 1123 520 1169 599 q 997 394 1076 442 q 822 347 918 347 l 676 347 l 676 278 l 882 278 l 882 139 l 676 139 l 676 0 l 538 0 l 538 139 l 326 139 l 326 278 l 538 278 l 538 347 l 393 347 q 219 394 297 347 q 93 520 140 442 q 46 694 46 599 l 46 972 l 185 972 l 185 694 q 213 590 185 638 q 288 514 240 542 q 393 486 336 486 l 822 486 q 926 514 879 486 q 1002 590 974 542 q 1031 694 1031 638 l 1031 972 l 1169 972 l 1169 694 z "},"+":{"ha":867,"x_min":51,"x_max":815,"o":"m 815 417 l 503 417 l 503 139 l 364 139 l 364 417 l 51 417 l 51 556 l 364 556 l 364 833 l 503 833 l 503 556 l 815 556 l 815 417 z "},"−":{"ha":947,"x_min":92,"x_max":856,"o":"m 856 417 l 92 417 l 92 556 l 856 556 l 856 417 z "},"×":{"ha":961,"x_min":75,"x_max":886,"o":"m 886 208 l 688 208 l 481 396 l 274 208 l 75 208 l 381 486 l 75 764 l 274 764 l 481 576 l 688 764 l 886 764 l 579 486 l 886 208 z "},"÷":{"ha":892,"x_min":64,"x_max":828,"o":"m 550 729 q 519 656 550 686 q 446 625 489 625 q 372 656 403 625 q 342 729 342 686 q 372 803 342 772 q 446 833 403 833 q 519 803 489 833 q 550 729 550 772 m 828 417 l 64 417 l 64 556 l 828 556 l 828 417 m 550 243 q 519 169 550 200 q 446 139 489 139 q 372 169 403 139 q 342 243 342 200 q 372 317 342 286 q 446 347 403 347 q 519 317 489 347 q 550 243 550 286 z "},"=":{"ha":947,"x_min":92,"x_max":856,"o":"m 856 625 l 92 625 l 92 764 l 856 764 l 856 625 m 856 208 l 92 208 l 92 347 l 856 347 l 856 208 z "},"≠":{"ha":983,"x_min":110,"x_max":874,"o":"m 874 208 l 421 208 l 342 57 l 183 57 l 263 208 l 110 208 l 110 347 l 336 347 l 482 625 l 110 625 l 110 764 l 556 764 l 638 918 l 796 918 l 714 764 l 874 764 l 874 625 l 640 625 l 494 347 l 874 347 l 874 208 z "},">":{"ha":713,"x_min":74,"x_max":663,"o":"m 254 861 l 639 518 q 663 465 663 497 q 639 414 663 433 l 257 81 l 75 81 l 515 467 l 74 861 l 254 861 z "},"<":{"ha":713,"x_min":50,"x_max":639,"o":"m 639 861 l 197 467 l 638 81 l 456 81 l 74 414 q 50 465 50 433 q 74 518 50 497 l 458 861 l 639 861 z "},"±":{"ha":917,"x_min":76,"x_max":840,"o":"m 840 417 l 528 417 l 528 139 l 389 139 l 389 417 l 76 417 l 76 556 l 389 556 l 389 833 l 528 833 l 528 556 l 840 556 l 840 417 m 840 -139 l 76 -139 l 76 0 l 840 0 l 840 -139 z "},"≈":{"ha":918,"x_min":94,"x_max":826,"o":"m 826 585 q 749 537 799 557 q 646 517 700 517 q 524 535 590 517 q 392 572 458 554 q 268 590 326 590 q 171 566 221 590 q 94 514 121 542 l 94 657 q 175 706 122 686 q 274 726 228 726 q 395 708 329 726 q 528 670 461 689 q 653 651 596 651 q 750 676 700 651 q 826 729 800 701 l 826 585 m 826 307 q 749 259 799 279 q 646 239 700 239 q 524 258 590 239 q 392 294 458 276 q 268 313 326 313 q 171 288 221 313 q 94 236 121 264 l 94 379 q 175 428 122 408 q 274 449 228 449 q 395 430 329 449 q 528 392 461 411 q 653 374 596 374 q 750 399 700 374 q 826 451 800 424 l 826 307 z "},"~":{"ha":918,"x_min":94,"x_max":826,"o":"m 826 446 q 749 398 799 418 q 646 378 700 378 q 524 397 590 378 q 392 433 458 415 q 268 451 326 451 q 171 427 221 451 q 94 375 121 403 l 94 518 q 175 567 122 547 q 274 588 228 588 q 395 569 329 588 q 528 531 461 550 q 653 513 596 513 q 750 538 700 513 q 826 590 800 563 l 826 446 z "},"¬":{"ha":815,"x_min":79,"x_max":715,"o":"m 715 158 l 578 158 l 578 418 l 79 418 l 79 556 l 715 556 l 715 158 z "},"^":{"ha":717,"x_min":56,"x_max":664,"o":"m 576 517 l 356 764 l 139 518 l 56 606 l 303 888 q 354 911 322 911 q 407 888 386 911 l 664 600 l 576 517 z "},"∫":{"ha":840,"x_min":11,"x_max":832,"o":"m 832 903 l 738 903 q 617 869 671 903 q 530 781 563 836 q 497 660 497 726 l 497 69 l 496 69 q 465 -62 496 0 q 381 -173 435 -125 q 260 -249 328 -221 q 118 -278 193 -278 l 11 -278 l 11 -139 l 118 -139 q 239 -105 185 -137 q 326 -17 293 -72 q 358 104 358 38 l 358 694 q 389 831 358 768 q 473 941 419 894 q 594 1015 526 988 q 738 1042 663 1042 l 832 1042 l 832 903 z "},"µ":{"ha":1078,"x_min":103,"x_max":1003,"o":"m 1003 0 l 482 0 q 352 23 414 0 q 242 86 290 46 l 242 -278 l 103 -278 l 103 764 l 242 764 l 242 382 q 274 260 242 315 q 361 173 307 206 q 482 139 415 140 l 864 139 l 864 764 l 1003 764 l 1003 0 z "},"∂":{"ha":1146,"x_min":51,"x_max":1093,"o":"m 1093 382 q 1064 234 1093 303 q 983 113 1035 165 q 862 30 931 60 q 714 0 793 0 l 431 0 q 283 30 351 0 q 162 113 214 60 q 81 234 110 165 q 51 382 51 303 q 81 530 51 461 q 162 651 110 599 q 283 734 214 704 q 431 764 351 764 l 714 764 q 793 756 754 764 l 607 1111 l 765 1111 l 1032 589 q 1077 492 1061 544 q 1093 382 1093 439 m 954 382 q 922 503 954 449 q 835 592 890 558 q 714 625 781 625 l 431 625 q 310 592 364 625 q 223 503 256 558 q 190 382 190 449 q 223 260 190 315 q 310 172 256 206 q 431 139 364 139 l 714 139 q 835 172 781 139 q 922 260 890 206 q 954 382 954 315 z "},"%":{"ha":1143,"x_min":49,"x_max":1094,"o":"m 511 694 q 480 578 511 631 q 397 494 449 525 q 281 463 344 463 q 164 494 217 463 q 80 578 111 525 q 49 694 49 631 q 80 811 49 758 q 164 895 111 864 q 281 926 217 926 q 397 895 344 926 q 480 811 449 864 q 511 694 511 758 m 906 914 l 374 42 l 240 42 l 772 914 l 906 914 m 396 694 q 363 776 396 743 q 281 810 329 810 q 199 776 233 810 q 164 694 164 743 q 199 613 164 647 q 281 579 233 579 q 363 613 329 579 q 396 694 396 647 m 1094 261 q 1063 144 1094 197 q 980 60 1032 92 q 864 29 928 29 q 747 60 800 29 q 663 144 694 92 q 632 261 632 197 q 663 377 632 325 q 747 460 694 429 q 864 492 800 492 q 980 460 928 492 q 1063 377 1032 429 q 1094 261 1094 325 m 979 261 q 946 342 979 308 q 864 376 913 376 q 782 342 817 376 q 747 261 747 308 q 782 179 747 214 q 864 144 817 144 q 946 179 913 144 q 979 261 979 214 z "},"‰":{"ha":1656,"x_min":49,"x_max":1607,"o":"m 511 694 q 480 578 511 631 q 397 494 449 525 q 281 463 344 463 q 164 494 217 463 q 80 578 111 525 q 49 694 49 631 q 80 811 49 758 q 164 895 111 864 q 281 926 217 926 q 397 895 344 926 q 480 811 449 864 q 511 694 511 758 m 906 914 l 374 42 l 240 42 l 772 914 l 906 914 m 396 694 q 363 776 396 743 q 281 810 329 810 q 199 776 233 810 q 164 694 164 743 q 199 613 164 647 q 281 579 233 579 q 363 613 329 579 q 396 694 396 647 m 1094 261 q 1063 144 1094 197 q 980 60 1032 92 q 864 29 928 29 q 747 60 800 29 q 663 144 694 92 q 632 261 632 197 q 663 377 632 325 q 747 460 694 429 q 864 492 800 492 q 980 460 928 492 q 1063 377 1032 429 q 1094 261 1094 325 m 1607 261 q 1576 144 1607 197 q 1492 60 1544 92 q 1376 29 1440 29 q 1260 60 1313 29 q 1176 144 1207 92 q 1144 261 1144 197 q 1176 377 1144 325 q 1260 460 1207 429 q 1376 492 1313 492 q 1492 460 1440 492 q 1576 377 1544 429 q 1607 261 1607 325 m 979 261 q 946 342 979 308 q 864 376 913 376 q 782 342 817 376 q 747 261 747 308 q 782 179 747 214 q 864 144 817 144 q 946 179 913 144 q 979 261 979 214 m 1492 261 q 1458 342 1492 308 q 1376 376 1425 376 q 1294 342 1329 376 q 1260 261 1260 308 q 1294 179 1260 214 q 1376 144 1329 144 q 1458 179 1425 144 q 1492 261 1492 214 z "},"̈":{"ha":0,"x_min":0,"x_max":353,"o":"m 126 892 q 108 847 126 865 q 64 829 89 829 q 19 847 38 829 q 0 892 0 865 q 19 935 0 917 q 64 954 38 954 q 108 935 89 954 q 126 892 126 917 m 353 892 q 334 847 353 865 q 289 829 315 829 q 244 847 263 829 q 226 892 226 865 q 244 935 226 917 q 289 954 263 954 q 334 935 315 954 q 353 892 353 917 z "},"̇":{"ha":0,"x_min":0,"x_max":125,"o":"m 125 892 q 106 847 125 865 q 63 829 88 829 q 18 847 36 829 q 0 892 0 865 q 18 935 0 917 q 63 954 36 954 q 106 935 88 954 q 125 892 125 917 z "},"̀":{"ha":0,"x_min":0,"x_max":288,"o":"m 53 1038 l 288 900 l 254 826 l 0 918 l 53 1038 z "},"́":{"ha":0,"x_min":0,"x_max":288,"o":"m 288 918 l 33 826 l 0 900 l 235 1038 l 288 918 z "},"̋":{"ha":0,"x_min":0,"x_max":422,"o":"m 213 913 l 28 821 l 0 867 l 157 1007 l 213 913 m 422 913 l 238 821 l 213 867 l 367 1007 l 422 913 z "},"̂":{"ha":0,"x_min":0,"x_max":444,"o":"m 385 826 l 215 915 l 46 826 l 0 896 l 215 1039 l 444 896 l 385 826 z "},"̌":{"ha":0,"x_min":0,"x_max":431,"o":"m 46 1025 l 215 938 l 385 1025 l 431 957 l 215 813 l 0 957 l 46 1025 z "},"̆":{"ha":0,"x_min":0,"x_max":397,"o":"m 397 1017 q 388 968 396 999 q 360 906 381 938 q 300 852 339 874 q 199 831 261 831 q 97 852 136 831 q 38 906 58 874 q 9 968 17 938 q 0 1017 1 999 l 92 1017 q 106 988 96 1006 q 138 958 117 971 q 199 944 160 944 q 260 958 238 944 q 292 988 282 971 q 306 1017 303 1006 l 397 1017 z "},"̊":{"ha":0,"x_min":0,"x_max":286,"o":"m 0 918 q 40 1001 0 967 q 143 1036 81 1036 q 249 1001 213 1036 q 286 918 286 967 q 247 835 286 871 q 143 800 208 800 q 38 835 76 800 q 0 918 0 871 m 96 918 q 108 885 96 899 q 143 871 119 871 q 178 885 167 871 q 190 918 190 899 q 178 951 190 938 q 143 965 167 965 q 108 951 119 965 q 96 918 96 938 z "},"̃":{"ha":0,"x_min":0,"x_max":386,"o":"m 386 992 q 350 862 386 899 q 263 825 314 825 q 206 840 228 825 q 169 869 185 854 q 131 883 153 883 q 102 872 111 883 q 90 846 93 860 q 86 825 88 832 l 0 825 q 38 950 0 908 q 124 992 75 992 q 176 977 156 992 q 215 948 197 963 q 256 933 233 933 q 284 945 275 933 q 296 971 293 957 q 299 992 299 985 l 386 992 z "},"̄":{"ha":0,"x_min":0,"x_max":328,"o":"m 0 836 l 0 950 l 328 950 l 328 836 l 0 836 z "},"̒":{"ha":0,"x_min":94,"x_max":261,"o":"m 94 988 q 107 1056 96 1024 q 130 1107 118 1088 q 142 1126 142 1126 l 213 1125 q 204 1109 213 1125 q 189 1065 196 1093 q 240 1038 219 1061 q 261 983 261 1015 q 237 924 261 949 q 178 900 213 900 q 119 925 143 900 q 94 988 94 950 z "},"̕":{"ha":0,"x_min":89,"x_max":256,"o":"m 256 1039 q 242 971 254 1003 q 219 919 231 939 q 208 900 208 900 l 138 901 q 146 917 138 901 q 160 960 154 933 q 109 988 129 964 q 89 1043 89 1011 q 113 1101 89 1076 q 172 1126 138 1126 q 231 1101 207 1126 q 256 1039 256 1075 z "},"̦":{"ha":0,"x_min":99,"x_max":265,"o":"m 265 -212 q 252 -281 264 -249 q 229 -332 240 -312 q 218 -351 218 -351 l 147 -350 q 156 -334 147 -350 q 169 -292 164 -318 q 119 -264 139 -287 q 99 -208 99 -240 q 123 -150 99 -175 q 182 -125 147 -125 q 241 -151 217 -125 q 265 -212 265 -176 z "},"̧":{"ha":0,"x_min":0,"x_max":264,"o":"m 161 -33 q 205 -40 181 -33 q 247 -66 229 -47 q 264 -122 264 -85 q 240 -181 264 -160 q 181 -212 217 -203 q 110 -221 146 -221 q 40 -216 60 -221 q 0 -210 19 -211 l 0 -124 q 46 -140 19 -133 q 99 -146 72 -146 q 144 -140 126 -146 q 163 -121 163 -133 q 142 -101 163 -106 q 106 -96 121 -96 q 83 -97 94 -96 q 60 -101 71 -99 l 101 10 l 178 10 l 161 -33 z "},"̨":{"ha":0,"x_min":0,"x_max":264,"o":"m 169 11 q 122 -38 139 -11 q 104 -89 104 -65 q 157 -122 104 -122 q 213 -113 181 -122 q 264 -97 246 -104 l 264 -187 q 214 -201 246 -193 q 126 -210 182 -210 q 38 -190 75 -210 q 0 -118 0 -169 q 17 -51 0 -90 q 75 11 33 -11 l 169 11 z "},"¨":{"ha":353,"x_min":0,"x_max":353,"o":"m 126 892 q 108 847 126 865 q 64 829 89 829 q 19 847 38 829 q 0 892 0 865 q 19 935 0 917 q 64 954 38 954 q 108 935 89 954 q 126 892 126 917 m 353 892 q 334 847 353 865 q 289 829 315 829 q 244 847 263 829 q 226 892 226 865 q 244 935 226 917 q 289 954 263 954 q 334 935 315 954 q 353 892 353 917 z "},"˙":{"ha":125,"x_min":0,"x_max":125,"o":"m 125 892 q 106 847 125 865 q 63 829 88 829 q 18 847 36 829 q 0 892 0 865 q 18 935 0 917 q 63 954 36 954 q 106 935 88 954 q 125 892 125 917 z "},"`":{"ha":288,"x_min":0,"x_max":288,"o":"m 53 1038 l 288 900 l 254 826 l 0 918 l 53 1038 z "},"´":{"ha":288,"x_min":0,"x_max":288,"o":"m 288 918 l 33 826 l 0 900 l 235 1038 l 288 918 z "},"˝":{"ha":422,"x_min":0,"x_max":422,"o":"m 213 913 l 28 821 l 0 867 l 157 1007 l 213 913 m 422 913 l 238 821 l 213 867 l 367 1007 l 422 913 z "},"ˆ":{"ha":444,"x_min":0,"x_max":444,"o":"m 385 826 l 215 915 l 46 826 l 0 896 l 215 1039 l 444 896 l 385 826 z "},"ˇ":{"ha":431,"x_min":0,"x_max":431,"o":"m 46 1025 l 215 938 l 385 1025 l 431 957 l 215 813 l 0 957 l 46 1025 z "},"˘":{"ha":397,"x_min":0,"x_max":397,"o":"m 397 1017 q 388 968 396 999 q 360 906 381 938 q 300 852 339 874 q 199 831 261 831 q 97 852 136 831 q 38 906 58 874 q 9 968 17 938 q 0 1017 1 999 l 92 1017 q 106 988 96 1006 q 138 958 117 971 q 199 944 160 944 q 260 958 238 944 q 292 988 282 971 q 306 1017 303 1006 l 397 1017 z "},"˚":{"ha":286,"x_min":0,"x_max":286,"o":"m 0 918 q 40 1001 0 967 q 143 1036 81 1036 q 249 1001 213 1036 q 286 918 286 967 q 247 835 286 871 q 143 800 208 800 q 38 835 76 800 q 0 918 0 871 m 96 918 q 108 885 96 899 q 143 871 119 871 q 178 885 167 871 q 190 918 190 899 q 178 951 190 938 q 143 965 167 965 q 108 951 119 965 q 96 918 96 938 z "},"˜":{"ha":386,"x_min":0,"x_max":386,"o":"m 386 992 q 350 862 386 899 q 263 825 314 825 q 206 840 228 825 q 169 869 185 854 q 131 883 153 883 q 102 872 111 883 q 90 846 93 860 q 86 825 88 832 l 0 825 q 38 950 0 908 q 124 992 75 992 q 176 977 156 992 q 215 948 197 963 q 256 933 233 933 q 284 945 275 933 q 296 971 293 957 q 299 992 299 985 l 386 992 z "},"¯":{"ha":328,"x_min":0,"x_max":328,"o":"m 0 836 l 0 950 l 328 950 l 328 836 l 0 836 z "},"¸":{"ha":264,"x_min":0,"x_max":264,"o":"m 161 -33 q 205 -40 181 -33 q 247 -66 229 -47 q 264 -122 264 -85 q 240 -181 264 -160 q 181 -212 217 -203 q 110 -221 146 -221 q 40 -216 60 -221 q 0 -210 19 -211 l 0 -124 q 46 -140 19 -133 q 99 -146 72 -146 q 144 -140 126 -146 q 163 -121 163 -133 q 142 -101 163 -106 q 106 -96 121 -96 q 83 -97 94 -96 q 60 -101 71 -99 l 101 10 l 178 10 l 161 -33 z "},"˛":{"ha":264,"x_min":0,"x_max":264,"o":"m 169 11 q 122 -38 139 -11 q 104 -89 104 -65 q 157 -122 104 -122 q 213 -113 181 -122 q 264 -97 246 -104 l 264 -187 q 214 -201 246 -193 q 126 -210 182 -210 q 38 -190 75 -210 q 0 -118 0 -169 q 17 -51 0 -90 q 75 11 33 -11 l 169 11 z "}}}
